  0
SECTION
  2
HEADER
  9
$ACADVER
  1
AC1014
  9
$HANDSEED
  5
FFFF
  9
$MEASUREMENT
 70
     1
  0
ENDSEC
  0
SECTION
  2
TABLES
  0
TABLE
  2
VPORT
  5
8
330
0
100
AcDbSymbolTable
 70
     4
  0
VPORT
  5
2E
330
8
100
AcDbSymbolTableRecord
100
AcDbViewportTableRecord
  2
*ACTIVE
 70
     0
 10
0.0
 20
0.0
 11
1.0
 21
1.0
 12
210.0
 22
148.5
 13
0.0
 23
0.0
 14
10.0
 24
10.0
 15
10.0
 25
10.0
 16
0.0
 26
0.0
 36
1.0
 17
0.0
 27
0.0
 37
0.0
 40
341.0
 41
1.24
 42
50.0
 43
0.0
 44
0.0
 50
0.0
 51
0.0
 71
     0
 72
   100
 73
     1
 74
     3
 75
     0
 76
     0
 77
     0
 78
     0
  0
ENDTAB
  0
TABLE
  2
LTYPE
  5
5
330
0
100
AcDbSymbolTable
 70
     1
  0
LTYPE
  5
14
330
5
100
AcDbSymbolTableRecord
100
AcDbLinetypeTableRecord
  2
BYBLOCK
 70
     0
  3

 72
    65
 73
     0
 40
0.0
  0
LTYPE
  5
15
330
5
100
AcDbSymbolTableRecord
100
AcDbLinetypeTableRecord
  2
BYLAYER
 70
     0
  3

 72
    65
 73
     0
 40
0.0
  0
LTYPE
  5
16
330
5
100
AcDbSymbolTableRecord
100
AcDbLinetypeTableRecord
  2
CONTINUOUS
 70
     0
  3
Solid line
 72
    65
 73
     0
 40
0.0
  0
ENDTAB
  0
TABLE
  2
LAYER
  5
2
100
AcDbSymbolTable
 70
2
  0
LAYER
  5
50
100
AcDbSymbolTableRecord
100
AcDbLayerTableRecord
  2
0
 70
0
  6
CONTINUOUS
  0
LAYER
  5
51
100
AcDbSymbolTableRecord
100
AcDbLayerTableRecord
  2
Layer_1
 70
0
  6
CONTINUOUS
  0
ENDTAB
  0
TABLE
  2
STYLE
  5
3
330
0
100
AcDbSymbolTable
 70
     1
  0
STYLE
  5
11
330
3
100
AcDbSymbolTableRecord
100
AcDbTextStyleTableRecord
  2
STANDARD
 70
     0
 40
0.0
 41
1.0
 50
0.0
 71
     0
 42
2.5
  3
txt
  4

  0
ENDTAB
  0
TABLE
  2
VIEW
  5
6
330
0
100
AcDbSymbolTable
 70
     0
  0
ENDTAB
  0
TABLE
  2
UCS
  5
7
330
0
100
AcDbSymbolTable
 70
     0
  0
ENDTAB
  0
TABLE
  2
APPID
  5
9
330
0
100
AcDbSymbolTable
 70
     2
  0
APPID
  5
12
330
9
100
AcDbSymbolTableRecord
100
AcDbRegAppTableRecord
  2
ACAD
 70
     0
  0
ENDTAB
  0
TABLE
  2
DIMSTYLE
  5
A
330
0
100
AcDbSymbolTable
 70
     1
  0
DIMSTYLE
105
27
330
A
100
AcDbSymbolTableRecord
100
AcDbDimStyleTableRecord
  2
ISO-25
 70
     0
  3

  4

  5

  6

  7

 40
1.0
 41
2.5
 42
0.625
 43
3.75
 44
1.25
 45
0.0
 46
0.0
 47
0.0
 48
0.0
140
2.5
141
2.5
142
0.0
143
0.03937007874016
144
1.0
145
0.0
146
1.0
147
0.625
 71
     0
 72
     0
 73
     0
 74
     0
 75
     0
 76
     0
 77
     1
 78
     8
170
     0
171
     3
172
     1
173
     0
174
     0
175
     0
176
     0
177
     0
178
     0
270
     2
271
     2
272
     2
273
     2
274
     3
340
11
275
     0
280
     0
281
     0
282
     0
283
     0
284
     8
285
     0
286
     0
287
     3
288
     0
  0
ENDTAB
  0
TABLE
  2
BLOCK_RECORD
  5
1
330
0
100
AcDbSymbolTable
 70
     1
  0
BLOCK_RECORD
  5
1F
330
1
100
AcDbSymbolTableRecord
100
AcDbBlockTableRecord
  2
*MODEL_SPACE
  0
BLOCK_RECORD
  5
1B
330
1
100
AcDbSymbolTableRecord
100
AcDbBlockTableRecord
  2
*PAPER_SPACE
  0
ENDTAB
  0
ENDSEC
  0
SECTION
  2
BLOCKS
  0
BLOCK
  5
20
330
1F
100
AcDbEntity
  8
0
100
AcDbBlockBegin
  2
*MODEL_SPACE
 70
     0
 10
0.0
 20
0.0
 30
0.0
  3
*MODEL_SPACE
  1

  0
ENDBLK
  5
21
330
1F
100
AcDbEntity
  8
0
100
AcDbBlockEnd
  0
BLOCK
  5
1C
330
1B
100
AcDbEntity
 67
     1
  8
0
100
AcDbBlockBegin
  2
*PAPER_SPACE
  1

  0
ENDBLK
  5
1D
330
1B
100
AcDbEntity
 67
     1
  8
0
100
AcDbBlockEnd
  0
ENDSEC
  0
SECTION
  2
ENTITIES
  0
SPLINE
  5
100
100
AcDbEntity
  8
Layer_1
 62
7
100
AcDbSpline
 70
8
 71
3
 72
8
 73
4
 74
0
 40
0
 40
0
 40
0
 40
0
 40
1
 40
1
 40
1
 40
1
 10
153.097121
 20
607.235828
 30
0.0
 10
152.938721
 20
607.241497
 30
0.0
 10
152.371721
 20
607.261340
 30
0.0
 10
151.837121
 20
607.284017
 30
0.0
  0
SPLINE
  5
101
100
AcDbEntity
  8
Layer_1
 62
7
100
AcDbSpline
 70
8
 71
3
 72
8
 73
4
 74
0
 40
0
 40
0
 40
0
 40
0
 40
1
 40
1
 40
1
 40
1
 10
151.837121
 20
607.284017
 30
0.0
 10
135.654188
 20
607.929834
 30
0.0
 10
119.843768
 20
612.463309
 30
0.0
 10
105.757123
 20
620.497037
 30
0.0
  0
SPLINE
  5
102
100
AcDbEntity
  8
Layer_1
 62
7
100
AcDbSpline
 70
8
 71
3
 72
8
 73
4
 74
0
 40
0
 40
0
 40
0
 40
0
 40
1
 40
1
 40
1
 40
1
 10
105.757123
 20
620.497037
 30
0.0
 10
91.994196
 20
628.346146
 30
0.0
 10
80.253454
 20
639.336223
 30
0.0
 10
71.510939
 20
652.553626
 30
0.0
  0
SPLINE
  5
103
100
AcDbEntity
  8
Layer_1
 62
7
100
AcDbSpline
 70
8
 71
3
 72
8
 73
4
 74
0
 40
0
 40
0
 40
0
 40
0
 40
1
 40
1
 40
1
 40
1
 10
71.510939
 20
652.553626
 30
0.0
 10
63.382054
 20
664.843311
 30
0.0
 10
58.033743
 20
678.760135
 30
0.0
 10
55.843214
 20
693.322546
 30
0.0
  0
SPLINE
  5
104
100
AcDbEntity
  8
Layer_1
 62
7
100
AcDbSpline
 70
8
 71
3
 72
8
 73
4
 74
0
 40
0
 40
0
 40
0
 40
0
 40
1
 40
1
 40
1
 40
1
 10
55.843214
 20
693.322546
 30
0.0
 10
55.295566
 20
696.963266
 30
0.0
 10
54.993217
 20
700.119272
 30
0.0
 10
54.791184
 20
704.303932
 30
0.0
  0
SPLINE
  5
105
100
AcDbEntity
  8
Layer_1
 62
7
100
AcDbSpline
 70
8
 71
3
 72
8
 73
4
 74
0
 40
0
 40
0
 40
0
 40
0
 40
1
 40
1
 40
1
 40
1
 10
54.791184
 20
704.303932
 30
0.0
 10
54.728736
 20
705.597327
 30
0.0
 10
54.728736
 20
711.182537
 30
0.0
 10
54.791184
 20
712.475932
 30
0.0
  0
SPLINE
  5
106
100
AcDbEntity
  8
Layer_1
 62
7
100
AcDbSpline
 70
8
 71
3
 72
8
 73
4
 74
0
 40
0
 40
0
 40
0
 40
0
 40
1
 40
1
 40
1
 40
1
 10
54.791184
 20
712.475932
 30
0.0
 10
54.892352
 20
714.571081
 30
0.0
 10
55.012626
 20
716.333800
 30
0.0
 10
55.160878
 20
717.893932
 30
0.0
  0
SPLINE
  5
107
100
AcDbEntity
  8
Layer_1
 62
7
100
AcDbSpline
 70
8
 71
3
 72
8
 73
4
 74
0
 40
0
 40
0
 40
0
 40
0
 40
1
 40
1
 40
1
 40
1
 10
55.160878
 20
717.893932
 30
0.0
 10
56.589613
 20
732.928110
 30
0.0
 10
61.300613
 20
747.326696
 30
0.0
 10
69.030247
 20
760.283929
 30
0.0
  0
SPLINE
  5
108
100
AcDbEntity
  8
Layer_1
 62
7
100
AcDbSpline
 70
8
 71
3
 72
8
 73
4
 74
0
 40
0
 40
0
 40
0
 40
0
 40
1
 40
1
 40
1
 40
1
 10
69.030247
 20
760.283929
 30
0.0
 10
76.246421
 20
772.380451
 30
0.0
 10
86.012254
 20
782.922807
 30
0.0
 10
97.531123
 20
791.051034
 30
0.0
  0
SPLINE
  5
109
100
AcDbEntity
  8
Layer_1
 62
7
100
AcDbSpline
 70
8
 71
3
 72
8
 73
4
 74
0
 40
0
 40
0
 40
0
 40
0
 40
1
 40
1
 40
1
 40
1
 10
97.531123
 20
791.051034
 30
0.0
 10
112.804313
 20
801.828476
 30
0.0
 10
130.775890
 20
808.176892
 30
0.0
 10
149.389121
 20
809.369739
 30
0.0
  0
SPLINE
  5
10a
100
AcDbEntity
  8
Layer_1
 62
7
100
AcDbSpline
 70
8
 71
3
 72
8
 73
4
 74
0
 40
0
 40
0
 40
0
 40
0
 40
1
 40
1
 40
1
 40
1
 10
149.389121
 20
809.369739
 30
0.0
 10
151.421771
 20
809.499991
 30
0.0
 10
152.577575
 20
809.538202
 30
0.0
 10
155.064628
 20
809.557308
 30
0.0
  0
SPLINE
  5
10b
100
AcDbEntity
  8
Layer_1
 62
7
100
AcDbSpline
 70
8
 71
3
 72
8
 73
4
 74
0
 40
0
 40
0
 40
0
 40
0
 40
1
 40
1
 40
1
 40
1
 10
155.064628
 20
809.557308
 30
0.0
 10
158.106359
 20
809.580552
 30
0.0
 10
160.227201
 20
809.523746
 30
0.0
 10
162.745121
 20
809.351201
 30
0.0
  0
SPLINE
  5
10c
100
AcDbEntity
  8
Layer_1
 62
7
100
AcDbSpline
 70
8
 71
3
 72
8
 73
4
 74
0
 40
0
 40
0
 40
0
 40
0
 40
1
 40
1
 40
1
 40
1
 10
162.745121
 20
809.351201
 30
0.0
 10
178.237287
 20
808.289498
 30
0.0
 10
193.177624
 20
803.733180
 30
0.0
 10
206.575118
 20
795.984477
 30
0.0
  0
SPLINE
  5
10d
100
AcDbEntity
  8
Layer_1
 62
7
100
AcDbSpline
 70
8
 71
3
 72
8
 73
4
 74
0
 40
0
 40
0
 40
0
 40
0
 40
1
 40
1
 40
1
 40
1
 10
206.575118
 20
795.984477
 30
0.0
 10
220.122879
 20
788.148862
 30
0.0
 10
231.665811
 20
777.278826
 30
0.0
 10
240.299291
 20
764.226252
 30
0.0
  0
SPLINE
  5
10e
100
AcDbEntity
  8
Layer_1
 62
7
100
AcDbSpline
 70
8
 71
3
 72
8
 73
4
 74
0
 40
0
 40
0
 40
0
 40
0
 40
1
 40
1
 40
1
 40
1
 10
240.299291
 20
764.226252
 30
0.0
 10
250.136334
 20
749.354111
 30
0.0
 10
255.875386
 20
732.130112
 30
0.0
 10
256.918791
 20
714.347946
 30
0.0
  0
SPLINE
  5
10f
100
AcDbEntity
  8
Layer_1
 62
7
100
AcDbSpline
 70
8
 71
3
 72
8
 73
4
 74
0
 40
0
 40
0
 40
0
 40
0
 40
1
 40
1
 40
1
 40
1
 10
256.918791
 20
714.347946
 30
0.0
 10
257.049468
 20
712.120929
 30
0.0
 10
257.065058
 20
711.483602
 30
0.0
 10
257.065058
 20
708.389946
 30
0.0
  0
SPLINE
  5
110
100
AcDbEntity
  8
Layer_1
 62
7
100
AcDbSpline
 70
8
 71
3
 72
8
 73
4
 74
0
 40
0
 40
0
 40
0
 40
0
 40
1
 40
1
 40
1
 40
1
 10
257.065058
 20
708.389946
 30
0.0
 10
257.065058
 20
705.040614
 30
0.0
 10
257.021972
 20
703.697998
 30
0.0
 10
256.830066
 20
701.063946
 30
0.0
  0
SPLINE
  5
111
100
AcDbEntity
  8
Layer_1
 62
7
100
AcDbSpline
 70
8
 71
3
 72
8
 73
4
 74
0
 40
0
 40
0
 40
0
 40
0
 40
1
 40
1
 40
1
 40
1
 10
256.830066
 20
701.063946
 30
0.0
 10
255.730252
 20
685.976477
 30
0.0
 10
251.284989
 20
671.369817
 30
0.0
 10
243.798066
 20
658.241949
 30
0.0
  0
SPLINE
  5
112
100
AcDbEntity
  8
Layer_1
 62
7
100
AcDbSpline
 70
8
 71
3
 72
8
 73
4
 74
0
 40
0
 40
0
 40
0
 40
0
 40
1
 40
1
 40
1
 40
1
 10
243.798066
 20
658.241949
 30
0.0
 10
237.841200
 20
647.796937
 30
0.0
 10
230.084787
 20
638.518674
 30
0.0
 10
220.831172
 20
630.768756
 30
0.0
  0
SPLINE
  5
113
100
AcDbEntity
  8
Layer_1
 62
7
100
AcDbSpline
 70
8
 71
3
 72
8
 73
4
 74
0
 40
0
 40
0
 40
0
 40
0
 40
1
 40
1
 40
1
 40
1
 10
220.831172
 20
630.768756
 30
0.0
 10
206.209250
 20
618.522888
 30
0.0
 10
188.268585
 20
610.622889
 30
0.0
 10
169.340542
 20
608.095293
 30
0.0
  0
SPLINE
  5
114
100
AcDbEntity
  8
Layer_1
 62
7
100
AcDbSpline
 70
8
 71
3
 72
8
 73
4
 74
0
 40
0
 40
0
 40
0
 40
0
 40
1
 40
1
 40
1
 40
1
 10
169.340542
 20
608.095293
 30
0.0
 10
165.929842
 20
607.639822
 30
0.0
 10
162.661207
 20
607.369765
 30
0.0
 10
159.091177
 20
607.248386
 30
0.0
  0
SPLINE
  5
115
100
AcDbEntity
  8
Layer_1
 62
7
100
AcDbSpline
 70
8
 71
3
 72
8
 73
4
 74
0
 40
0
 40
0
 40
0
 40
0
 40
1
 40
1
 40
1
 40
1
 10
159.091177
 20
607.248386
 30
0.0
 10
158.174980
 20
607.217204
 30
0.0
 10
153.937692
 20
607.208417
 30
0.0
 10
153.097177
 20
607.237047
 30
0.0
  0
SPLINE
  5
116
100
AcDbEntity
  8
Layer_1
 62
7
100
AcDbSpline
 70
8
 71
3
 72
8
 73
4
 74
0
 40
0
 40
0
 40
0
 40
0
 40
1
 40
1
 40
1
 40
1
 10
158.155121
 20
607.320584
 30
0.0
 10
169.057449
 20
607.590442
 30
0.0
 10
179.346657
 20
609.472307
 30
0.0
 10
189.547118
 20
613.061683
 30
0.0
  0
SPLINE
  5
117
100
AcDbEntity
  8
Layer_1
 62
7
100
AcDbSpline
 70
8
 71
3
 72
8
 73
4
 74
0
 40
0
 40
0
 40
0
 40
0
 40
1
 40
1
 40
1
 40
1
 10
189.547118
 20
613.061683
 30
0.0
 10
205.398944
 20
618.639670
 30
0.0
 10
219.796384
 20
628.251942
 30
0.0
 10
231.039978
 20
640.763878
 30
0.0
  0
SPLINE
  5
118
100
AcDbEntity
  8
Layer_1
 62
7
100
AcDbSpline
 70
8
 71
3
 72
8
 73
4
 74
0
 40
0
 40
0
 40
0
 40
0
 40
1
 40
1
 40
1
 40
1
 10
231.039978
 20
640.763878
 30
0.0
 10
243.199134
 20
654.294648
 30
0.0
 10
251.426636
 20
670.668806
 30
0.0
 10
255.016828
 20
688.481875
 30
0.0
  0
SPLINE
  5
119
100
AcDbEntity
  8
Layer_1
 62
7
100
AcDbSpline
 70
8
 71
3
 72
8
 73
4
 74
0
 40
0
 40
0
 40
0
 40
0
 40
1
 40
1
 40
1
 40
1
 10
255.016828
 20
688.481875
 30
0.0
 10
256.103405
 20
693.873179
 30
0.0
 10
256.709140
 20
699.037384
 30
0.0
 10
256.944387
 20
704.915875
 30
0.0
  0
SPLINE
  5
11a
100
AcDbEntity
  8
Layer_1
 62
7
100
AcDbSpline
 70
8
 71
3
 72
8
 73
4
 74
0
 40
0
 40
0
 40
0
 40
0
 40
1
 40
1
 40
1
 40
1
 10
256.944387
 20
704.915875
 30
0.0
 10
257.037931
 20
707.255719
 30
0.0
 10
256.995411
 20
711.239621
 30
0.0
 10
256.848009
 20
713.915875
 30
0.0
  0
SPLINE
  5
11b
100
AcDbEntity
  8
Layer_1
 62
7
100
AcDbSpline
 70
8
 71
3
 72
8
 73
4
 74
0
 40
0
 40
0
 40
0
 40
0
 40
1
 40
1
 40
1
 40
1
 10
256.848009
 20
713.915875
 30
0.0
 10
256.063124
 20
728.165208
 30
0.0
 10
252.290353
 20
742.037950
 30
0.0
 10
245.750598
 20
754.721872
 30
0.0
  0
SPLINE
  5
11c
100
AcDbEntity
  8
Layer_1
 62
7
100
AcDbSpline
 70
8
 71
3
 72
8
 73
4
 74
0
 40
0
 40
0
 40
0
 40
0
 40
1
 40
1
 40
1
 40
1
 10
245.750598
 20
754.721872
 30
0.0
 10
239.217364
 20
767.392968
 30
0.0
 10
230.098819
 20
778.510562
 30
0.0
 10
218.923115
 20
787.430642
 30
0.0
  0
SPLINE
  5
11d
100
AcDbEntity
  8
Layer_1
 62
7
100
AcDbSpline
 70
8
 71
3
 72
8
 73
4
 74
0
 40
0
 40
0
 40
0
 40
0
 40
1
 40
1
 40
1
 40
1
 10
218.923115
 20
787.430642
 30
0.0
 10
210.591950
 20
794.080315
 30
0.0
 10
201.199357
 20
799.394304
 30
0.0
 10
191.179919
 20
803.126767
 30
0.0
  0
SPLINE
  5
11e
100
AcDbEntity
  8
Layer_1
 62
7
100
AcDbSpline
 70
8
 71
3
 72
8
 73
4
 74
0
 40
0
 40
0
 40
0
 40
0
 40
1
 40
1
 40
1
 40
1
 10
191.179919
 20
803.126767
 30
0.0
 10
175.871480
 20
808.829498
 30
0.0
 10
159.424841
 20
810.735727
 30
0.0
 10
143.229118
 20
808.684455
 30
0.0
  0
SPLINE
  5
11f
100
AcDbEntity
  8
Layer_1
 62
7
100
AcDbSpline
 70
8
 71
3
 72
8
 73
4
 74
0
 40
0
 40
0
 40
0
 40
0
 40
1
 40
1
 40
1
 40
1
 10
143.229118
 20
808.684455
 30
0.0
 10
137.219085
 20
807.923251
 30
0.0
 10
131.207927
 20
806.608443
 30
0.0
 10
125.593123
 20
804.826967
 30
0.0
  0
SPLINE
  5
120
100
AcDbEntity
  8
Layer_1
 62
7
100
AcDbSpline
 70
8
 71
3
 72
8
 73
4
 74
0
 40
0
 40
0
 40
0
 40
0
 40
1
 40
1
 40
1
 40
1
 10
125.593123
 20
804.826967
 30
0.0
 10
125.058523
 20
804.657342
 30
0.0
 10
124.521554
 20
804.488014
 30
0.0
 10
124.399860
 20
804.450668
 30
0.0
  0
SPLINE
  5
121
100
AcDbEntity
  8
Layer_1
 62
7
100
AcDbSpline
 70
8
 71
3
 72
8
 73
4
 74
0
 40
0
 40
0
 40
0
 40
0
 40
1
 40
1
 40
1
 40
1
 10
124.399860
 20
804.450668
 30
0.0
 10
124.051592
 20
804.343802
 30
0.0
 10
121.884137
 20
803.588525
 30
0.0
 10
121.129123
 20
803.310953
 30
0.0
  0
SPLINE
  5
122
100
AcDbEntity
  8
Layer_1
 62
7
100
AcDbSpline
 70
8
 71
3
 72
8
 73
4
 74
0
 40
0
 40
0
 40
0
 40
0
 40
1
 40
1
 40
1
 40
1
 10
121.129123
 20
803.310953
 30
0.0
 10
110.863701
 20
799.537000
 30
0.0
 10
101.385286
 20
794.207137
 30
0.0
 10
92.887123
 20
787.430035
 30
0.0
  0
SPLINE
  5
123
100
AcDbEntity
  8
Layer_1
 62
7
100
AcDbSpline
 70
8
 71
3
 72
8
 73
4
 74
0
 40
0
 40
0
 40
0
 40
0
 40
1
 40
1
 40
1
 40
1
 10
92.887123
 20
787.430035
 30
0.0
 10
88.146544
 20
783.649525
 30
0.0
 10
83.773494
 20
779.468270
 30
0.0
 10
79.763426
 20
774.881929
 30
0.0
  0
SPLINE
  5
124
100
AcDbEntity
  8
Layer_1
 62
7
100
AcDbSpline
 70
8
 71
3
 72
8
 73
4
 74
0
 40
0
 40
0
 40
0
 40
0
 40
1
 40
1
 40
1
 40
1
 10
79.763426
 20
774.881929
 30
0.0
 10
75.205463
 20
769.668956
 30
0.0
 10
71.123596
 20
763.885052
 30
0.0
 10
67.733578
 20
757.835929
 30
0.0
  0
SPLINE
  5
125
100
AcDbEntity
  8
Layer_1
 62
7
100
AcDbSpline
 70
8
 71
3
 72
8
 73
4
 74
0
 40
0
 40
0
 40
0
 40
0
 40
1
 40
1
 40
1
 40
1
 10
67.733578
 20
757.835929
 30
0.0
 10
60.172362
 20
744.343753
 30
0.0
 10
55.812070
 20
729.353798
 30
0.0
 10
54.963332
 20
713.933932
 30
0.0
  0
SPLINE
  5
126
100
AcDbEntity
  8
Layer_1
 62
7
100
AcDbSpline
 70
8
 71
3
 72
8
 73
4
 74
0
 40
0
 40
0
 40
0
 40
0
 40
1
 40
1
 40
1
 40
1
 10
54.963332
 20
713.933932
 30
0.0
 10
54.766097
 20
710.350449
 30
0.0
 10
54.766097
 20
706.429414
 30
0.0
 10
54.963332
 20
702.845932
 30
0.0
  0
SPLINE
  5
127
100
AcDbEntity
  8
Layer_1
 62
7
100
AcDbSpline
 70
8
 71
3
 72
8
 73
4
 74
0
 40
0
 40
0
 40
0
 40
0
 40
1
 40
1
 40
1
 40
1
 10
54.963332
 20
702.845932
 30
0.0
 10
55.915824
 20
685.541058
 30
0.0
 10
61.293373
 20
668.792682
 30
0.0
 10
70.596660
 20
654.155935
 30
0.0
  0
SPLINE
  5
128
100
AcDbEntity
  8
Layer_1
 62
7
100
AcDbSpline
 70
8
 71
3
 72
8
 73
4
 74
0
 40
0
 40
0
 40
0
 40
0
 40
1
 40
1
 40
1
 40
1
 10
70.596660
 20
654.155935
 30
0.0
 10
78.093062
 20
642.361935
 30
0.0
 10
88.011218
 20
632.200516
 30
0.0
 10
99.619123
 20
624.421633
 30
0.0
  0
SPLINE
  5
129
100
AcDbEntity
  8
Layer_1
 62
7
100
AcDbSpline
 70
8
 71
3
 72
8
 73
4
 74
0
 40
0
 40
0
 40
0
 40
0
 40
1
 40
1
 40
1
 40
1
 10
99.619123
 20
624.421633
 30
0.0
 10
104.921643
 20
620.868223
 30
0.0
 10
110.565782
 20
617.816339
 30
0.0
 10
116.467123
 20
615.311631
 30
0.0
  0
SPLINE
  5
12a
100
AcDbEntity
  8
Layer_1
 62
7
100
AcDbSpline
 70
8
 71
3
 72
8
 73
4
 74
0
 40
0
 40
0
 40
0
 40
0
 40
1
 40
1
 40
1
 40
1
 10
116.467123
 20
615.311631
 30
0.0
 10
127.200385
 20
610.756118
 30
0.0
 10
138.698476
 20
608.089737
 30
0.0
 10
150.379121
 20
607.447576
 30
0.0
  0
SPLINE
  5
12b
100
AcDbEntity
  8
Layer_1
 62
7
100
AcDbSpline
 70
8
 71
3
 72
8
 73
4
 74
0
 40
0
 40
0
 40
0
 40
0
 40
1
 40
1
 40
1
 40
1
 10
150.379121
 20
607.447576
 30
0.0
 10
153.007226
 20
607.303009
 30
0.0
 10
155.683043
 20
607.259356
 30
0.0
 10
158.155121
 20
607.320584
 30
0.0
  0
LWPOLYLINE
  5
12c
100
AcDbEntity
  8
Layer_1
 62
7
100
AcDbPolyline
 90
2
 70
0
 10
153.097177
 20
607.237047
 30
0.0
 10
153.097121
 20
607.235828
 30
0.0
  0
SPLINE
  5
12d
100
AcDbEntity
  8
Layer_1
 62
7
100
AcDbSpline
 70
8
 71
3
 72
8
 73
4
 74
0
 40
0
 40
0
 40
0
 40
0
 40
1
 40
1
 40
1
 40
1
 10
153.079121
 20
610.223885
 30
0.0
 10
139.717973
 20
610.631875
 30
0.0
 10
126.820783
 20
613.661732
 30
0.0
 10
114.721123
 20
619.235099
 30
0.0
  0
SPLINE
  5
12e
100
AcDbEntity
  8
Layer_1
 62
7
100
AcDbSpline
 70
8
 71
3
 72
8
 73
4
 74
0
 40
0
 40
0
 40
0
 40
0
 40
1
 40
1
 40
1
 40
1
 10
114.721123
 20
619.235099
 30
0.0
 10
113.197408
 20
619.936954
 30
0.0
 10
110.755208
 20
621.153774
 30
0.0
 10
109.465123
 20
621.853880
 30
0.0
  0
SPLINE
  5
12f
100
AcDbEntity
  8
Layer_1
 62
7
100
AcDbSpline
 70
8
 71
3
 72
8
 73
4
 74
0
 40
0
 40
0
 40
0
 40
0
 40
1
 40
1
 40
1
 40
1
 10
109.465123
 20
621.853880
 30
0.0
 10
107.989937
 20
622.654441
 30
0.0
 10
107.467123
 20
622.956555
 30
0.0
 10
107.467123
 20
623.008449
 30
0.0
  0
SPLINE
  5
130
100
AcDbEntity
  8
Layer_1
 62
7
100
AcDbSpline
 70
8
 71
3
 72
8
 73
4
 74
0
 40
0
 40
0
 40
0
 40
0
 40
1
 40
1
 40
1
 40
1
 10
107.467123
 20
623.008449
 30
0.0
 10
107.467123
 20
623.075488
 30
0.0
 10
107.811723
 20
623.634395
 30
0.0
 10
108.459428
 20
624.617881
 30
0.0
  0
SPLINE
  5
131
100
AcDbEntity
  8
Layer_1
 62
7
100
AcDbSpline
 70
8
 71
3
 72
8
 73
4
 74
0
 40
0
 40
0
 40
0
 40
0
 40
1
 40
1
 40
1
 40
1
 10
108.459428
 20
624.617881
 30
0.0
 10
110.460229
 20
627.655929
 30
0.0
 10
112.762655
 20
630.507433
 30
0.0
 10
115.314661
 20
633.107937
 30
0.0
  0
SPLINE
  5
132
100
AcDbEntity
  8
Layer_1
 62
7
100
AcDbSpline
 70
8
 71
3
 72
8
 73
4
 74
0
 40
0
 40
0
 40
0
 40
0
 40
1
 40
1
 40
1
 40
1
 10
115.314661
 20
633.107937
 30
0.0
 10
116.404055
 20
634.218032
 30
0.0
 10
117.688294
 20
635.338928
 30
0.0
 10
119.347123
 20
636.627504
 30
0.0
  0
SPLINE
  5
133
100
AcDbEntity
  8
Layer_1
 62
7
100
AcDbSpline
 70
8
 71
3
 72
8
 73
4
 74
0
 40
0
 40
0
 40
0
 40
0
 40
1
 40
1
 40
1
 40
1
 10
119.347123
 20
636.627504
 30
0.0
 10
126.217083
 20
641.964090
 30
0.0
 10
134.051888
 20
645.697565
 30
0.0
 10
142.484729
 20
647.653130
 30
0.0
  0
SPLINE
  5
134
100
AcDbEntity
  8
Layer_1
 62
7
100
AcDbSpline
 70
8
 71
3
 72
8
 73
4
 74
0
 40
0
 40
0
 40
0
 40
0
 40
1
 40
1
 40
1
 40
1
 10
142.484729
 20
647.653130
 30
0.0
 10
145.382961
 20
648.325227
 30
0.0
 10
148.315385
 20
648.774516
 30
0.0
 10
151.315121
 20
649.006064
 30
0.0
  0
SPLINE
  5
135
100
AcDbEntity
  8
Layer_1
 62
7
100
AcDbSpline
 70
8
 71
3
 72
8
 73
4
 74
0
 40
0
 40
0
 40
0
 40
0
 40
1
 40
1
 40
1
 40
1
 10
151.315121
 20
649.006064
 30
0.0
 10
153.042111
 20
649.139377
 30
0.0
 10
153.828933
 20
649.166958
 30
0.0
 10
155.905121
 20
649.166958
 30
0.0
  0
SPLINE
  5
136
100
AcDbEntity
  8
Layer_1
 62
7
100
AcDbSpline
 70
8
 71
3
 72
8
 73
4
 74
0
 40
0
 40
0
 40
0
 40
0
 40
1
 40
1
 40
1
 40
1
 10
155.905121
 20
649.166958
 30
0.0
 10
157.901414
 20
649.166958
 30
0.0
 10
158.733351
 20
649.139746
 30
0.0
 10
160.297121
 20
649.023582
 30
0.0
  0
SPLINE
  5
137
100
AcDbEntity
  8
Layer_1
 62
7
100
AcDbSpline
 70
8
 71
3
 72
8
 73
4
 74
0
 40
0
 40
0
 40
0
 40
0
 40
1
 40
1
 40
1
 40
1
 10
160.297121
 20
649.023582
 30
0.0
 10
171.428604
 20
648.196231
 30
0.0
 10
182.081724
 20
644.269765
 30
0.0
 10
191.068741
 20
637.681955
 30
0.0
  0
SPLINE
  5
138
100
AcDbEntity
  8
Layer_1
 62
7
100
AcDbSpline
 70
8
 71
3
 72
8
 73
4
 74
0
 40
0
 40
0
 40
0
 40
0
 40
1
 40
1
 40
1
 40
1
 10
191.068741
 20
637.681955
 30
0.0
 10
193.255472
 20
636.079003
 30
0.0
 10
195.116649
 20
634.510885
 30
0.0
 10
196.480392
 20
633.122419
 30
0.0
  0
SPLINE
  5
139
100
AcDbEntity
  8
Layer_1
 62
7
100
AcDbSpline
 70
8
 71
3
 72
8
 73
4
 74
0
 40
0
 40
0
 40
0
 40
0
 40
1
 40
1
 40
1
 40
1
 10
196.480392
 20
633.122419
 30
0.0
 10
199.034864
 20
630.521631
 30
0.0
 10
201.291454
 20
627.734588
 30
0.0
 10
203.278813
 20
624.725904
 30
0.0
  0
SPLINE
  5
13a
100
AcDbEntity
  8
Layer_1
 62
7
100
AcDbSpline
 70
8
 71
3
 72
8
 73
4
 74
0
 40
0
 40
0
 40
0
 40
0
 40
1
 40
1
 40
1
 40
1
 10
203.278813
 20
624.725904
 30
0.0
 10
203.955925
 20
623.700816
 30
0.0
 10
204.343118
 20
623.076256
 30
0.0
 10
204.343118
 20
623.009134
 30
0.0
  0
SPLINE
  5
13b
100
AcDbEntity
  8
Layer_1
 62
7
100
AcDbSpline
 70
8
 71
3
 72
8
 73
4
 74
0
 40
0
 40
0
 40
0
 40
0
 40
1
 40
1
 40
1
 40
1
 10
204.343118
 20
623.009134
 30
0.0
 10
204.343118
 20
622.971009
 30
0.0
 10
204.087319
 20
622.809207
 30
0.0
 10
203.596118
 20
622.536619
 30
0.0
  0
SPLINE
  5
13c
100
AcDbEntity
  8
Layer_1
 62
7
100
AcDbSpline
 70
8
 71
3
 72
8
 73
4
 74
0
 40
0
 40
0
 40
0
 40
0
 40
1
 40
1
 40
1
 40
1
 10
203.596118
 20
622.536619
 30
0.0
 10
195.325160
 20
617.946797
 30
0.0
 10
186.421671
 20
614.568237
 30
0.0
 10
177.217121
 20
612.526723
 30
0.0
  0
SPLINE
  5
13d
100
AcDbEntity
  8
Layer_1
 62
7
100
AcDbSpline
 70
8
 71
3
 72
8
 73
4
 74
0
 40
0
 40
0
 40
0
 40
0
 40
1
 40
1
 40
1
 40
1
 10
177.217121
 20
612.526723
 30
0.0
 10
171.205574
 20
611.193390
 30
0.0
 10
165.331967
 20
610.451904
 30
0.0
 10
159.073121
 20
610.236187
 30
0.0
  0
SPLINE
  5
13e
100
AcDbEntity
  8
Layer_1
 62
7
100
AcDbSpline
 70
8
 71
3
 72
8
 73
4
 74
0
 40
0
 40
0
 40
0
 40
0
 40
1
 40
1
 40
1
 40
1
 10
159.073121
 20
610.236187
 30
0.0
 10
158.172619
 20
610.205289
 30
0.0
 10
153.975050
 20
610.196502
 30
0.0
 10
153.079121
 20
610.224849
 30
0.0
  0
LWPOLYLINE
  5
13f
100
AcDbEntity
  8
Layer_1
 62
7
100
AcDbPolyline
 90
1
 70
1
 10
158.155121
 20
607.320584
 30
0.0
  0
SPLINE
  5
140
100
AcDbEntity
  8
Layer_1
 62
7
100
AcDbSpline
 70
8
 71
3
 72
8
 73
4
 74
0
 40
0
 40
0
 40
0
 40
0
 40
1
 40
1
 40
1
 40
1
 10
159.469121
 20
610.344074
 30
0.0
 10
170.886813
 20
610.778568
 30
0.0
 10
181.872289
 20
613.112270
 30
0.0
 10
192.481118
 20
617.356956
 30
0.0
  0
SPLINE
  5
141
100
AcDbEntity
  8
Layer_1
 62
7
100
AcDbSpline
 70
8
 71
3
 72
8
 73
4
 74
0
 40
0
 40
0
 40
0
 40
0
 40
1
 40
1
 40
1
 40
1
 10
192.481118
 20
617.356956
 30
0.0
 10
194.924115
 20
618.334424
 30
0.0
 10
197.208913
 20
619.365161
 30
0.0
 10
199.771118
 20
620.645678
 30
0.0
  0
SPLINE
  5
142
100
AcDbEntity
  8
Layer_1
 62
7
100
AcDbSpline
 70
8
 71
3
 72
8
 73
4
 74
0
 40
0
 40
0
 40
0
 40
0
 40
1
 40
1
 40
1
 40
1
 10
199.771118
 20
620.645678
 30
0.0
 10
201.480647
 20
621.500051
 30
0.0
 10
204.074838
 20
622.883492
 30
0.0
 10
204.208716
 20
623.012176
 30
0.0
  0
SPLINE
  5
143
100
AcDbEntity
  8
Layer_1
 62
7
100
AcDbSpline
 70
8
 71
3
 72
8
 73
4
 74
0
 40
0
 40
0
 40
0
 40
0
 40
1
 40
1
 40
1
 40
1
 10
204.208716
 20
623.012176
 30
0.0
 10
204.270511
 20
623.071562
 30
0.0
 10
202.867050
 20
625.203944
 30
0.0
 10
201.789473
 20
626.687909
 30
0.0
  0
SPLINE
  5
144
100
AcDbEntity
  8
Layer_1
 62
7
100
AcDbSpline
 70
8
 71
3
 72
8
 73
4
 74
0
 40
0
 40
0
 40
0
 40
0
 40
1
 40
1
 40
1
 40
1
 10
201.789473
 20
626.687909
 30
0.0
 10
199.738276
 20
629.512676
 30
0.0
 10
196.929927
 20
632.701193
 30
0.0
 10
195.001118
 20
634.395212
 30
0.0
  0
SPLINE
  5
145
100
AcDbEntity
  8
Layer_1
 62
7
100
AcDbSpline
 70
8
 71
3
 72
8
 73
4
 74
0
 40
0
 40
0
 40
0
 40
0
 40
1
 40
1
 40
1
 40
1
 10
195.001118
 20
634.395212
 30
0.0
 10
190.456010
 20
638.387059
 30
0.0
 10
185.096273
 20
641.773865
 30
0.0
 10
179.467121
 20
644.211116
 30
0.0
  0
SPLINE
  5
146
100
AcDbEntity
  8
Layer_1
 62
7
100
AcDbSpline
 70
8
 71
3
 72
8
 73
4
 74
0
 40
0
 40
0
 40
0
 40
0
 40
1
 40
1
 40
1
 40
1
 10
179.467121
 20
644.211116
 30
0.0
 10
176.239295
 20
645.608665
 30
0.0
 10
172.680049
 20
646.779413
 30
0.0
 10
169.261121
 20
647.568198
 30
0.0
  0
SPLINE
  5
147
100
AcDbEntity
  8
Layer_1
 62
7
100
AcDbSpline
 70
8
 71
3
 72
8
 73
4
 74
0
 40
0
 40
0
 40
0
 40
0
 40
1
 40
1
 40
1
 40
1
 10
169.261121
 20
647.568198
 30
0.0
 10
166.047579
 20
648.309594
 30
0.0
 10
162.913921
 20
648.762080
 30
0.0
 10
159.397121
 20
648.992520
 30
0.0
  0
SPLINE
  5
148
100
AcDbEntity
  8
Layer_1
 62
7
100
AcDbSpline
 70
8
 71
3
 72
8
 73
4
 74
0
 40
0
 40
0
 40
0
 40
0
 40
1
 40
1
 40
1
 40
1
 10
159.397121
 20
648.992520
 30
0.0
 10
158.218699
 20
649.069736
 30
0.0
 10
154.861132
 20
649.101342
 30
0.0
 10
153.601121
 20
649.047059
 30
0.0
  0
SPLINE
  5
149
100
AcDbEntity
  8
Layer_1
 62
7
100
AcDbSpline
 70
8
 71
3
 72
8
 73
4
 74
0
 40
0
 40
0
 40
0
 40
0
 40
1
 40
1
 40
1
 40
1
 10
153.601121
 20
649.047059
 30
0.0
 10
147.741301
 20
648.794662
 30
0.0
 10
142.302319
 20
647.788343
 30
0.0
 10
136.879121
 20
645.953202
 30
0.0
  0
SPLINE
  5
14a
100
AcDbEntity
  8
Layer_1
 62
7
100
AcDbSpline
 70
8
 71
3
 72
8
 73
4
 74
0
 40
0
 40
0
 40
0
 40
0
 40
1
 40
1
 40
1
 40
1
 10
136.879121
 20
645.953202
 30
0.0
 10
134.195423
 20
645.045069
 30
0.0
 10
131.900037
 20
644.084544
 30
0.0
 10
129.283123
 20
642.774583
 30
0.0
  0
SPLINE
  5
14b
100
AcDbEntity
  8
Layer_1
 62
7
100
AcDbSpline
 70
8
 71
3
 72
8
 73
4
 74
0
 40
0
 40
0
 40
0
 40
0
 40
1
 40
1
 40
1
 40
1
 10
129.283123
 20
642.774583
 30
0.0
 10
124.839326
 20
640.550137
 30
0.0
 10
120.749443
 20
637.812102
 30
0.0
 10
116.963512
 20
634.527045
 30
0.0
  0
SPLINE
  5
14c
100
AcDbEntity
  8
Layer_1
 62
7
100
AcDbSpline
 70
8
 71
3
 72
8
 73
4
 74
0
 40
0
 40
0
 40
0
 40
0
 40
1
 40
1
 40
1
 40
1
 10
116.963512
 20
634.527045
 30
0.0
 10
116.247708
 20
633.905940
 30
0.0
 10
115.819424
 20
633.492315
 30
0.0
 10
114.958743
 20
632.590886
 30
0.0
  0
SPLINE
  5
14d
100
AcDbEntity
  8
Layer_1
 62
7
100
AcDbSpline
 70
8
 71
3
 72
8
 73
4
 74
0
 40
0
 40
0
 40
0
 40
0
 40
1
 40
1
 40
1
 40
1
 10
114.958743
 20
632.590886
 30
0.0
 10
112.496233
 20
630.011786
 30
0.0
 10
110.440174
 20
627.435615
 30
0.0
 10
108.537993
 20
624.545918
 30
0.0
  0
SPLINE
  5
14e
100
AcDbEntity
  8
Layer_1
 62
7
100
AcDbSpline
 70
8
 71
3
 72
8
 73
4
 74
0
 40
0
 40
0
 40
0
 40
0
 40
1
 40
1
 40
1
 40
1
 10
108.537993
 20
624.545918
 30
0.0
 10
107.863155
 20
623.520734
 30
0.0
 10
107.570806
 20
623.041770
 30
0.0
 10
107.601525
 20
623.011671
 30
0.0
  0
SPLINE
  5
14f
100
AcDbEntity
  8
Layer_1
 62
7
100
AcDbSpline
 70
8
 71
3
 72
8
 73
4
 74
0
 40
0
 40
0
 40
0
 40
0
 40
1
 40
1
 40
1
 40
1
 10
107.601525
 20
623.011671
 30
0.0
 10
107.634549
 20
622.979328
 30
0.0
 10
108.275695
 20
622.619532
 30
0.0
 10
109.069123
 20
622.188085
 30
0.0
  0
SPLINE
  5
150
100
AcDbEntity
  8
Layer_1
 62
7
100
AcDbSpline
 70
8
 71
3
 72
8
 73
4
 74
0
 40
0
 40
0
 40
0
 40
0
 40
1
 40
1
 40
1
 40
1
 10
109.069123
 20
622.188085
 30
0.0
 10
112.732285
 20
620.196151
 30
0.0
 10
116.637211
 20
618.390094
 30
0.0
 10
120.540509
 20
616.882482
 30
0.0
  0
SPLINE
  5
151
100
AcDbEntity
  8
Layer_1
 62
7
100
AcDbSpline
 70
8
 71
3
 72
8
 73
4
 74
0
 40
0
 40
0
 40
0
 40
0
 40
1
 40
1
 40
1
 40
1
 10
120.540509
 20
616.882482
 30
0.0
 10
129.374864
 20
613.470291
 30
0.0
 10
138.566480
 20
611.369649
 30
0.0
 10
148.039121
 20
610.598001
 30
0.0
  0
SPLINE
  5
152
100
AcDbEntity
  8
Layer_1
 62
7
100
AcDbSpline
 70
8
 71
3
 72
8
 73
4
 74
0
 40
0
 40
0
 40
0
 40
0
 40
1
 40
1
 40
1
 40
1
 10
148.039121
 20
610.598001
 30
0.0
 10
149.830914
 20
610.452017
 30
0.0
 10
151.778577
 20
610.354222
 30
0.0
 10
154.105121
 20
610.292993
 30
0.0
  0
SPLINE
  5
153
100
AcDbEntity
  8
Layer_1
 62
7
100
AcDbSpline
 70
8
 71
3
 72
8
 73
4
 74
0
 40
0
 40
0
 40
0
 40
0
 40
1
 40
1
 40
1
 40
1
 10
154.105121
 20
610.292993
 30
0.0
 10
154.892557
 20
610.273151
 30
0.0
 10
158.481150
 20
610.307167
 30
0.0
 10
159.469121
 20
610.344017
 30
0.0
  0
LWPOLYLINE
  5
154
100
AcDbEntity
  8
Layer_1
 62
7
100
AcDbPolyline
 90
2
 70
0
 10
153.079121
 20
610.224849
 30
0.0
 10
153.079121
 20
610.223885
 30
0.0
  0
SPLINE
  5
155
100
AcDbEntity
  8
Layer_1
 62
7
100
AcDbSpline
 70
8
 71
3
 72
8
 73
4
 74
0
 40
0
 40
0
 40
0
 40
0
 40
1
 40
1
 40
1
 40
1
 10
205.259729
 20
624.212909
 30
0.0
 10
203.444955
 20
627.126211
 30
0.0
 10
201.145513
 20
630.143728
 30
0.0
 10
198.779009
 20
632.717436
 30
0.0
  0
SPLINE
  5
156
100
AcDbEntity
  8
Layer_1
 62
7
100
AcDbSpline
 70
8
 71
3
 72
8
 73
4
 74
0
 40
0
 40
0
 40
0
 40
0
 40
1
 40
1
 40
1
 40
1
 10
198.779009
 20
632.717436
 30
0.0
 10
197.940492
 20
633.629367
 30
0.0
 10
195.189372
 20
636.436831
 30
0.0
 10
194.417008
 20
637.168768
 30
0.0
  0
SPLINE
  5
157
100
AcDbEntity
  8
Layer_1
 62
7
100
AcDbSpline
 70
8
 71
3
 72
8
 73
4
 74
0
 40
0
 40
0
 40
0
 40
0
 40
1
 40
1
 40
1
 40
1
 10
194.417008
 20
637.168768
 30
0.0
 10
188.547077
 20
642.731460
 30
0.0
 10
181.800553
 20
646.844448
 30
0.0
 10
174.211121
 20
649.487194
 30
0.0
  0
SPLINE
  5
158
100
AcDbEntity
  8
Layer_1
 62
7
100
AcDbSpline
 70
8
 71
3
 72
8
 73
4
 74
0
 40
0
 40
0
 40
0
 40
0
 40
1
 40
1
 40
1
 40
1
 10
174.211121
 20
649.487194
 30
0.0
 10
169.319721
 20
651.190448
 30
0.0
 10
164.284821
 20
652.181029
 30
0.0
 10
158.893121
 20
652.500910
 30
0.0
  0
SPLINE
  5
159
100
AcDbEntity
  8
Layer_1
 62
7
100
AcDbSpline
 70
8
 71
3
 72
8
 73
4
 74
0
 40
0
 40
0
 40
0
 40
0
 40
1
 40
1
 40
1
 40
1
 10
158.893121
 20
652.500910
 30
0.0
 10
157.214908
 20
652.600491
 30
0.0
 10
154.101399
 20
652.582151
 30
0.0
 10
152.323121
 20
652.462274
 30
0.0
  0
SPLINE
  5
15a
100
AcDbEntity
  8
Layer_1
 62
7
100
AcDbSpline
 70
8
 71
3
 72
8
 73
4
 74
0
 40
0
 40
0
 40
0
 40
0
 40
1
 40
1
 40
1
 40
1
 10
152.323121
 20
652.462274
 30
0.0
 10
140.939447
 20
651.694745
 30
0.0
 10
130.326534
 20
647.633724
 30
0.0
 10
121.381123
 20
640.622339
 30
0.0
  0
SPLINE
  5
15b
100
AcDbEntity
  8
Layer_1
 62
7
100
AcDbSpline
 70
8
 71
3
 72
8
 73
4
 74
0
 40
0
 40
0
 40
0
 40
0
 40
1
 40
1
 40
1
 40
1
 10
121.381123
 20
640.622339
 30
0.0
 10
119.162832
 20
638.883649
 30
0.0
 10
117.445623
 20
637.302407
 30
0.0
 10
114.732224
 20
634.499875
 30
0.0
  0
SPLINE
  5
15c
100
AcDbEntity
  8
Layer_1
 62
7
100
AcDbSpline
 70
8
 71
3
 72
8
 73
4
 74
0
 40
0
 40
0
 40
0
 40
0
 40
1
 40
1
 40
1
 40
1
 10
114.732224
 20
634.499875
 30
0.0
 10
112.333496
 20
632.022350
 30
0.0
 10
111.001689
 20
630.485218
 30
0.0
 10
109.351783
 20
628.289918
 30
0.0
  0
SPLINE
  5
15d
100
AcDbEntity
  8
Layer_1
 62
7
100
AcDbSpline
 70
8
 71
3
 72
8
 73
4
 74
0
 40
0
 40
0
 40
0
 40
0
 40
1
 40
1
 40
1
 40
1
 10
109.351783
 20
628.289918
 30
0.0
 10
108.426217
 20
627.058392
 30
0.0
 10
107.136632
 20
625.177137
 30
0.0
 10
106.495123
 20
624.122600
 30
0.0
  0
SPLINE
  5
15e
100
AcDbEntity
  8
Layer_1
 62
7
100
AcDbSpline
 70
8
 71
3
 72
8
 73
4
 74
0
 40
0
 40
0
 40
0
 40
0
 40
1
 40
1
 40
1
 40
1
 10
106.495123
 20
624.122600
 30
0.0
 10
106.321020
 20
623.836420
 30
0.0
 10
106.242160
 20
623.737681
 30
0.0
 10
106.187066
 20
623.736927
 30
0.0
  0
SPLINE
  5
15f
100
AcDbEntity
  8
Layer_1
 62
7
100
AcDbSpline
 70
8
 71
3
 72
8
 73
4
 74
0
 40
0
 40
0
 40
0
 40
0
 40
1
 40
1
 40
1
 40
1
 10
106.187066
 20
623.736927
 30
0.0
 10
106.112004
 20
623.735884
 30
0.0
 10
104.801919
 20
624.509974
 30
0.0
 10
103.651123
 20
625.235318
 30
0.0
  0
SPLINE
  5
160
100
AcDbEntity
  8
Layer_1
 62
7
100
AcDbSpline
 70
8
 71
3
 72
8
 73
4
 74
0
 40
0
 40
0
 40
0
 40
0
 40
1
 40
1
 40
1
 40
1
 10
103.651123
 20
625.235318
 30
0.0
 10
98.475721
 20
628.497354
 30
0.0
 10
93.769838
 20
632.098327
 30
0.0
 10
89.287123
 20
636.226727
 30
0.0
  0
SPLINE
  5
161
100
AcDbEntity
  8
Layer_1
 62
7
100
AcDbSpline
 70
8
 71
3
 72
8
 73
4
 74
0
 40
0
 40
0
 40
0
 40
0
 40
1
 40
1
 40
1
 40
1
 10
89.287123
 20
636.226727
 30
0.0
 10
88.478991
 20
636.970986
 30
0.0
 10
86.215156
 20
639.162023
 30
0.0
 10
86.028214
 20
639.380843
 30
0.0
  0
LWPOLYLINE
  5
162
100
AcDbEntity
  8
Layer_1
 62
7
100
AcDbPolyline
 90
1
 70
1
 10
159.469121
 20
610.344017
 30
0.0
  0
SPLINE
  5
163
100
AcDbEntity
  8
Layer_1
 62
7
100
AcDbSpline
 70
8
 71
3
 72
8
 73
4
 74
0
 40
0
 40
0
 40
0
 40
0
 40
1
 40
1
 40
1
 40
1
 10
76.578789
 20
694.246649
 30
0.0
 10
71.469281
 20
724.320266
 30
0.0
 10
67.238070
 20
749.225631
 30
0.0
 10
67.176108
 20
749.591929
 30
0.0
  0
LWPOLYLINE
  5
164
100
AcDbEntity
  8
Layer_1
 62
7
100
AcDbPolyline
 90
3
 70
0
 10
86.028214
 20
639.380843
 30
0.0
 10
85.868821
 20
639.567391
 30
0.0
 10
76.578789
 20
694.246649
 30
0.0
  0
SPLINE
  5
165
100
AcDbEntity
  8
Layer_1
 62
7
100
AcDbSpline
 70
8
 71
3
 72
8
 73
4
 74
0
 40
0
 40
0
 40
0
 40
0
 40
1
 40
1
 40
1
 40
1
 10
67.558762
 20
751.283929
 30
0.0
 10
68.306292
 20
752.832408
 30
0.0
 10
69.978064
 20
756.029089
 30
0.0
 10
70.116185
 20
756.174112
 30
0.0
  0
SPLINE
  5
166
100
AcDbEntity
  8
Layer_1
 62
7
100
AcDbSpline
 70
8
 71
3
 72
8
 73
4
 74
0
 40
0
 40
0
 40
0
 40
0
 40
1
 40
1
 40
1
 40
1
 10
70.116185
 20
756.174112
 30
0.0
 10
70.154396
 20
756.214251
 30
0.0
 10
70.183083
 20
756.211246
 30
0.0
 10
70.287880
 20
756.156254
 30
0.0
  0
SPLINE
  5
167
100
AcDbEntity
  8
Layer_1
 62
7
100
AcDbSpline
 70
8
 71
3
 72
8
 73
4
 74
0
 40
0
 40
0
 40
0
 40
0
 40
1
 40
1
 40
1
 40
1
 10
70.287880
 20
756.156254
 30
0.0
 10
70.836540
 20
755.867591
 30
0.0
 10
240.198945
 20
658.053612
 30
0.0
 10
240.199030
 20
658.025354
 30
0.0
  0
SPLINE
  5
168
100
AcDbEntity
  8
Layer_1
 62
7
100
AcDbSpline
 70
8
 71
3
 72
8
 73
4
 74
0
 40
0
 40
0
 40
0
 40
0
 40
1
 40
1
 40
1
 40
1
 10
240.199030
 20
658.025354
 30
0.0
 10
240.199030
 20
658.005228
 30
0.0
 10
239.989833
 20
657.645420
 30
0.0
 10
239.733808
 20
657.225938
 30
0.0
  0
SPLINE
  5
169
100
AcDbEntity
  8
Layer_1
 62
7
100
AcDbSpline
 70
8
 71
3
 72
8
 73
4
 74
0
 40
0
 40
0
 40
0
 40
0
 40
1
 40
1
 40
1
 40
1
 10
239.733808
 20
657.225938
 30
0.0
 10
231.501543
 20
643.733340
 30
0.0
 10
220.097622
 20
632.399749
 30
0.0
 10
206.549512
 20
624.246299
 30
0.0
  0
SPLINE
  5
16a
100
AcDbEntity
  8
Layer_1
 62
7
100
AcDbSpline
 70
8
 71
3
 72
8
 73
4
 74
0
 40
0
 40
0
 40
0
 40
0
 40
1
 40
1
 40
1
 40
1
 10
206.549512
 20
624.246299
 30
0.0
 10
206.050320
 20
623.945880
 30
0.0
 10
205.627808
 20
623.700079
 30
0.0
 10
205.610601
 20
623.700079
 30
0.0
  0
SPLINE
  5
16b
100
AcDbEntity
  8
Layer_1
 62
7
100
AcDbSpline
 70
8
 71
3
 72
8
 73
4
 74
0
 40
0
 40
0
 40
0
 40
0
 40
1
 40
1
 40
1
 40
1
 10
205.610601
 20
623.700079
 30
0.0
 10
205.593310
 20
623.700079
 30
0.0
 10
205.435505
 20
623.930933
 30
0.0
 10
205.259749
 20
624.213079
 30
0.0
  0
LWPOLYLINE
  5
16c
100
AcDbEntity
  8
Layer_1
 62
7
100
AcDbPolyline
 90
3
 70
0
 10
67.176108
 20
749.591929
 30
0.0
 10
67.063459
 20
750.257929
 30
0.0
 10
67.558762
 20
751.283929
 30
0.0
  0
SPLINE
  5
16d
100
AcDbEntity
  8
Layer_1
 62
7
100
AcDbSpline
 70
8
 71
3
 72
8
 73
4
 74
0
 40
0
 40
0
 40
0
 40
0
 40
1
 40
1
 40
1
 40
1
 10
106.549160
 20
624.410909
 30
0.0
 10
108.345220
 20
627.274301
 30
0.0
 10
110.560124
 20
630.175260
 30
0.0
 10
112.921356
 20
632.756857
 30
0.0
  0
SPLINE
  5
16e
100
AcDbEntity
  8
Layer_1
 62
7
100
AcDbSpline
 70
8
 71
3
 72
8
 73
4
 74
0
 40
0
 40
0
 40
0
 40
0
 40
1
 40
1
 40
1
 40
1
 10
112.921356
 20
632.756857
 30
0.0
 10
113.756956
 20
633.670438
 30
0.0
 10
116.580815
 20
636.549718
 30
0.0
 10
117.367123
 20
637.289878
 30
0.0
  0
SPLINE
  5
16f
100
AcDbEntity
  8
Layer_1
 62
7
100
AcDbSpline
 70
8
 71
3
 72
8
 73
4
 74
0
 40
0
 40
0
 40
0
 40
0
 40
1
 40
1
 40
1
 40
1
 10
117.367123
 20
637.289878
 30
0.0
 10
120.647265
 20
640.377502
 30
0.0
 10
123.856260
 20
642.790120
 30
0.0
 10
127.627123
 20
645.003666
 30
0.0
  0
SPLINE
  5
170
100
AcDbEntity
  8
Layer_1
 62
7
100
AcDbSpline
 70
8
 71
3
 72
8
 73
4
 74
0
 40
0
 40
0
 40
0
 40
0
 40
1
 40
1
 40
1
 40
1
 10
127.627123
 20
645.003666
 30
0.0
 10
129.769248
 20
646.261126
 30
0.0
 10
132.292604
 20
647.509354
 30
0.0
 10
134.669001
 20
648.487074
 30
0.0
  0
SPLINE
  5
171
100
AcDbEntity
  8
Layer_1
 62
7
100
AcDbSpline
 70
8
 71
3
 72
8
 73
4
 74
0
 40
0
 40
0
 40
0
 40
0
 40
1
 40
1
 40
1
 40
1
 10
134.669001
 20
648.487074
 30
0.0
 10
143.807014
 20
652.246727
 30
0.0
 10
153.920225
 20
653.509760
 30
0.0
 10
163.753121
 20
652.119384
 30
0.0
  0
SPLINE
  5
172
100
AcDbEntity
  8
Layer_1
 62
7
100
AcDbSpline
 70
8
 71
3
 72
8
 73
4
 74
0
 40
0
 40
0
 40
0
 40
0
 40
1
 40
1
 40
1
 40
1
 10
163.753121
 20
652.119384
 30
0.0
 10
174.317536
 20
650.625562
 30
0.0
 10
184.296875
 20
646.108172
 30
0.0
 10
192.373118
 20
639.163837
 30
0.0
  0
SPLINE
  5
173
100
AcDbEntity
  8
Layer_1
 62
7
100
AcDbSpline
 70
8
 71
3
 72
8
 73
4
 74
0
 40
0
 40
0
 40
0
 40
0
 40
1
 40
1
 40
1
 40
1
 10
192.373118
 20
639.163837
 30
0.0
 10
193.832011
 20
637.909410
 30
0.0
 10
194.962031
 20
636.828418
 30
0.0
 10
196.895449
 20
634.837706
 30
0.0
  0
SPLINE
  5
174
100
AcDbEntity
  8
Layer_1
 62
7
100
AcDbSpline
 70
8
 71
3
 72
8
 73
4
 74
0
 40
0
 40
0
 40
0
 40
0
 40
1
 40
1
 40
1
 40
1
 10
196.895449
 20
634.837706
 30
0.0
 10
199.138258
 20
632.528433
 30
0.0
 10
200.043400
 20
631.520597
 30
0.0
 10
201.450464
 20
629.765909
 30
0.0
  0
SPLINE
  5
175
100
AcDbEntity
  8
Layer_1
 62
7
100
AcDbSpline
 70
8
 71
3
 72
8
 73
4
 74
0
 40
0
 40
0
 40
0
 40
0
 40
1
 40
1
 40
1
 40
1
 10
201.450464
 20
629.765909
 30
0.0
 10
202.735879
 20
628.162914
 30
0.0
 10
204.294438
 20
625.969542
 30
0.0
 10
205.293966
 20
624.356909
 30
0.0
  0
SPLINE
  5
176
100
AcDbEntity
  8
Layer_1
 62
7
100
AcDbSpline
 70
8
 71
3
 72
8
 73
4
 74
0
 40
0
 40
0
 40
0
 40
0
 40
1
 40
1
 40
1
 40
1
 10
205.293966
 20
624.356909
 30
0.0
 10
205.468835
 20
624.074749
 30
0.0
 10
205.625276
 20
623.843909
 30
0.0
 10
205.641595
 20
623.843909
 30
0.0
  0
SPLINE
  5
177
100
AcDbEntity
  8
Layer_1
 62
7
100
AcDbSpline
 70
8
 71
3
 72
8
 73
4
 74
0
 40
0
 40
0
 40
0
 40
0
 40
1
 40
1
 40
1
 40
1
 10
205.641595
 20
623.843909
 30
0.0
 10
205.682698
 20
623.843909
 30
0.0
 10
205.971681
 20
624.014357
 30
0.0
 10
207.097118
 20
624.702416
 30
0.0
  0
SPLINE
  5
178
100
AcDbEntity
  8
Layer_1
 62
7
100
AcDbSpline
 70
8
 71
3
 72
8
 73
4
 74
0
 40
0
 40
0
 40
0
 40
0
 40
1
 40
1
 40
1
 40
1
 10
207.097118
 20
624.702416
 30
0.0
 10
212.023049
 20
627.713972
 30
0.0
 10
216.701887
 20
631.178685
 30
0.0
 10
221.029115
 20
635.019174
 30
0.0
  0
SPLINE
  5
179
100
AcDbEntity
  8
Layer_1
 62
7
100
AcDbSpline
 70
8
 71
3
 72
8
 73
4
 74
0
 40
0
 40
0
 40
0
 40
0
 40
1
 40
1
 40
1
 40
1
 10
221.029115
 20
635.019174
 30
0.0
 10
223.478561
 20
637.193098
 30
0.0
 10
226.290756
 20
639.971881
 30
0.0
 10
228.483609
 20
642.385054
 30
0.0
  0
SPLINE
  5
17a
100
AcDbEntity
  8
Layer_1
 62
7
100
AcDbSpline
 70
8
 71
3
 72
8
 73
4
 74
0
 40
0
 40
0
 40
0
 40
0
 40
1
 40
1
 40
1
 40
1
 10
228.483609
 20
642.385054
 30
0.0
 10
232.714205
 20
647.040784
 30
0.0
 10
236.450891
 20
652.037689
 30
0.0
 10
239.741405
 20
657.439583
 30
0.0
  0
LWPOLYLINE
  5
17b
100
AcDbEntity
  8
Layer_1
 62
7
100
AcDbPolyline
 90
2
 70
0
 10
205.259749
 20
624.213079
 30
0.0
 10
205.259729
 20
624.212909
 30
0.0
  0
SPLINE
  5
17c
100
AcDbEntity
  8
Layer_1
 62
7
100
AcDbSpline
 70
8
 71
3
 72
8
 73
4
 74
0
 40
0
 40
0
 40
0
 40
0
 40
1
 40
1
 40
1
 40
1
 10
239.053550
 20
658.600931
 30
0.0
 10
238.485713
 20
658.928580
 30
0.0
 10
200.258918
 20
680.998975
 30
0.0
 10
154.105121
 20
707.646277
 30
0.0
  0
SPLINE
  5
17d
100
AcDbEntity
  8
Layer_1
 62
7
100
AcDbSpline
 70
8
 71
3
 72
8
 73
4
 74
0
 40
0
 40
0
 40
0
 40
0
 40
1
 40
1
 40
1
 40
1
 10
154.105121
 20
707.646277
 30
0.0
 10
81.750311
 20
749.420963
 30
0.0
 10
70.183553
 20
756.088061
 30
0.0
 10
70.148673
 20
756.038920
 30
0.0
  0
SPLINE
  5
17e
100
AcDbEntity
  8
Layer_1
 62
7
100
AcDbSpline
 70
8
 71
3
 72
8
 73
4
 74
0
 40
0
 40
0
 40
0
 40
0
 40
1
 40
1
 40
1
 40
1
 10
70.148673
 20
756.038920
 30
0.0
 10
70.004078
 20
755.835222
 30
0.0
 10
68.800969
 20
753.538419
 30
0.0
 10
68.056169
 20
752.044275
 30
0.0
  0
LWPOLYLINE
  5
17f
100
AcDbEntity
  8
Layer_1
 62
7
100
AcDbPolyline
 90
3
 70
0
 10
239.741405
 20
657.439583
 30
0.0
 10
240.085956
 20
658.005253
 30
0.0
 10
239.053550
 20
658.600931
 30
0.0
  0
SPLINE
  5
180
100
AcDbEntity
  8
Layer_1
 62
7
100
AcDbSpline
 70
8
 71
3
 72
8
 73
4
 74
0
 40
0
 40
0
 40
0
 40
0
 40
1
 40
1
 40
1
 40
1
 10
67.213389
 20
749.974275
 30
0.0
 10
67.237200
 20
749.813494
 30
0.0
 10
71.465204
 20
724.915431
 30
0.0
 10
76.608901
 20
694.645271
 30
0.0
  0
LWPOLYLINE
  5
181
100
AcDbEntity
  8
Layer_1
 62
7
100
AcDbPolyline
 90
3
 70
0
 10
68.056169
 20
752.044275
 30
0.0
 10
67.170047
 20
750.266617
 30
0.0
 10
67.213389
 20
749.974275
 30
0.0
  0
SPLINE
  5
182
100
AcDbEntity
  8
Layer_1
 62
7
100
AcDbSpline
 70
8
 71
3
 72
8
 73
4
 74
0
 40
0
 40
0
 40
0
 40
0
 40
1
 40
1
 40
1
 40
1
 10
86.733105
 20
638.833757
 30
0.0
 10
91.500165
 20
634.049226
 30
0.0
 10
97.310316
 20
629.392453
 30
0.0
 10
103.129129
 20
625.692515
 30
0.0
  0
SPLINE
  5
183
100
AcDbEntity
  8
Layer_1
 62
7
100
AcDbSpline
 70
8
 71
3
 72
8
 73
4
 74
0
 40
0
 40
0
 40
0
 40
0
 40
1
 40
1
 40
1
 40
1
 10
103.129129
 20
625.692515
 30
0.0
 10
104.471847
 20
624.838740
 30
0.0
 10
106.092646
 20
623.849859
 30
0.0
 10
106.155320
 20
623.846180
 30
0.0
  0
SPLINE
  5
184
100
AcDbEntity
  8
Layer_1
 62
7
100
AcDbSpline
 70
8
 71
3
 72
8
 73
4
 74
0
 40
0
 40
0
 40
0
 40
0
 40
1
 40
1
 40
1
 40
1
 10
106.155320
 20
623.846180
 30
0.0
 10
106.176297
 20
623.844955
 30
0.0
 10
106.353547
 20
624.099087
 30
0.0
 10
106.549166
 20
624.410938
 30
0.0
  0
LWPOLYLINE
  5
185
100
AcDbEntity
  8
Layer_1
 62
7
100
AcDbPolyline
 90
3
 70
0
 10
76.608901
 20
694.645271
 30
0.0
 10
85.961081
 20
639.608610
 30
0.0
 10
86.733105
 20
638.833757
 30
0.0
  0
SPLINE
  5
186
100
AcDbEntity
  8
Layer_1
 62
7
100
AcDbSpline
 70
8
 71
3
 72
8
 73
4
 74
0
 40
0
 40
0
 40
0
 40
0
 40
1
 40
1
 40
1
 40
1
 10
83.359602
 20
642.193157
 30
0.0
 10
72.936663
 20
653.630494
 30
0.0
 10
65.428637
 20
667.204515
 30
0.0
 10
61.280946
 20
682.109935
 30
0.0
  0
SPLINE
  5
187
100
AcDbEntity
  8
Layer_1
 62
7
100
AcDbSpline
 70
8
 71
3
 72
8
 73
4
 74
0
 40
0
 40
0
 40
0
 40
0
 40
1
 40
1
 40
1
 40
1
 10
61.280946
 20
682.109935
 30
0.0
 10
59.382621
 20
688.931887
 30
0.0
 10
58.220957
 20
696.045093
 30
0.0
 10
57.841625
 20
703.169932
 30
0.0
  0
SPLINE
  5
188
100
AcDbEntity
  8
Layer_1
 62
7
100
AcDbSpline
 70
8
 71
3
 72
8
 73
4
 74
0
 40
0
 40
0
 40
0
 40
0
 40
1
 40
1
 40
1
 40
1
 10
57.841625
 20
703.169932
 30
0.0
 10
57.666472
 20
706.459473
 30
0.0
 10
57.666472
 20
710.320391
 30
0.0
 10
57.841625
 20
713.609932
 30
0.0
  0
SPLINE
  5
189
100
AcDbEntity
  8
Layer_1
 62
7
100
AcDbSpline
 70
8
 71
3
 72
8
 73
4
 74
0
 40
0
 40
0
 40
0
 40
0
 40
1
 40
1
 40
1
 40
1
 10
57.841625
 20
713.609932
 30
0.0
 10
58.443803
 20
724.920375
 30
0.0
 10
61.004010
 20
736.079734
 30
0.0
 10
65.380088
 20
746.468391
 30
0.0
  0
SPLINE
  5
18a
100
AcDbEntity
  8
Layer_1
 62
7
100
AcDbSpline
 70
8
 71
3
 72
8
 73
4
 74
0
 40
0
 40
0
 40
0
 40
0
 40
1
 40
1
 40
1
 40
1
 10
65.380088
 20
746.468391
 30
0.0
 10
65.887362
 20
747.672636
 30
0.0
 10
65.951014
 20
747.809181
 30
0.0
 10
66.010878
 20
747.821568
 30
0.0
  0
SPLINE
  5
18b
100
AcDbEntity
  8
Layer_1
 62
7
100
AcDbSpline
 70
8
 71
3
 72
8
 73
4
 74
0
 40
0
 40
0
 40
0
 40
0
 40
1
 40
1
 40
1
 40
1
 10
66.010878
 20
747.821568
 30
0.0
 10
66.041804
 20
747.828088
 30
0.0
 10
66.067118
 20
747.823584
 30
0.0
 10
66.067118
 20
747.811930
 30
0.0
  0
SPLINE
  5
18c
100
AcDbEntity
  8
Layer_1
 62
7
100
AcDbSpline
 70
8
 71
3
 72
8
 73
4
 74
0
 40
0
 40
0
 40
0
 40
0
 40
1
 40
1
 40
1
 40
1
 10
66.067118
 20
747.811930
 30
0.0
 10
66.067118
 20
747.800308
 30
0.0
 10
70.109836
 20
723.997137
 30
0.0
 10
75.050935
 20
694.916294
 30
0.0
  0
SPLINE
  5
18d
100
AcDbEntity
  8
Layer_1
 62
7
100
AcDbSpline
 70
8
 71
3
 72
8
 73
4
 74
0
 40
0
 40
0
 40
0
 40
0
 40
1
 40
1
 40
1
 40
1
 10
75.050935
 20
694.916294
 30
0.0
 10
79.992034
 20
665.835452
 30
0.0
 10
84.053083
 20
641.924294
 30
0.0
 10
84.075489
 20
641.780391
 30
0.0
  0
SPLINE
  5
18e
100
AcDbEntity
  8
Layer_1
 62
7
100
AcDbSpline
 70
8
 71
3
 72
8
 73
4
 74
0
 40
0
 40
0
 40
0
 40
0
 40
1
 40
1
 40
1
 40
1
 10
84.075489
 20
641.780391
 30
0.0
 10
84.103551
 20
641.600646
 30
0.0
 10
84.104600
 20
641.507131
 30
0.0
 10
84.079174
 20
641.481613
 30
0.0
  0
SPLINE
  5
18f
100
AcDbEntity
  8
Layer_1
 62
7
100
AcDbSpline
 70
8
 71
3
 72
8
 73
4
 74
0
 40
0
 40
0
 40
0
 40
0
 40
1
 40
1
 40
1
 40
1
 10
84.079174
 20
641.481613
 30
0.0
 10
84.053662
 20
641.456101
 30
0.0
 10
83.828449
 20
641.678848
 30
0.0
 10
83.359672
 20
642.193257
 30
0.0
  0
LWPOLYLINE
  5
190
100
AcDbEntity
  8
Layer_1
 62
7
100
AcDbPolyline
 90
1
 70
1
 10
106.549166
 20
624.410938
 30
0.0
  0
SPLINE
  5
191
100
AcDbEntity
  8
Layer_1
 62
7
100
AcDbSpline
 70
8
 71
3
 72
8
 73
4
 74
0
 40
0
 40
0
 40
0
 40
0
 40
1
 40
1
 40
1
 40
1
 10
74.999560
 20
694.633720
 30
0.0
 10
70.051878
 20
723.753780
 30
0.0
 10
65.997346
 20
747.585711
 30
0.0
 10
65.989488
 20
747.593566
 30
0.0
  0
SPLINE
  5
192
100
AcDbEntity
  8
Layer_1
 62
7
100
AcDbSpline
 70
8
 71
3
 72
8
 73
4
 74
0
 40
0
 40
0
 40
0
 40
0
 40
1
 40
1
 40
1
 40
1
 10
65.989488
 20
747.593566
 30
0.0
 10
65.981551
 20
747.601503
 30
0.0
 10
65.839337
 20
747.288819
 30
0.0
 10
65.673261
 20
746.898888
 30
0.0
  0
SPLINE
  5
193
100
AcDbEntity
  8
Layer_1
 62
7
100
AcDbSpline
 70
8
 71
3
 72
8
 73
4
 74
0
 40
0
 40
0
 40
0
 40
0
 40
1
 40
1
 40
1
 40
1
 10
65.673261
 20
746.898888
 30
0.0
 10
63.011194
 20
740.648432
 30
0.0
 10
61.024884
 20
734.233431
 30
0.0
 10
59.697388
 20
727.599163
 30
0.0
  0
SPLINE
  5
194
100
AcDbEntity
  8
Layer_1
 62
7
100
AcDbSpline
 70
8
 71
3
 72
8
 73
4
 74
0
 40
0
 40
0
 40
0
 40
0
 40
1
 40
1
 40
1
 40
1
 10
59.697388
 20
727.599163
 30
0.0
 10
58.034900
 20
719.290738
 30
0.0
 10
57.458934
 20
710.769453
 30
0.0
 10
57.986563
 20
702.287932
 30
0.0
  0
SPLINE
  5
195
100
AcDbEntity
  8
Layer_1
 62
7
100
AcDbSpline
 70
8
 71
3
 72
8
 73
4
 74
0
 40
0
 40
0
 40
0
 40
0
 40
1
 40
1
 40
1
 40
1
 10
57.986563
 20
702.287932
 30
0.0
 10
58.723676
 20
690.439090
 30
0.0
 10
61.635557
 20
678.733676
 30
0.0
 10
66.534582
 20
667.925935
 30
0.0
  0
SPLINE
  5
196
100
AcDbEntity
  8
Layer_1
 62
7
100
AcDbSpline
 70
8
 71
3
 72
8
 73
4
 74
0
 40
0
 40
0
 40
0
 40
0
 40
1
 40
1
 40
1
 40
1
 10
66.534582
 20
667.925935
 30
0.0
 10
70.821507
 20
658.468548
 30
0.0
 10
76.552685
 20
649.784441
 30
0.0
 10
83.563123
 20
642.123604
 30
0.0
  0
SPLINE
  5
197
100
AcDbEntity
  8
Layer_1
 62
7
100
AcDbSpline
 70
8
 71
3
 72
8
 73
4
 74
0
 40
0
 40
0
 40
0
 40
0
 40
1
 40
1
 40
1
 40
1
 10
83.563123
 20
642.123604
 30
0.0
 10
83.790831
 20
641.874779
 30
0.0
 10
83.981225
 20
641.675013
 30
0.0
 10
83.986237
 20
641.679678
 30
0.0
  0
SPLINE
  5
198
100
AcDbEntity
  8
Layer_1
 62
7
100
AcDbSpline
 70
8
 71
3
 72
8
 73
4
 74
0
 40
0
 40
0
 40
0
 40
0
 40
1
 40
1
 40
1
 40
1
 10
83.986237
 20
641.679678
 30
0.0
 10
83.991339
 20
641.684214
 30
0.0
 10
79.947244
 20
665.513660
 30
0.0
 10
74.999560
 20
694.633720
 30
0.0
  0
LWPOLYLINE
  5
199
100
AcDbEntity
  8
Layer_1
 62
7
100
AcDbPolyline
 90
1
 70
1
 10
83.359672
 20
642.193257
 30
0.0
  0
SPLINE
  5
19a
100
AcDbEntity
  8
Layer_1
 62
7
100
AcDbSpline
 70
8
 71
3
 72
8
 73
4
 74
0
 40
0
 40
0
 40
0
 40
0
 40
1
 40
1
 40
1
 40
1
 10
156.616659
 20
709.641343
 30
0.0
 10
109.864213
 20
736.633463
 30
0.0
 10
71.611963
 20
758.735087
 30
0.0
 10
71.611665
 20
758.756058
 30
0.0
  0
SPLINE
  5
19b
100
AcDbEntity
  8
Layer_1
 62
7
100
AcDbSpline
 70
8
 71
3
 72
8
 73
4
 74
0
 40
0
 40
0
 40
0
 40
0
 40
1
 40
1
 40
1
 40
1
 10
71.611665
 20
758.756058
 30
0.0
 10
71.610693
 20
758.824543
 30
0.0
 10
72.759067
 20
760.680170
 30
0.0
 10
73.637722
 20
762.029929
 30
0.0
  0
SPLINE
  5
19c
100
AcDbEntity
  8
Layer_1
 62
7
100
AcDbSpline
 70
8
 71
3
 72
8
 73
4
 74
0
 40
0
 40
0
 40
0
 40
0
 40
1
 40
1
 40
1
 40
1
 10
73.637722
 20
762.029929
 30
0.0
 10
81.683306
 20
774.389282
 30
0.0
 10
92.568056
 20
784.896211
 30
0.0
 10
105.196487
 20
792.493260
 30
0.0
  0
SPLINE
  5
19d
100
AcDbEntity
  8
Layer_1
 62
7
100
AcDbSpline
 70
8
 71
3
 72
8
 73
4
 74
0
 40
0
 40
0
 40
0
 40
0
 40
1
 40
1
 40
1
 40
1
 10
105.196487
 20
792.493260
 30
0.0
 10
105.699940
 20
792.796127
 30
0.0
 10
106.140487
 20
793.043926
 30
0.0
 10
106.175486
 20
793.043926
 30
0.0
  0
SPLINE
  5
19e
100
AcDbEntity
  8
Layer_1
 62
7
100
AcDbSpline
 70
8
 71
3
 72
8
 73
4
 74
0
 40
0
 40
0
 40
0
 40
0
 40
1
 40
1
 40
1
 40
1
 10
106.175486
 20
793.043926
 30
0.0
 10
106.219650
 20
793.043926
 30
0.0
 10
106.351517
 20
792.854033
 30
0.0
 10
106.606740
 20
792.422926
 30
0.0
  0
SPLINE
  5
19f
100
AcDbEntity
  8
Layer_1
 62
7
100
AcDbSpline
 70
8
 71
3
 72
8
 73
4
 74
0
 40
0
 40
0
 40
0
 40
0
 40
1
 40
1
 40
1
 40
1
 10
106.606740
 20
792.422926
 30
0.0
 10
108.432442
 20
789.338911
 30
0.0
 10
110.911941
 20
785.477217
 30
0.0
 10
113.015296
 20
782.441929
 30
0.0
  0
SPLINE
  5
1a0
100
AcDbEntity
  8
Layer_1
 62
7
100
AcDbSpline
 70
8
 71
3
 72
8
 73
4
 74
0
 40
0
 40
0
 40
0
 40
0
 40
1
 40
1
 40
1
 40
1
 10
113.015296
 20
782.441929
 30
0.0
 10
113.358314
 20
781.946929
 30
0.0
 10
114.069552
 20
780.885828
 30
0.0
 10
114.595824
 20
780.083929
 30
0.0
  0
SPLINE
  5
1a1
100
AcDbEntity
  8
Layer_1
 62
7
100
AcDbSpline
 70
8
 71
3
 72
8
 73
4
 74
0
 40
0
 40
0
 40
0
 40
0
 40
1
 40
1
 40
1
 40
1
 10
114.595824
 20
780.083929
 30
0.0
 10
116.593367
 20
777.040203
 30
0.0
 10
118.283397
 20
774.621573
 30
0.0
 10
120.331205
 20
771.875929
 30
0.0
  0
SPLINE
  5
1a2
100
AcDbEntity
  8
Layer_1
 62
7
100
AcDbSpline
 70
8
 71
3
 72
8
 73
4
 74
0
 40
0
 40
0
 40
0
 40
0
 40
1
 40
1
 40
1
 40
1
 10
120.331205
 20
771.875929
 30
0.0
 10
131.589799
 20
756.780701
 30
0.0
 10
145.527548
 20
743.759708
 30
0.0
 10
161.377121
 20
733.529795
 30
0.0
  0
SPLINE
  5
1a3
100
AcDbEntity
  8
Layer_1
 62
7
100
AcDbSpline
 70
8
 71
3
 72
8
 73
4
 74
0
 40
0
 40
0
 40
0
 40
0
 40
1
 40
1
 40
1
 40
1
 10
161.377121
 20
733.529795
 30
0.0
 10
176.602289
 20
723.702903
 30
0.0
 10
193.510638
 20
716.520631
 30
0.0
 10
211.111115
 20
712.403972
 30
0.0
  0
SPLINE
  5
1a4
100
AcDbEntity
  8
Layer_1
 62
7
100
AcDbSpline
 70
8
 71
3
 72
8
 73
4
 74
0
 40
0
 40
0
 40
0
 40
0
 40
1
 40
1
 40
1
 40
1
 10
211.111115
 20
712.403972
 30
0.0
 10
220.309852
 20
710.252436
 30
0.0
 10
229.244854
 20
708.978577
 30
0.0
 10
238.885115
 20
708.444264
 30
0.0
  0
SPLINE
  5
1a5
100
AcDbEntity
  8
Layer_1
 62
7
100
AcDbSpline
 70
8
 71
3
 72
8
 73
4
 74
0
 40
0
 40
0
 40
0
 40
0
 40
1
 40
1
 40
1
 40
1
 10
238.885115
 20
708.444264
 30
0.0
 10
239.617729
 20
708.403671
 30
0.0
 10
240.508715
 20
708.346610
 30
0.0
 10
240.865115
 20
708.317498
 30
0.0
  0
SPLINE
  5
1a6
100
AcDbEntity
  8
Layer_1
 62
7
100
AcDbSpline
 70
8
 71
3
 72
8
 73
4
 74
0
 40
0
 40
0
 40
0
 40
0
 40
1
 40
1
 40
1
 40
1
 10
240.865115
 20
708.317498
 30
0.0
 10
242.370652
 20
708.194531
 30
0.0
 10
242.901751
 20
708.154279
 30
0.0
 10
243.925115
 20
708.085596
 30
0.0
  0
SPLINE
  5
1a7
100
AcDbEntity
  8
Layer_1
 62
7
100
AcDbSpline
 70
8
 71
3
 72
8
 73
4
 74
0
 40
0
 40
0
 40
0
 40
0
 40
1
 40
1
 40
1
 40
1
 10
243.925115
 20
708.085596
 30
0.0
 10
246.405855
 20
707.919117
 30
0.0
 10
248.667477
 20
707.815057
 30
0.0
 10
251.017115
 20
707.759218
 30
0.0
  0
SPLINE
  5
1a8
100
AcDbEntity
  8
Layer_1
 62
7
100
AcDbSpline
 70
8
 71
3
 72
8
 73
4
 74
0
 40
0
 40
0
 40
0
 40
0
 40
1
 40
1
 40
1
 40
1
 10
251.017115
 20
707.759218
 30
0.0
 10
251.908129
 20
707.737958
 30
0.0
 10
252.965169
 20
707.711567
 30
0.0
 10
253.366129
 20
707.700370
 30
0.0
  0
LWPOLYLINE
  5
1a9
100
AcDbEntity
  8
Layer_1
 62
7
100
AcDbPolyline
 90
1
 70
1
 10
74.999560
 20
694.633720
 30
0.0
  0
SPLINE
  5
1aa
100
AcDbEntity
  8
Layer_1
 62
7
100
AcDbSpline
 70
8
 71
3
 72
8
 73
4
 74
0
 40
0
 40
0
 40
0
 40
0
 40
1
 40
1
 40
1
 40
1
 10
254.095115
 20
706.972921
 30
0.0
 10
254.094718
 20
705.142029
 30
0.0
 10
253.920784
 20
701.828787
 30
0.0
 10
253.697868
 20
699.407881
 30
0.0
  0
SPLINE
  5
1ab
100
AcDbEntity
  8
Layer_1
 62
7
100
AcDbSpline
 70
8
 71
3
 72
8
 73
4
 74
0
 40
0
 40
0
 40
0
 40
0
 40
1
 40
1
 40
1
 40
1
 10
253.697868
 20
699.407881
 30
0.0
 10
252.473783
 20
686.112517
 30
0.0
 10
248.546721
 20
673.172785
 30
0.0
 10
242.187732
 20
661.481884
 30
0.0
  0
SPLINE
  5
1ac
100
AcDbEntity
  8
Layer_1
 62
7
100
AcDbSpline
 70
8
 71
3
 72
8
 73
4
 74
0
 40
0
 40
0
 40
0
 40
0
 40
1
 40
1
 40
1
 40
1
 10
242.187732
 20
661.481884
 30
0.0
 10
241.731581
 20
660.643220
 30
0.0
 10
241.684356
 20
660.563555
 30
0.0
 10
241.643849
 20
660.564295
 30
0.0
  0
SPLINE
  5
1ad
100
AcDbEntity
  8
Layer_1
 62
7
100
AcDbSpline
 70
8
 71
3
 72
8
 73
4
 74
0
 40
0
 40
0
 40
0
 40
0
 40
1
 40
1
 40
1
 40
1
 10
241.643849
 20
660.564295
 30
0.0
 10
241.632510
 20
660.564655
 30
0.0
 10
203.369261
 20
682.649169
 30
0.0
 10
156.616809
 20
709.641292
 30
0.0
  0
LWPOLYLINE
  5
1ae
100
AcDbEntity
  8
Layer_1
 62
7
100
AcDbPolyline
 90
3
 70
0
 10
253.366129
 20
707.700370
 30
0.0
 10
254.095115
 20
707.679961
 30
0.0
 10
254.095115
 20
706.972921
 30
0.0
  0
SPLINE
  5
1af
100
AcDbEntity
  8
Layer_1
 62
7
100
AcDbSpline
 70
8
 71
3
 72
8
 73
4
 74
0
 40
0
 40
0
 40
0
 40
0
 40
1
 40
1
 40
1
 40
1
 10
242.311861
 20
661.931935
 30
0.0
 10
243.702964
 20
664.507726
 30
0.0
 10
245.264797
 20
667.786147
 30
0.0
 10
246.428674
 20
670.573392
 30
0.0
  0
SPLINE
  5
1b0
100
AcDbEntity
  8
Layer_1
 62
7
100
AcDbSpline
 70
8
 71
3
 72
8
 73
4
 74
0
 40
0
 40
0
 40
0
 40
0
 40
1
 40
1
 40
1
 40
1
 10
246.428674
 20
670.573392
 30
0.0
 10
250.450101
 20
680.203885
 30
0.0
 10
252.914995
 20
690.425252
 30
0.0
 10
253.716435
 20
700.793932
 30
0.0
  0
SPLINE
  5
1b1
100
AcDbEntity
  8
Layer_1
 62
7
100
AcDbSpline
 70
8
 71
3
 72
8
 73
4
 74
0
 40
0
 40
0
 40
0
 40
0
 40
1
 40
1
 40
1
 40
1
 10
253.716435
 20
700.793932
 30
0.0
 10
253.864687
 20
702.710087
 30
0.0
 10
253.939238
 20
704.261971
 30
0.0
 10
254.005342
 20
706.791070
 30
0.0
  0
LWPOLYLINE
  5
1b2
100
AcDbEntity
  8
Layer_1
 62
7
100
AcDbPolyline
 90
2
 70
0
 10
156.616809
 20
709.641292
 30
0.0
 10
156.616659
 20
709.641343
 30
0.0
  0
SPLINE
  5
1b3
100
AcDbEntity
  8
Layer_1
 62
7
100
AcDbSpline
 70
8
 71
3
 72
8
 73
4
 74
0
 40
0
 40
0
 40
0
 40
0
 40
1
 40
1
 40
1
 40
1
 10
252.485291
 20
707.628869
 30
0.0
 10
249.873987
 20
707.670539
 30
0.0
 10
247.204602
 20
707.779361
 30
0.0
 10
244.373726
 20
707.959582
 30
0.0
  0
SPLINE
  5
1b4
100
AcDbEntity
  8
Layer_1
 62
7
100
AcDbSpline
 70
8
 71
3
 72
8
 73
4
 74
0
 40
0
 40
0
 40
0
 40
0
 40
1
 40
1
 40
1
 40
1
 10
244.373726
 20
707.959582
 30
0.0
 10
243.344920
 20
708.025090
 30
0.0
 10
240.768085
 20
708.220397
 30
0.0
 10
240.593726
 20
708.246111
 30
0.0
  0
SPLINE
  5
1b5
100
AcDbEntity
  8
Layer_1
 62
7
100
AcDbSpline
 70
8
 71
3
 72
8
 73
4
 74
0
 40
0
 40
0
 40
0
 40
0
 40
1
 40
1
 40
1
 40
1
 10
240.593726
 20
708.246111
 30
0.0
 10
240.524277
 20
708.256315
 30
0.0
 10
239.868340
 20
708.296822
 30
0.0
 10
239.135726
 20
708.336082
 30
0.0
  0
SPLINE
  5
1b6
100
AcDbEntity
  8
Layer_1
 62
7
100
AcDbSpline
 70
8
 71
3
 72
8
 73
4
 74
0
 40
0
 40
0
 40
0
 40
0
 40
1
 40
1
 40
1
 40
1
 10
239.135726
 20
708.336082
 30
0.0
 10
228.582935
 20
708.901790
 30
0.0
 10
218.780901
 20
710.365703
 30
0.0
 10
208.769726
 20
712.871175
 30
0.0
  0
SPLINE
  5
1b7
100
AcDbEntity
  8
Layer_1
 62
7
100
AcDbSpline
 70
8
 71
3
 72
8
 73
4
 74
0
 40
0
 40
0
 40
0
 40
0
 40
1
 40
1
 40
1
 40
1
 10
208.769726
 20
712.871175
 30
0.0
 10
178.694189
 20
720.398392
 30
0.0
 10
151.524675
 20
736.553849
 30
0.0
 10
130.540924
 20
759.388107
 30
0.0
  0
SPLINE
  5
1b8
100
AcDbEntity
  8
Layer_1
 62
7
100
AcDbSpline
 70
8
 71
3
 72
8
 73
4
 74
0
 40
0
 40
0
 40
0
 40
0
 40
1
 40
1
 40
1
 40
1
 10
130.540924
 20
759.388107
 30
0.0
 10
124.541700
 20
765.916387
 30
0.0
 10
119.135460
 20
772.898610
 30
0.0
 10
114.227966
 20
780.456487
 30
0.0
  0
SPLINE
  5
1b9
100
AcDbEntity
  8
Layer_1
 62
7
100
AcDbSpline
 70
8
 71
3
 72
8
 73
4
 74
0
 40
0
 40
0
 40
0
 40
0
 40
1
 40
1
 40
1
 40
1
 10
114.227966
 20
780.456487
 30
0.0
 10
113.934206
 20
780.908893
 30
0.0
 10
113.383142
 20
781.726995
 30
0.0
 10
113.003382
 20
782.274487
 30
0.0
  0
SPLINE
  5
1ba
100
AcDbEntity
  8
Layer_1
 62
7
100
AcDbSpline
 70
8
 71
3
 72
8
 73
4
 74
0
 40
0
 40
0
 40
0
 40
0
 40
1
 40
1
 40
1
 40
1
 10
113.003382
 20
782.274487
 30
0.0
 10
110.933235
 20
785.258955
 30
0.0
 10
108.657921
 20
788.786527
 30
0.0
 10
106.909123
 20
791.722823
 30
0.0
  0
SPLINE
  5
1bb
100
AcDbEntity
  8
Layer_1
 62
7
100
AcDbSpline
 70
8
 71
3
 72
8
 73
4
 74
0
 40
0
 40
0
 40
0
 40
0
 40
1
 40
1
 40
1
 40
1
 10
106.909123
 20
791.722823
 30
0.0
 10
106.513123
 20
792.387720
 30
0.0
 10
106.176660
 20
792.932672
 30
0.0
 10
106.161426
 20
792.933829
 30
0.0
  0
SPLINE
  5
1bc
100
AcDbEntity
  8
Layer_1
 62
7
100
AcDbSpline
 70
8
 71
3
 72
8
 73
4
 74
0
 40
0
 40
0
 40
0
 40
0
 40
1
 40
1
 40
1
 40
1
 10
106.161426
 20
792.933829
 30
0.0
 10
106.074516
 20
792.940348
 30
0.0
 10
103.353715
 20
791.248385
 30
0.0
 10
101.797123
 20
790.219723
 30
0.0
  0
SPLINE
  5
1bd
100
AcDbEntity
  8
Layer_1
 62
7
100
AcDbSpline
 70
8
 71
3
 72
8
 73
4
 74
0
 40
0
 40
0
 40
0
 40
0
 40
1
 40
1
 40
1
 40
1
 10
101.797123
 20
790.219723
 30
0.0
 10
95.119322
 20
785.806744
 30
0.0
 10
89.029352
 20
780.605266
 30
0.0
 10
83.523294
 20
774.611929
 30
0.0
  0
SPLINE
  5
1be
100
AcDbEntity
  8
Layer_1
 62
7
100
AcDbSpline
 70
8
 71
3
 72
8
 73
4
 74
0
 40
0
 40
0
 40
0
 40
0
 40
1
 40
1
 40
1
 40
1
 10
83.523294
 20
774.611929
 30
0.0
 10
80.270430
 20
771.071187
 30
0.0
 10
77.047206
 20
766.959693
 30
0.0
 10
74.322816
 20
762.875929
 30
0.0
  0
SPLINE
  5
1bf
100
AcDbEntity
  8
Layer_1
 62
7
100
AcDbSpline
 70
8
 71
3
 72
8
 73
4
 74
0
 40
0
 40
0
 40
0
 40
0
 40
1
 40
1
 40
1
 40
1
 10
74.322816
 20
762.875929
 30
0.0
 10
73.360843
 20
761.433965
 30
0.0
 10
71.740817
 20
758.862794
 30
0.0
 10
71.747178
 20
758.788089
 30
0.0
  0
SPLINE
  5
1c0
100
AcDbEntity
  8
Layer_1
 62
7
100
AcDbSpline
 70
8
 71
3
 72
8
 73
4
 74
0
 40
0
 40
0
 40
0
 40
0
 40
1
 40
1
 40
1
 40
1
 10
71.747178
 20
758.788089
 30
0.0
 10
71.748400
 20
758.773633
 30
0.0
 10
109.970535
 20
736.694802
 30
0.0
 10
156.685258
 20
709.723769
 30
0.0
  0
LWPOLYLINE
  5
1c1
100
AcDbEntity
  8
Layer_1
 62
7
100
AcDbPolyline
 90
3
 70
0
 10
254.005342
 20
706.791070
 30
0.0
 10
254.025184
 20
707.604208
 30
0.0
 10
252.485291
 20
707.628869
 30
0.0
  0
SPLINE
  5
1c2
100
AcDbEntity
  8
Layer_1
 62
7
100
AcDbSpline
 70
8
 71
3
 72
8
 73
4
 74
0
 40
0
 40
0
 40
0
 40
0
 40
1
 40
1
 40
1
 40
1
 10
241.689430
 20
660.795735
 30
0.0
 10
241.726847
 20
660.856340
 30
0.0
 10
242.007080
 20
661.367636
 30
0.0
 10
242.311861
 20
661.931935
 30
0.0
  0
LWPOLYLINE
  5
1c3
100
AcDbEntity
  8
Layer_1
 62
7
100
AcDbPolyline
 90
3
 70
0
 10
156.685258
 20
709.723769
 30
0.0
 10
241.621115
 20
660.685524
 30
0.0
 10
241.689430
 20
660.795735
 30
0.0
  0
SPLINE
  5
1c4
100
AcDbEntity
  8
Layer_1
 62
7
100
AcDbSpline
 70
8
 71
3
 72
8
 73
4
 74
0
 40
0
 40
0
 40
0
 40
0
 40
1
 40
1
 40
1
 40
1
 10
251.719115
 20
709.130784
 30
0.0
 10
248.564069
 20
709.200119
 30
0.0
 10
244.898504
 20
709.390210
 30
0.0
 10
241.675115
 20
709.651627
 30
0.0
  0
SPLINE
  5
1c5
100
AcDbEntity
  8
Layer_1
 62
7
100
AcDbSpline
 70
8
 71
3
 72
8
 73
4
 74
0
 40
0
 40
0
 40
0
 40
0
 40
1
 40
1
 40
1
 40
1
 10
241.675115
 20
709.651627
 30
0.0
 10
240.126066
 20
709.777259
 30
0.0
 10
239.349543
 20
709.874884
 30
0.0
 10
236.797115
 20
710.264982
 30
0.0
  0
SPLINE
  5
1c6
100
AcDbEntity
  8
Layer_1
 62
7
100
AcDbSpline
 70
8
 71
3
 72
8
 73
4
 74
0
 40
0
 40
0
 40
0
 40
0
 40
1
 40
1
 40
1
 40
1
 10
236.797115
 20
710.264982
 30
0.0
 10
219.106375
 20
712.968616
 30
0.0
 10
201.856941
 20
718.161922
 30
0.0
 10
185.659118
 20
725.661153
 30
0.0
  0
SPLINE
  5
1c7
100
AcDbEntity
  8
Layer_1
 62
7
100
AcDbSpline
 70
8
 71
3
 72
8
 73
4
 74
0
 40
0
 40
0
 40
0
 40
0
 40
1
 40
1
 40
1
 40
1
 10
185.659118
 20
725.661153
 30
0.0
 10
182.287071
 20
727.222337
 30
0.0
 10
178.613456
 20
729.059238
 30
0.0
 10
175.363121
 20
730.809417
 30
0.0
  0
SPLINE
  5
1c8
100
AcDbEntity
  8
Layer_1
 62
7
100
AcDbSpline
 70
8
 71
3
 72
8
 73
4
 74
0
 40
0
 40
0
 40
0
 40
0
 40
1
 40
1
 40
1
 40
1
 10
175.363121
 20
730.809417
 30
0.0
 10
160.278097
 20
738.932111
 30
0.0
 10
146.459078
 20
748.979637
 30
0.0
 10
134.017121
 20
760.871251
 30
0.0
  0
SPLINE
  5
1c9
100
AcDbEntity
  8
Layer_1
 62
7
100
AcDbSpline
 70
8
 71
3
 72
8
 73
4
 74
0
 40
0
 40
0
 40
0
 40
0
 40
1
 40
1
 40
1
 40
1
 10
134.017121
 20
760.871251
 30
0.0
 10
132.954378
 20
761.886986
 30
0.0
 10
130.000813
 20
764.826661
 30
0.0
 10
128.874260
 20
765.989929
 30
0.0
  0
SPLINE
  5
1ca
100
AcDbEntity
  8
Layer_1
 62
7
100
AcDbSpline
 70
8
 71
3
 72
8
 73
4
 74
0
 40
0
 40
0
 40
0
 40
0
 40
1
 40
1
 40
1
 40
1
 10
128.874260
 20
765.989929
 30
0.0
 10
125.005141
 20
769.985141
 30
0.0
 10
121.432589
 20
774.011716
 30
0.0
 10
117.886637
 20
778.373929
 30
0.0
  0
SPLINE
  5
1cb
100
AcDbEntity
  8
Layer_1
 62
7
100
AcDbSpline
 70
8
 71
3
 72
8
 73
4
 74
0
 40
0
 40
0
 40
0
 40
0
 40
1
 40
1
 40
1
 40
1
 10
117.886637
 20
778.373929
 30
0.0
 10
117.093050
 20
779.350198
 30
0.0
 10
115.554002
 20
781.292438
 30
0.0
 10
115.148072
 20
781.829929
 30
0.0
  0
SPLINE
  5
1cc
100
AcDbEntity
  8
Layer_1
 62
7
100
AcDbSpline
 70
8
 71
3
 72
8
 73
4
 74
0
 40
0
 40
0
 40
0
 40
0
 40
1
 40
1
 40
1
 40
1
 10
115.148072
 20
781.829929
 30
0.0
 10
114.278046
 20
782.981926
 30
0.0
 10
111.923325
 20
786.491943
 30
0.0
 10
110.301009
 20
789.055109
 30
0.0
  0
SPLINE
  5
1cd
100
AcDbEntity
  8
Layer_1
 62
7
100
AcDbSpline
 70
8
 71
3
 72
8
 73
4
 74
0
 40
0
 40
0
 40
0
 40
0
 40
1
 40
1
 40
1
 40
1
 10
110.301009
 20
789.055109
 30
0.0
 10
109.012915
 20
791.090220
 30
0.0
 10
107.461227
 20
793.652471
 30
0.0
 10
107.453336
 20
793.757373
 30
0.0
  0
SPLINE
  5
1ce
100
AcDbEntity
  8
Layer_1
 62
7
100
AcDbSpline
 70
8
 71
3
 72
8
 73
4
 74
0
 40
0
 40
0
 40
0
 40
0
 40
1
 40
1
 40
1
 40
1
 10
107.453336
 20
793.757373
 30
0.0
 10
107.448800
 20
793.817410
 30
0.0
 10
107.649578
 20
793.936097
 30
0.0
 10
109.015123
 20
794.680537
 30
0.0
  0
SPLINE
  5
1cf
100
AcDbEntity
  8
Layer_1
 62
7
100
AcDbSpline
 70
8
 71
3
 72
8
 73
4
 74
0
 40
0
 40
0
 40
0
 40
0
 40
1
 40
1
 40
1
 40
1
 10
109.015123
 20
794.680537
 30
0.0
 10
114.777286
 20
797.821875
 30
0.0
 10
121.151220
 20
800.484409
 30
0.0
 10
127.455367
 20
802.383437
 30
0.0
  0
SPLINE
  5
1d0
100
AcDbEntity
  8
Layer_1
 62
7
100
AcDbSpline
 70
8
 71
3
 72
8
 73
4
 74
0
 40
0
 40
0
 40
0
 40
0
 40
1
 40
1
 40
1
 40
1
 10
127.455367
 20
802.383437
 30
0.0
 10
134.789992
 20
804.592882
 30
0.0
 10
142.103891
 20
805.911610
 30
0.0
 10
149.731121
 20
806.399861
 30
0.0
  0
SPLINE
  5
1d1
100
AcDbEntity
  8
Layer_1
 62
7
100
AcDbSpline
 70
8
 71
3
 72
8
 73
4
 74
0
 40
0
 40
0
 40
0
 40
0
 40
1
 40
1
 40
1
 40
1
 10
149.731121
 20
806.399861
 30
0.0
 10
152.257209
 20
806.561578
 30
0.0
 10
156.460978
 20
806.628929
 30
0.0
 10
158.929121
 20
806.547263
 30
0.0
  0
SPLINE
  5
1d2
100
AcDbEntity
  8
Layer_1
 62
7
100
AcDbSpline
 70
8
 71
3
 72
8
 73
4
 74
0
 40
0
 40
0
 40
0
 40
0
 40
1
 40
1
 40
1
 40
1
 10
158.929121
 20
806.547263
 30
0.0
 10
163.409499
 20
806.399011
 30
0.0
 10
167.686509
 20
805.982581
 30
0.0
 10
171.907121
 20
805.283697
 30
0.0
  0
SPLINE
  5
1d3
100
AcDbEntity
  8
Layer_1
 62
7
100
AcDbSpline
 70
8
 71
3
 72
8
 73
4
 74
0
 40
0
 40
0
 40
0
 40
0
 40
1
 40
1
 40
1
 40
1
 10
171.907121
 20
805.283697
 30
0.0
 10
194.540494
 20
801.535870
 30
0.0
 10
215.058643
 20
790.060178
 30
0.0
 10
230.097175
 20
772.738308
 30
0.0
  0
SPLINE
  5
1d4
100
AcDbEntity
  8
Layer_1
 62
7
100
AcDbSpline
 70
8
 71
3
 72
8
 73
4
 74
0
 40
0
 40
0
 40
0
 40
0
 40
1
 40
1
 40
1
 40
1
 10
230.097175
 20
772.738308
 30
0.0
 10
243.546860
 20
757.246504
 30
0.0
 10
251.811638
 20
737.857548
 30
0.0
 10
253.697726
 20
717.371938
 30
0.0
  0
SPLINE
  5
1d5
100
AcDbEntity
  8
Layer_1
 62
7
100
AcDbSpline
 70
8
 71
3
 72
8
 73
4
 74
0
 40
0
 40
0
 40
0
 40
0
 40
1
 40
1
 40
1
 40
1
 10
253.697726
 20
717.371938
 30
0.0
 10
253.920813
 20
714.948712
 30
0.0
 10
254.094576
 20
711.637778
 30
0.0
 10
254.094973
 20
709.802938
 30
0.0
  0
LWPOLYLINE
  5
1d6
100
AcDbEntity
  8
Layer_1
 62
7
100
AcDbPolyline
 90
1
 70
1
 10
242.311861
 20
661.931935
 30
0.0
  0
SPLINE
  5
1d7
100
AcDbEntity
  8
Layer_1
 62
7
100
AcDbSpline
 70
8
 71
3
 72
8
 73
4
 74
0
 40
0
 40
0
 40
0
 40
0
 40
1
 40
1
 40
1
 40
1
 10
253.527959
 20
709.097607
 30
0.0
 10
253.216120
 20
709.100725
 30
0.0
 10
252.402066
 20
709.115749
 30
0.0
 10
251.718973
 20
709.130687
 30
0.0
  0
LWPOLYLINE
  5
1d8
100
AcDbEntity
  8
Layer_1
 62
7
100
AcDbPolyline
 90
3
 70
0
 10
254.094973
 20
709.802938
 30
0.0
 10
254.094973
 20
709.091938
 30
0.0
 10
253.527959
 20
709.097607
 30
0.0
  0
SPLINE
  5
1d9
100
AcDbEntity
  8
Layer_1
 62
7
100
AcDbSpline
 70
8
 71
3
 72
8
 73
4
 74
0
 40
0
 40
0
 40
0
 40
0
 40
1
 40
1
 40
1
 40
1
 10
254.005087
 20
710.000932
 30
0.0
 10
253.894819
 20
714.194770
 30
0.0
 10
253.686076
 20
717.112996
 30
0.0
 10
253.246167
 20
720.611932
 30
0.0
  0
SPLINE
  5
1da
100
AcDbEntity
  8
Layer_1
 62
7
100
AcDbSpline
 70
8
 71
3
 72
8
 73
4
 74
0
 40
0
 40
0
 40
0
 40
0
 40
1
 40
1
 40
1
 40
1
 10
253.246167
 20
720.611932
 30
0.0
 10
250.903332
 20
739.246595
 30
0.0
 10
243.297439
 20
756.748023
 30
0.0
 10
231.256885
 20
771.209929
 30
0.0
  0
SPLINE
  5
1db
100
AcDbEntity
  8
Layer_1
 62
7
100
AcDbSpline
 70
8
 71
3
 72
8
 73
4
 74
0
 40
0
 40
0
 40
0
 40
0
 40
1
 40
1
 40
1
 40
1
 10
231.256885
 20
771.209929
 30
0.0
 10
228.992145
 20
773.930103
 30
0.0
 10
226.340391
 20
776.768893
 30
0.0
 10
223.729087
 20
779.268660
 30
0.0
  0
SPLINE
  5
1dc
100
AcDbEntity
  8
Layer_1
 62
7
100
AcDbSpline
 70
8
 71
3
 72
8
 73
4
 74
0
 40
0
 40
0
 40
0
 40
0
 40
1
 40
1
 40
1
 40
1
 10
223.729087
 20
779.268660
 30
0.0
 10
213.867893
 20
788.708721
 30
0.0
 10
202.136845
 20
795.989531
 30
0.0
 10
189.295118
 20
800.639938
 30
0.0
  0
SPLINE
  5
1dd
100
AcDbEntity
  8
Layer_1
 62
7
100
AcDbSpline
 70
8
 71
3
 72
8
 73
4
 74
0
 40
0
 40
0
 40
0
 40
0
 40
1
 40
1
 40
1
 40
1
 10
189.295118
 20
800.639938
 30
0.0
 10
175.657793
 20
805.578457
 30
0.0
 10
161.050844
 20
807.432182
 30
0.0
 10
146.617121
 20
806.056078
 30
0.0
  0
SPLINE
  5
1de
100
AcDbEntity
  8
Layer_1
 62
7
100
AcDbSpline
 70
8
 71
3
 72
8
 73
4
 74
0
 40
0
 40
0
 40
0
 40
0
 40
1
 40
1
 40
1
 40
1
 10
146.617121
 20
806.056078
 30
0.0
 10
135.197413
 20
804.967330
 30
0.0
 10
124.075378
 20
801.891247
 30
0.0
 10
113.695123
 20
796.950663
 30
0.0
  0
SPLINE
  5
1df
100
AcDbEntity
  8
Layer_1
 62
7
100
AcDbSpline
 70
8
 71
3
 72
8
 73
4
 74
0
 40
0
 40
0
 40
0
 40
0
 40
1
 40
1
 40
1
 40
1
 10
113.695123
 20
796.950663
 30
0.0
 10
111.980194
 20
796.134427
 30
0.0
 10
109.552836
 20
794.878923
 30
0.0
 10
108.022014
 20
794.016354
 30
0.0
  0
LWPOLYLINE
  5
1e0
100
AcDbEntity
  8
Layer_1
 62
7
100
AcDbPolyline
 90
2
 70
0
 10
251.718973
 20
709.130687
 30
0.0
 10
251.719115
 20
709.130784
 30
0.0
  0
SPLINE
  5
1e1
100
AcDbEntity
  8
Layer_1
 62
7
100
AcDbSpline
 70
8
 71
3
 72
8
 73
4
 74
0
 40
0
 40
0
 40
0
 40
0
 40
1
 40
1
 40
1
 40
1
 10
108.024180
 20
792.956401
 30
0.0
 10
110.449687
 20
788.884747
 30
0.0
 10
113.980204
 20
783.500927
 30
0.0
 10
115.544803
 20
781.487918
 30
0.0
  0
SPLINE
  5
1e2
100
AcDbEntity
  8
Layer_1
 62
7
100
AcDbSpline
 70
8
 71
3
 72
8
 73
4
 74
0
 40
0
 40
0
 40
0
 40
0
 40
1
 40
1
 40
1
 40
1
 10
115.544803
 20
781.487918
 30
0.0
 10
122.283675
 20
772.817689
 30
0.0
 10
130.113757
 20
764.407534
 30
0.0
 10
138.337121
 20
757.007076
 30
0.0
  0
SPLINE
  5
1e3
100
AcDbEntity
  8
Layer_1
 62
7
100
AcDbSpline
 70
8
 71
3
 72
8
 73
4
 74
0
 40
0
 40
0
 40
0
 40
0
 40
1
 40
1
 40
1
 40
1
 10
138.337121
 20
757.007076
 30
0.0
 10
149.570461
 20
746.897859
 30
0.0
 10
161.896351
 20
738.205980
 30
0.0
 10
175.183121
 20
731.024303
 30
0.0
  0
SPLINE
  5
1e4
100
AcDbEntity
  8
Layer_1
 62
7
100
AcDbSpline
 70
8
 71
3
 72
8
 73
4
 74
0
 40
0
 40
0
 40
0
 40
0
 40
1
 40
1
 40
1
 40
1
 10
175.183121
 20
731.024303
 30
0.0
 10
192.572739
 20
721.624978
 30
0.0
 10
211.432450
 20
714.968337
 30
0.0
 10
230.897367
 20
711.359631
 30
0.0
  0
SPLINE
  5
1e5
100
AcDbEntity
  8
Layer_1
 62
7
100
AcDbSpline
 70
8
 71
3
 72
8
 73
4
 74
0
 40
0
 40
0
 40
0
 40
0
 40
1
 40
1
 40
1
 40
1
 10
230.897367
 20
711.359631
 30
0.0
 10
234.610526
 20
710.671232
 30
0.0
 10
239.184992
 20
709.964884
 30
0.0
 10
240.901115
 20
709.814951
 30
0.0
  0
SPLINE
  5
1e6
100
AcDbEntity
  8
Layer_1
 62
7
100
AcDbSpline
 70
8
 71
3
 72
8
 73
4
 74
0
 40
0
 40
0
 40
0
 40
0
 40
1
 40
1
 40
1
 40
1
 10
240.901115
 20
709.814951
 30
0.0
 10
243.952583
 20
709.548352
 30
0.0
 10
247.098387
 20
709.364305
 30
0.0
 10
250.189115
 20
709.271549
 30
0.0
  0
SPLINE
  5
1e7
100
AcDbEntity
  8
Layer_1
 62
7
100
AcDbSpline
 70
8
 71
3
 72
8
 73
4
 74
0
 40
0
 40
0
 40
0
 40
0
 40
1
 40
1
 40
1
 40
1
 10
250.189115
 20
709.271549
 30
0.0
 10
252.012019
 20
709.216841
 30
0.0
 10
252.063298
 20
709.215707
 30
0.0
 10
253.097631
 20
709.207401
 30
0.0
  0
LWPOLYLINE
  5
1e8
100
AcDbEntity
  8
Layer_1
 62
7
100
AcDbPolyline
 90
3
 70
0
 10
108.022014
 20
794.016354
 30
0.0
 10
107.550899
 20
793.750890
 30
0.0
 10
108.024180
 20
792.956401
 30
0.0
  0
LWPOLYLINE
  5
1e9
100
AcDbEntity
  8
Layer_1
 62
7
100
AcDbPolyline
 90
3
 70
0
 10
253.097631
 20
709.207401
 30
0.0
 10
254.026148
 20
709.200031
 30
0.0
 10
254.005087
 20
710.000932
 30
0.0
  0
ENDSEC
  0
SECTION
  2
OBJECTS
  0
DICTIONARY
  5
C
330
0
100
AcDbDictionary
  3
ACAD_GROUP
350
D
  3
ACAD_MLINESTYLE
350
17
  0
DICTIONARY
  5
D
330
C
100
AcDbDictionary
  0
DICTIONARY
  5
1A
330
C
100
AcDbDictionary
  0
DICTIONARY
  5
17
330
C
100
AcDbDictionary
  3
STANDARD
350
18
  0
DICTIONARY
  5
19
330
C
100
AcDbDictionary
  0
ENDSEC
  0
EOF
