999
"DXF R12 Output" (www.mydxf.blogspot.com)
 0 
SECTION
 2 
HEADER
 9 
$ACADVER
 1 
AC1009
 9 
$EXTMIN
 10 
 0 
 20 
 0 
 9 
$EXTMAX
 10 
 8.5 
 20 
 11 
 0 
ENDSEC
 0 
SECTION
 2 
ENTITIES
0
LINE
8
Layer 1
10
-6.197570
20
-112.356000
11
-12.146666
21
-112.033997
0
LINE
8
Layer 1
10
-12.146666
20
-112.033997
11
-17.987065
21
-111.495995
0
LINE
8
Layer 1
10
-17.987065
20
-111.495995
11
-23.733295
21
-110.739181
0
LINE
8
Layer 1
10
-23.733295
20
-110.739181
11
-29.399883
21
-109.760743
0
LINE
8
Layer 1
10
-29.399883
20
-109.760743
11
-35.001356
21
-108.557867
0
LINE
8
Layer 1
10
-35.001356
20
-108.557867
11
-40.552243
21
-107.127742
0
LINE
8
Layer 1
10
-40.552243
20
-107.127742
11
-46.067072
21
-105.467554
0
LINE
8
Layer 1
10
-46.067072
20
-105.467554
11
-51.560370
21
-103.574490
0
LINE
8
Layer 1
10
-51.560370
20
-103.574490
11
-55.950254
21
-101.883169
0
LINE
8
Layer 1
10
-55.950254
20
-101.883169
11
-60.278656
21
-100.049221
0
LINE
8
Layer 1
10
-60.278656
20
-100.049221
11
-64.541992
21
-98.075162
0
LINE
8
Layer 1
10
-64.541992
20
-98.075162
11
-68.736679
21
-95.963510
0
LINE
8
Layer 1
10
-68.736679
20
-95.963510
11
-72.859136
21
-93.716783
0
LINE
8
Layer 1
10
-72.859136
20
-93.716783
11
-76.905780
21
-91.337499
0
LINE
8
Layer 1
10
-76.905780
20
-91.337499
11
-80.873027
21
-88.828176
0
LINE
8
Layer 1
10
-80.873027
20
-88.828176
11
-84.757295
21
-86.191330
0
LINE
8
Layer 1
10
-84.757295
20
-86.191330
11
-88.555001
21
-83.429480
0
LINE
8
Layer 1
10
-88.555001
20
-83.429480
11
-92.262563
21
-80.545143
0
LINE
8
Layer 1
10
-92.262563
20
-80.545143
11
-95.876398
21
-77.540837
0
LINE
8
Layer 1
10
-95.876398
20
-77.540837
11
-99.392923
21
-74.419080
0
LINE
8
Layer 1
10
-99.392923
20
-74.419080
11
-102.808555
21
-71.182389
0
LINE
8
Layer 1
10
-102.808555
20
-71.182389
11
-106.119713
21
-67.833282
0
LINE
8
Layer 1
10
-106.119713
20
-67.833282
11
-109.322812
21
-64.374276
0
LINE
8
Layer 1
10
-109.322812
20
-64.374276
11
-112.414270
21
-60.807890
0
LINE
8
Layer 1
10
-112.414270
20
-60.807890
11
-115.408086
21
-57.115072
0
LINE
8
Layer 1
10
-115.408086
20
-57.115072
11
-118.273615
21
-53.332199
0
LINE
8
Layer 1
10
-118.273615
20
-53.332199
11
-121.009214
21
-49.462802
0
LINE
8
Layer 1
10
-121.009214
20
-49.462802
11
-123.613239
21
-45.510415
0
LINE
8
Layer 1
10
-123.613239
20
-45.510415
11
-126.084047
21
-41.478570
0
LINE
8
Layer 1
10
-126.084047
20
-41.478570
11
-128.419997
21
-37.370800
0
LINE
8
Layer 1
10
-128.419997
20
-37.370800
11
-130.619443
21
-33.190638
0
LINE
8
Layer 1
10
-130.619443
20
-33.190638
11
-132.680745
21
-28.941615
0
LINE
8
Layer 1
10
-132.680745
20
-28.941615
11
-134.602258
21
-24.627265
0
LINE
8
Layer 1
10
-134.602258
20
-24.627265
11
-136.382340
21
-20.251120
0
LINE
8
Layer 1
10
-136.382340
20
-20.251120
11
-138.019348
21
-15.816714
0
LINE
8
Layer 1
10
-138.019348
20
-15.816714
11
-139.511639
21
-11.327577
0
LINE
8
Layer 1
10
-139.511639
20
-11.327577
11
-140.857569
21
-6.787244
0
LINE
8
Layer 1
10
-140.857569
20
-6.787244
11
-142.055497
21
-2.199247
0
LINE
8
Layer 1
10
-142.055497
20
-2.199247
11
-143.103778
21
2.432882
0
LINE
8
Layer 1
10
-143.103778
20
2.432882
11
-144.000770
21
7.105610
0
LINE
8
Layer 1
10
-144.000770
20
7.105610
11
-144.766834
21
11.991760
0
LINE
8
Layer 1
10
-144.766834
20
11.991760
11
-145.364128
21
16.921637
0
LINE
8
Layer 1
10
-145.364128
20
16.921637
11
-145.792263
21
21.884065
0
LINE
8
Layer 1
10
-145.792263
20
21.884065
11
-146.050850
21
26.867873
0
LINE
8
Layer 1
10
-146.050850
20
26.867873
11
-146.139500
21
31.861884
0
LINE
8
Layer 1
10
-146.139500
20
31.861884
11
-146.057824
21
36.854927
0
LINE
8
Layer 1
10
-146.057824
20
36.854927
11
-145.805434
21
41.835827
0
LINE
8
Layer 1
10
-145.805434
20
41.835827
11
-145.381940
21
46.793410
0
LINE
8
Layer 1
10
-145.381940
20
46.793410
11
-144.575212
21
53.210515
0
LINE
8
Layer 1
10
-144.575212
20
53.210515
11
-143.484022
21
59.568591
0
LINE
8
Layer 1
10
-143.484022
20
59.568591
11
-142.109867
21
65.862476
0
LINE
8
Layer 1
10
-142.109867
20
65.862476
11
-140.454245
21
72.087010
0
LINE
8
Layer 1
10
-140.454245
20
72.087010
11
-138.518654
21
78.237031
0
LINE
8
Layer 1
10
-138.518654
20
78.237031
11
-136.304591
21
84.307379
0
LINE
8
Layer 1
10
-136.304591
20
84.307379
11
-133.813554
21
90.292892
0
LINE
8
Layer 1
10
-133.813554
20
90.292892
11
-131.047040
21
96.188410
0
LINE
8
Layer 1
10
-131.047040
20
96.188410
11
-127.516330
21
102.855903
0
LINE
8
Layer 1
10
-127.516330
20
102.855903
11
-123.649613
21
109.316693
0
LINE
8
Layer 1
10
-123.649613
20
109.316693
11
-119.456589
21
115.558532
0
LINE
8
Layer 1
10
-119.456589
20
115.558532
11
-114.946952
21
121.569173
0
LINE
8
Layer 1
10
-114.946952
20
121.569173
11
-110.130402
21
127.336368
0
LINE
8
Layer 1
10
-110.130402
20
127.336368
11
-105.016635
21
132.847871
0
LINE
8
Layer 1
10
-105.016635
20
132.847871
11
-99.615349
21
138.091434
0
LINE
8
Layer 1
10
-99.615349
20
138.091434
11
-93.936240
21
143.054810
0
LINE
8
Layer 1
10
-93.936240
20
143.054810
11
-89.655531
21
146.467945
0
LINE
8
Layer 1
10
-89.655531
20
146.467945
11
-85.259738
21
149.708680
0
LINE
8
Layer 1
10
-85.259738
20
149.708680
11
-80.754354
21
152.774749
0
LINE
8
Layer 1
10
-80.754354
20
152.774749
11
-76.144870
21
155.663891
0
LINE
8
Layer 1
10
-76.144870
20
155.663891
11
-71.436776
21
158.373842
0
LINE
8
Layer 1
10
-71.436776
20
158.373842
11
-66.635564
21
160.902337
0
LINE
8
Layer 1
10
-66.635564
20
160.902337
11
-61.746726
21
163.247115
0
LINE
8
Layer 1
10
-61.746726
20
163.247115
11
-56.775752
21
165.405910
0
LINE
8
Layer 1
10
-56.775752
20
165.405910
11
-51.728135
21
167.376460
0
LINE
8
Layer 1
10
-51.728135
20
167.376460
11
-46.609364
21
169.156501
0
LINE
8
Layer 1
10
-46.609364
20
169.156501
11
-41.424932
21
170.743770
0
LINE
8
Layer 1
10
-41.424932
20
170.743770
11
-36.180329
21
172.136004
0
LINE
8
Layer 1
10
-36.180329
20
172.136004
11
-30.881047
21
173.330938
0
LINE
8
Layer 1
10
-30.881047
20
173.330938
11
-25.532578
21
174.326309
0
LINE
8
Layer 1
10
-25.532578
20
174.326309
11
-20.140412
21
175.119854
0
LINE
8
Layer 1
10
-20.140412
20
175.119854
11
-14.710040
21
175.709310
0
LINE
8
Layer 1
10
-14.710040
20
175.709310
11
-8.591666
21
176.132023
0
LINE
8
Layer 1
10
-8.591666
20
176.132023
11
-1.791940
21
176.235349
0
LINE
8
Layer 1
10
-1.791940
20
176.235349
11
3.851800
21
176.179309
0
LINE
8
Layer 1
10
3.851800
20
176.179309
11
8.400660
21
175.931986
0
LINE
8
Layer 1
10
8.400660
20
175.931986
11
16.834237
21
175.081745
0
LINE
8
Layer 1
10
16.834237
20
175.081745
11
25.172029
21
173.747598
0
LINE
8
Layer 1
10
25.172029
20
173.747598
11
33.395868
21
171.935253
0
LINE
8
Layer 1
10
33.395868
20
171.935253
11
41.487585
21
169.650416
0
LINE
8
Layer 1
10
41.487585
20
169.650416
11
49.429012
21
166.898794
0
LINE
8
Layer 1
10
49.429012
20
166.898794
11
57.201979
21
163.686094
0
LINE
8
Layer 1
10
57.201979
20
163.686094
11
64.788318
21
160.018022
0
LINE
8
Layer 1
10
64.788318
20
160.018022
11
72.169860
21
155.900286
0
LINE
8
Layer 1
10
72.169860
20
155.900286
11
77.063212
21
152.846548
0
LINE
8
Layer 1
10
77.063212
20
152.846548
11
81.830620
21
149.602598
0
LINE
8
Layer 1
10
81.830620
20
149.602598
11
86.454598
21
146.180843
0
LINE
8
Layer 1
10
86.454598
20
146.180843
11
90.917660
21
142.593686
0
LINE
8
Layer 1
10
90.917660
20
142.593686
11
94.796684
21
139.223751
0
LINE
8
Layer 1
10
94.796684
20
139.223751
11
98.555907
21
135.712811
0
LINE
8
Layer 1
10
98.555907
20
135.712811
11
102.190606
21
132.066140
0
LINE
8
Layer 1
10
102.190606
20
132.066140
11
105.696060
21
128.289011
0
LINE
8
Layer 1
10
105.696060
20
128.289011
11
109.067545
21
124.386698
0
LINE
8
Layer 1
10
109.067545
20
124.386698
11
112.300338
21
120.364474
0
LINE
8
Layer 1
10
112.300338
20
120.364474
11
115.389717
21
116.227612
0
LINE
8
Layer 1
10
115.389717
20
116.227612
11
118.330960
21
111.981386
0
LINE
8
Layer 1
10
118.330960
20
111.981386
11
120.854186
21
108.059688
0
LINE
8
Layer 1
10
120.854186
20
108.059688
11
123.245710
21
104.064494
0
LINE
8
Layer 1
10
123.245710
20
104.064494
11
127.628444
21
95.868780
0
LINE
8
Layer 1
10
127.628444
20
95.868780
11
131.468756
21
87.424563
0
LINE
8
Layer 1
10
131.468756
20
87.424563
11
134.756235
21
78.762161
0
LINE
8
Layer 1
10
134.756235
20
78.762161
11
137.480474
21
69.911894
0
LINE
8
Layer 1
10
137.480474
20
69.911894
11
139.631063
21
60.904080
0
LINE
8
Layer 1
10
139.631063
20
60.904080
11
140.487987
21
56.350567
0
LINE
8
Layer 1
10
140.487987
20
56.350567
11
141.197595
21
51.769038
0
LINE
8
Layer 1
10
141.197595
20
51.769038
11
141.758586
21
47.163281
0
LINE
8
Layer 1
10
141.758586
20
47.163281
11
142.169660
21
42.537086
0
LINE
8
Layer 1
10
142.169660
20
42.537086
11
142.449970
21
37.631327
0
LINE
8
Layer 1
10
142.449970
20
37.631327
11
142.509475
21
31.933786
0
LINE
8
Layer 1
10
142.509475
20
31.933786
11
142.449970
21
26.236230
0
LINE
8
Layer 1
10
142.449970
20
26.236230
11
142.169660
21
21.330486
0
LINE
8
Layer 1
10
142.169660
20
21.330486
11
141.628088
21
15.521084
0
LINE
8
Layer 1
10
141.628088
20
15.521084
11
140.847395
21
9.731039
0
LINE
8
Layer 1
10
140.847395
20
9.731039
11
139.830189
21
3.971205
0
LINE
8
Layer 1
10
139.830189
20
3.971205
11
138.579075
21
-1.747564
0
LINE
8
Layer 1
10
138.579075
20
-1.747564
11
137.096659
21
-7.414414
0
LINE
8
Layer 1
10
137.096659
20
-7.414414
11
135.385547
21
-13.018492
0
LINE
8
Layer 1
10
135.385547
20
-13.018492
11
133.448346
21
-18.548943
0
LINE
8
Layer 1
10
133.448346
20
-18.548943
11
131.287660
21
-23.994914
0
LINE
8
Layer 1
10
131.287660
20
-23.994914
11
129.243732
21
-28.626288
0
LINE
8
Layer 1
10
129.243732
20
-28.626288
11
127.045264
21
-33.171817
0
LINE
8
Layer 1
10
127.045264
20
-33.171817
11
124.694871
21
-37.628246
0
LINE
8
Layer 1
10
124.694871
20
-37.628246
11
122.195166
21
-41.992322
0
LINE
8
Layer 1
10
122.195166
20
-41.992322
11
119.548764
21
-46.260789
0
LINE
8
Layer 1
10
119.548764
20
-46.260789
11
116.758278
21
-50.430394
0
LINE
8
Layer 1
10
116.758278
20
-50.430394
11
113.826322
21
-54.497883
0
LINE
8
Layer 1
10
113.826322
20
-54.497883
11
110.755510
21
-58.460001
0
LINE
8
Layer 1
10
110.755510
20
-58.460001
11
107.548456
21
-62.313495
0
LINE
8
Layer 1
10
107.548456
20
-62.313495
11
104.207773
21
-66.055110
0
LINE
8
Layer 1
10
104.207773
20
-66.055110
11
100.736076
21
-69.681592
0
LINE
8
Layer 1
10
100.736076
20
-69.681592
11
97.135979
21
-73.189687
0
LINE
8
Layer 1
10
97.135979
20
-73.189687
11
93.410094
21
-76.576141
0
LINE
8
Layer 1
10
93.410094
20
-76.576141
11
89.561037
21
-79.837700
0
LINE
8
Layer 1
10
89.561037
20
-79.837700
11
85.591421
21
-82.971109
0
LINE
8
Layer 1
10
85.591421
20
-82.971109
11
81.503860
21
-85.973114
0
LINE
8
Layer 1
10
81.503860
20
-85.973114
11
75.272371
21
-90.131607
0
LINE
8
Layer 1
10
75.272371
20
-90.131607
11
68.723486
21
-94.018516
0
LINE
8
Layer 1
10
68.723486
20
-94.018516
11
61.965714
21
-97.573149
0
LINE
8
Layer 1
10
61.965714
20
-97.573149
11
55.107560
21
-100.734814
0
LINE
8
Layer 1
10
55.107560
20
-100.734814
11
48.896412
21
-103.231363
0
LINE
8
Layer 1
10
48.896412
20
-103.231363
11
42.614551
21
-105.427550
0
LINE
8
Layer 1
10
42.614551
20
-105.427550
11
36.259250
21
-107.323987
0
LINE
8
Layer 1
10
36.259250
20
-107.323987
11
29.827785
21
-108.921285
0
LINE
8
Layer 1
10
29.827785
20
-108.921285
11
23.317429
21
-110.220056
0
LINE
8
Layer 1
10
23.317429
20
-110.220056
11
16.725457
21
-111.220909
0
LINE
8
Layer 1
10
16.725457
20
-111.220909
11
10.049142
21
-111.924459
0
LINE
8
Layer 1
10
10.049142
20
-111.924459
11
3.285760
21
-112.331314
0
LINE
8
Layer 1
10
3.285760
20
-112.331314
11
-6.197490
21
-112.355952
0
LINE
8
Layer 1
10
-6.197490
20
-112.355952
11
-6.197570
21
-112.356000
0
LINE
8
Layer 1
10
-2.837330
20
-107.608080
11
-2.571375
21
-101.354360
0
LINE
8
Layer 1
10
-2.571375
20
-101.354360
11
-2.168923
21
-96.331629
0
LINE
8
Layer 1
10
-2.168923
20
-96.331629
11
-1.607488
21
-91.460420
0
LINE
8
Layer 1
10
-1.607488
20
-91.460420
11
-1.384236
21
-89.645480
0
LINE
8
Layer 1
10
-1.384236
20
-89.645480
11
-3.071756
21
-89.325909
0
LINE
8
Layer 1
10
-3.071756
20
-89.325909
11
-10.944995
21
-87.661926
0
LINE
8
Layer 1
10
-10.944995
20
-87.661926
11
-18.684744
21
-85.497844
0
LINE
8
Layer 1
10
-18.684744
20
-85.497844
11
-26.227898
21
-82.853514
0
LINE
8
Layer 1
10
-26.227898
20
-82.853514
11
-33.511356
21
-79.748789
0
LINE
8
Layer 1
10
-33.511356
20
-79.748789
11
-34.876866
21
-79.111588
0
LINE
8
Layer 1
10
-34.876866
20
-79.111588
11
-35.163290
21
-79.723005
0
LINE
8
Layer 1
10
-35.163290
20
-79.723005
11
-38.069695
21
-86.093749
0
LINE
8
Layer 1
10
-38.069695
20
-86.093749
11
-40.464660
21
-91.853505
0
LINE
8
Layer 1
10
-40.464660
20
-91.853505
11
-42.758871
21
-97.913186
0
LINE
8
Layer 1
10
-42.758871
20
-97.913186
11
-44.029850
21
-101.629275
0
LINE
8
Layer 1
10
-44.029850
20
-101.629275
11
-39.575630
21
-102.967605
0
LINE
8
Layer 1
10
-39.575630
20
-102.967605
11
-32.776138
21
-104.694642
0
LINE
8
Layer 1
10
-32.776138
20
-104.694642
11
-25.857381
21
-106.078219
0
LINE
8
Layer 1
10
-25.857381
20
-106.078219
11
-18.825324
21
-107.117304
0
LINE
8
Layer 1
10
-18.825324
20
-107.117304
11
-11.685930
21
-107.810865
0
LINE
8
Layer 1
10
-11.685930
20
-107.810865
11
-6.048250
21
-108.099671
0
LINE
8
Layer 1
10
-6.048250
20
-108.099671
11
-4.200140
21
-108.135014
0
LINE
8
Layer 1
10
-4.200140
20
-108.135014
11
-2.837390
21
-108.149407
0
LINE
8
Layer 1
10
-2.837390
20
-108.149407
11
-2.837330
21
-107.608080
0
LINE
8
Layer 1
10
5.675160
20
-107.961617
11
12.460979
21
-107.433380
0
LINE
8
Layer 1
10
12.460979
20
-107.433380
11
19.137130
21
-106.591054
0
LINE
8
Layer 1
10
19.137130
20
-106.591054
11
25.765371
21
-105.425319
0
LINE
8
Layer 1
10
25.765371
20
-105.425319
11
32.407460
21
-103.926857
0
LINE
8
Layer 1
10
32.407460
20
-103.926857
11
37.602306
21
-102.510959
0
LINE
8
Layer 1
10
37.602306
20
-102.510959
11
40.471950
21
-101.581937
0
LINE
8
Layer 1
10
40.471950
20
-101.581937
11
40.057964
21
-100.080187
0
LINE
8
Layer 1
10
40.057964
20
-100.080187
11
38.794627
21
-95.171224
0
LINE
8
Layer 1
10
38.794627
20
-95.171224
11
37.815414
21
-90.564377
0
LINE
8
Layer 1
10
37.815414
20
-90.564377
11
37.636880
21
-89.761780
0
LINE
8
Layer 1
10
37.636880
20
-89.761780
11
35.801380
21
-89.962906
0
LINE
8
Layer 1
10
35.801380
20
-89.962906
11
28.349077
21
-90.793234
0
LINE
8
Layer 1
10
28.349077
20
-90.793234
11
20.771444
21
-91.170908
0
LINE
8
Layer 1
10
20.771444
20
-91.170908
11
13.195879
21
-91.093404
0
LINE
8
Layer 1
10
13.195879
20
-91.093404
11
5.749780
21
-90.558194
0
LINE
8
Layer 1
10
5.749780
20
-90.558194
11
1.236550
21
-90.004582
0
LINE
8
Layer 1
10
1.236550
20
-90.004582
11
0.764745
21
-89.961518
0
LINE
8
Layer 1
10
0.764745
20
-89.961518
11
0.149543
21
-94.629708
0
LINE
8
Layer 1
10
0.149543
20
-94.629708
11
-0.375262
21
-100.381514
0
LINE
8
Layer 1
10
-0.375262
20
-100.381514
11
-0.636273
21
-105.653808
0
LINE
8
Layer 1
10
-0.636273
20
-105.653808
11
-0.709354
21
-107.806528
0
LINE
8
Layer 1
10
-0.709354
20
-107.806528
11
-0.742366
21
-108.172990
0
LINE
8
Layer 1
10
-0.742366
20
-108.172990
11
1.476974
21
-108.121281
0
LINE
8
Layer 1
10
1.476974
20
-108.121281
11
5.675114
21
-107.961611
0
LINE
8
Layer 1
10
5.675114
20
-107.961611
11
5.675160
21
-107.961617
0
LINE
8
Layer 1
10
-45.477700
20
-99.207900
11
-41.768796
21
-89.404106
0
LINE
8
Layer 1
10
-41.768796
20
-89.404106
11
-37.595980
21
-79.903500
0
LINE
8
Layer 1
10
-37.595980
20
-79.903500
11
-36.820908
21
-78.178800
0
LINE
8
Layer 1
10
-36.820908
20
-78.178800
11
-38.044888
21
-77.534445
0
LINE
8
Layer 1
10
-38.044888
20
-77.534445
11
-43.555010
21
-74.505356
0
LINE
8
Layer 1
10
-43.555010
20
-74.505356
11
-48.833240
21
-71.255575
0
LINE
8
Layer 1
10
-48.833240
20
-71.255575
11
-53.930470
21
-67.751979
0
LINE
8
Layer 1
10
-53.930470
20
-67.751979
11
-58.897588
21
-63.961445
0
LINE
8
Layer 1
10
-58.897588
20
-63.961445
11
-63.760408
21
-59.843175
0
LINE
8
Layer 1
10
-63.760408
20
-59.843175
11
-64.461047
21
-59.203513
0
LINE
8
Layer 1
10
-64.461047
20
-59.203513
11
-64.868432
21
-59.651174
0
LINE
8
Layer 1
10
-64.868432
20
-59.651174
11
-72.235746
21
-68.060139
0
LINE
8
Layer 1
10
-72.235746
20
-68.060139
11
-79.122932
21
-76.567474
0
LINE
8
Layer 1
10
-79.122932
20
-76.567474
11
-83.245692
21
-82.050354
0
LINE
8
Layer 1
10
-83.245692
20
-82.050354
11
-79.226092
21
-84.811864
0
LINE
8
Layer 1
10
-79.226092
20
-84.811864
11
-72.079562
21
-89.244053
0
LINE
8
Layer 1
10
-72.079562
20
-89.244053
11
-64.706648
21
-93.234126
0
LINE
8
Layer 1
10
-64.706648
20
-93.234126
11
-57.145007
21
-96.763119
0
LINE
8
Layer 1
10
-57.145007
20
-96.763119
11
-49.432292
21
-99.812064
0
LINE
8
Layer 1
10
-49.432292
20
-99.812064
11
-46.139192
21
-100.975304
0
LINE
8
Layer 1
10
-46.139192
20
-100.975304
11
-45.477731
21
-99.207904
0
LINE
8
Layer 1
10
-45.477731
20
-99.207904
11
-45.477700
21
-99.207900
0
LINE
8
Layer 1
10
44.989500
20
-100.120950
11
49.214835
21
-98.554751
0
LINE
8
Layer 1
10
49.214835
20
-98.554751
11
53.461645
21
-96.807958
0
LINE
8
Layer 1
10
53.461645
20
-96.807958
11
57.702336
21
-94.894679
0
LINE
8
Layer 1
10
57.702336
20
-94.894679
11
61.909313
21
-92.829021
0
LINE
8
Layer 1
10
61.909313
20
-92.829021
11
66.054981
21
-90.625092
0
LINE
8
Layer 1
10
66.054981
20
-90.625092
11
70.111748
21
-88.296999
0
LINE
8
Layer 1
10
70.111748
20
-88.296999
11
74.052019
21
-85.858849
0
LINE
8
Layer 1
10
74.052019
20
-85.858849
11
77.848200
21
-83.324750
0
LINE
8
Layer 1
10
77.848200
20
-83.324750
11
79.671990
21
-81.997690
0
LINE
8
Layer 1
10
79.671990
20
-81.997690
11
78.920811
21
-80.806200
0
LINE
8
Layer 1
10
78.920811
20
-80.806200
11
77.301991
21
-78.209900
0
LINE
8
Layer 1
10
77.301991
20
-78.209900
11
76.416912
21
-76.723630
0
LINE
8
Layer 1
10
76.416912
20
-76.723630
11
73.872812
21
-77.967400
0
LINE
8
Layer 1
10
73.872812
20
-77.967400
11
65.985245
21
-81.619862
0
LINE
8
Layer 1
10
65.985245
20
-81.619862
11
62.030554
21
-83.208237
0
LINE
8
Layer 1
10
62.030554
20
-83.208237
11
58.042375
21
-84.646970
0
LINE
8
Layer 1
10
58.042375
20
-84.646970
11
54.001043
21
-85.942757
0
LINE
8
Layer 1
10
54.001043
20
-85.942757
11
49.886898
21
-87.102293
0
LINE
8
Layer 1
10
49.886898
20
-87.102293
11
41.361512
21
-89.039400
0
LINE
8
Layer 1
10
41.361512
20
-89.039400
11
39.749552
21
-89.351368
0
LINE
8
Layer 1
10
39.749552
20
-89.351368
11
39.783348
21
-89.547343
0
LINE
8
Layer 1
10
39.783348
20
-89.547343
11
41.143618
21
-95.866363
0
LINE
8
Layer 1
10
41.143618
20
-95.866363
11
42.530018
21
-100.914083
0
LINE
8
Layer 1
10
42.530018
20
-100.914083
11
43.069593
21
-100.796701
0
LINE
8
Layer 1
10
43.069593
20
-100.796701
11
44.989583
21
-100.120949
0
LINE
8
Layer 1
10
44.989583
20
-100.120949
11
44.989500
21
-100.120950
0
LINE
8
Layer 1
10
21.580100
20
-89.033500
11
26.872324
21
-88.778007
0
LINE
8
Layer 1
10
26.872324
20
-88.778007
11
31.884700
21
-88.321508
0
LINE
8
Layer 1
10
31.884700
20
-88.321508
11
37.249480
21
-87.576956
0
LINE
8
Layer 1
10
37.249480
20
-87.576956
11
37.046853
21
-85.842806
0
LINE
8
Layer 1
10
37.046853
20
-85.842806
11
36.313702
21
-78.923500
0
LINE
8
Layer 1
10
36.313702
20
-78.923500
11
36.018393
21
-70.950106
0
LINE
8
Layer 1
10
36.018393
20
-70.950106
11
35.967683
21
-67.464476
0
LINE
8
Layer 1
10
35.967683
20
-67.464476
11
35.438288
21
-67.423370
0
LINE
8
Layer 1
10
35.438288
20
-67.423370
11
33.751488
21
-67.302477
0
LINE
8
Layer 1
10
33.751488
20
-67.302477
11
27.811585
21
-66.698097
0
LINE
8
Layer 1
10
27.811585
20
-66.698097
11
21.817963
21
-65.707663
0
LINE
8
Layer 1
10
21.817963
20
-65.707663
11
15.857154
21
-64.348186
0
LINE
8
Layer 1
10
15.857154
20
-64.348186
11
10.015688
21
-62.636677
0
LINE
8
Layer 1
10
10.015688
20
-62.636677
11
8.215978
21
-62.127740
0
LINE
8
Layer 1
10
8.215978
20
-62.127740
11
5.851918
21
-68.611380
0
LINE
8
Layer 1
10
5.851918
20
-68.611380
11
4.355130
21
-73.279663
0
LINE
8
Layer 1
10
4.355130
20
-73.279663
11
3.157231
21
-77.572393
0
LINE
8
Layer 1
10
3.157231
20
-77.572393
11
2.173483
21
-81.821341
0
LINE
8
Layer 1
10
2.173483
20
-81.821341
11
1.319148
21
-86.358280
0
LINE
8
Layer 1
10
1.319148
20
-86.358280
11
1.068470
21
-87.826880
0
LINE
8
Layer 1
10
1.068470
20
-87.826880
11
1.299666
21
-87.868988
0
LINE
8
Layer 1
10
1.299666
20
-87.868988
11
6.272476
21
-88.468159
0
LINE
8
Layer 1
10
6.272476
20
-88.468159
11
14.071926
21
-89.006336
0
LINE
8
Layer 1
10
14.071926
20
-89.006336
11
21.580076
21
-89.033495
0
LINE
8
Layer 1
10
21.580076
20
-89.033495
11
21.580100
21
-89.033500
0
LINE
8
Layer 1
10
-0.748312
20
-85.860500
11
0.965178
21
-77.302620
0
LINE
8
Layer 1
10
0.965178
20
-77.302620
11
2.804714
21
-69.607368
0
LINE
8
Layer 1
10
2.804714
20
-69.607368
11
4.866828
21
-62.653520
0
LINE
8
Layer 1
10
4.866828
20
-62.653520
11
5.367312
21
-61.005580
0
LINE
8
Layer 1
10
5.367312
20
-61.005580
11
3.920372
21
-60.419628
0
LINE
8
Layer 1
10
3.920372
20
-60.419628
11
0.388062
21
-58.923976
0
LINE
8
Layer 1
10
0.388062
20
-58.923976
11
-3.360068
21
-57.138108
0
LINE
8
Layer 1
10
-3.360068
20
-57.138108
11
-9.292240
21
-53.961532
0
LINE
8
Layer 1
10
-9.292240
20
-53.961532
11
-14.844268
21
-50.457648
0
LINE
8
Layer 1
10
-14.844268
20
-50.457648
11
-16.265758
21
-49.532979
0
LINE
8
Layer 1
10
-16.265758
20
-49.532979
11
-18.148358
21
-51.997129
0
LINE
8
Layer 1
10
-18.148358
20
-51.997129
11
-21.915573
21
-57.295249
0
LINE
8
Layer 1
10
-21.915573
20
-57.295249
11
-25.644115
21
-62.899922
0
LINE
8
Layer 1
10
-25.644115
20
-62.899922
11
-29.100180
21
-68.448198
0
LINE
8
Layer 1
10
-29.100180
20
-68.448198
11
-32.049958
21
-73.577129
0
LINE
8
Layer 1
10
-32.049958
20
-73.577129
11
-33.877448
21
-77.209449
0
LINE
8
Layer 1
10
-33.877448
20
-77.209449
11
-29.233698
21
-79.324369
0
LINE
8
Layer 1
10
-29.233698
20
-79.324369
11
-22.784545
21
-81.868945
0
LINE
8
Layer 1
10
-22.784545
20
-81.868945
11
-16.100050
21
-84.064492
0
LINE
8
Layer 1
10
-16.100050
20
-84.064492
11
-9.291405
21
-85.877969
0
LINE
8
Layer 1
10
-9.291405
20
-85.877969
11
-2.469798
21
-87.276339
0
LINE
8
Layer 1
10
-2.469798
20
-87.276339
11
-1.302878
21
-87.458107
0
LINE
8
Layer 1
10
-1.302878
20
-87.458107
11
-1.034308
21
-87.398321
0
LINE
8
Layer 1
10
-1.034308
20
-87.398321
11
-0.748338
21
-85.860551
0
LINE
8
Layer 1
10
-0.748338
20
-85.860551
11
-0.748312
21
-85.860500
0
LINE
8
Layer 1
10
41.918500
20
-86.760100
11
49.318366
21
-85.051289
0
LINE
8
Layer 1
10
49.318366
20
-85.051289
11
56.503075
21
-82.913195
0
LINE
8
Layer 1
10
56.503075
20
-82.913195
11
63.560772
21
-80.316513
0
LINE
8
Layer 1
10
63.560772
20
-80.316513
11
70.579600
21
-77.231940
0
LINE
8
Layer 1
10
70.579600
20
-77.231940
11
75.343460
21
-74.815890
0
LINE
8
Layer 1
10
75.343460
20
-74.815890
11
74.456052
21
-72.972140
0
LINE
8
Layer 1
10
74.456052
20
-72.972140
11
72.592072
21
-68.878629
0
LINE
8
Layer 1
10
72.592072
20
-68.878629
11
71.045822
21
-64.840490
0
LINE
8
Layer 1
10
71.045822
20
-64.840490
11
70.528278
21
-63.368500
0
LINE
8
Layer 1
10
70.528278
20
-63.368500
11
69.478298
21
-63.653333
0
LINE
8
Layer 1
10
69.478298
20
-63.653333
11
62.693018
21
-65.344813
0
LINE
8
Layer 1
10
62.693018
20
-65.344813
11
55.720749
21
-66.557033
0
LINE
8
Layer 1
10
55.720749
20
-66.557033
11
48.569705
21
-67.288863
0
LINE
8
Layer 1
10
48.569705
20
-67.288863
11
41.248098
21
-67.539173
0
LINE
8
Layer 1
10
41.248098
20
-67.539173
11
38.328008
21
-67.542757
0
LINE
8
Layer 1
10
38.328008
20
-67.542757
11
38.281608
21
-68.263735
0
LINE
8
Layer 1
10
38.281608
20
-68.263735
11
38.171814
21
-72.141539
0
LINE
8
Layer 1
10
38.171814
20
-72.141539
11
38.295929
21
-76.507855
0
LINE
8
Layer 1
10
38.295929
20
-76.507855
11
38.644362
21
-81.179286
0
LINE
8
Layer 1
10
38.644362
20
-81.179286
11
39.207525
21
-85.972435
0
LINE
8
Layer 1
10
39.207525
20
-85.972435
11
39.463049
21
-87.241845
0
LINE
8
Layer 1
10
39.463049
20
-87.241845
11
41.918479
21
-86.760089
0
LINE
8
Layer 1
10
41.918479
20
-86.760089
11
41.918500
21
-86.760100
0
LINE
8
Layer 1
10
-83.653500
20
-79.003200
11
-79.997544
21
-74.222162
0
LINE
8
Layer 1
10
-79.997544
20
-74.222162
11
-76.004950
21
-69.260219
0
LINE
8
Layer 1
10
-76.004950
20
-69.260219
11
-67.484000
21
-59.369300
0
LINE
8
Layer 1
10
-67.484000
20
-59.369300
11
-66.083910
21
-57.790960
0
LINE
8
Layer 1
10
-66.083910
20
-57.790960
11
-68.407370
21
-55.459740
0
LINE
8
Layer 1
10
-68.407370
20
-55.459740
11
-71.835917
21
-51.947897
0
LINE
8
Layer 1
10
-71.835917
20
-51.947897
11
-74.952764
21
-48.512592
0
LINE
8
Layer 1
10
-74.952764
20
-48.512592
11
-77.878313
21
-45.015687
0
LINE
8
Layer 1
10
-77.878313
20
-45.015687
11
-80.732970
21
-41.319040
0
LINE
8
Layer 1
10
-80.732970
20
-41.319040
11
-83.632079
21
-37.248791
0
LINE
8
Layer 1
10
-83.632079
20
-37.248791
11
-86.129420
21
-33.455840
0
LINE
8
Layer 1
10
-86.129420
20
-33.455840
11
-86.581235
21
-32.908239
0
LINE
8
Layer 1
10
-86.581235
20
-32.908239
11
-88.120405
21
-33.780556
0
LINE
8
Layer 1
10
-88.120405
20
-33.780556
11
-97.922182
21
-39.929088
0
LINE
8
Layer 1
10
-97.922182
20
-39.929088
11
-109.654505
21
-47.842056
0
LINE
8
Layer 1
10
-109.654505
20
-47.842056
11
-114.470805
21
-51.293146
0
LINE
8
Layer 1
10
-114.470805
20
-51.293146
11
-112.163395
21
-54.349156
0
LINE
8
Layer 1
10
-112.163395
20
-54.349156
11
-106.756052
21
-60.856405
0
LINE
8
Layer 1
10
-106.756052
20
-60.856405
11
-100.845595
21
-67.120256
0
LINE
8
Layer 1
10
-100.845595
20
-67.120256
11
-97.493347
21
-70.370666
0
LINE
8
Layer 1
10
-97.493347
20
-70.370666
11
-94.115747
21
-73.439085
0
LINE
8
Layer 1
10
-94.115747
20
-73.439085
11
-90.667622
21
-76.365190
0
LINE
8
Layer 1
10
-90.667622
20
-76.365190
11
-87.103795
21
-79.188656
0
LINE
8
Layer 1
10
-87.103795
20
-79.188656
11
-85.535695
21
-80.392486
0
LINE
8
Layer 1
10
-85.535695
20
-80.392486
11
-85.012994
21
-80.735834
0
LINE
8
Layer 1
10
-85.012994
20
-80.735834
11
-83.653464
21
-79.003254
0
LINE
8
Layer 1
10
-83.653464
20
-79.003254
11
-83.653500
21
-79.003200
0
LINE
8
Layer 1
10
82.533500
20
-79.946829
11
86.161075
21
-77.119753
0
LINE
8
Layer 1
10
86.161075
20
-77.119753
11
89.704235
21
-74.161889
0
LINE
8
Layer 1
10
89.704235
20
-74.161889
11
93.156730
21
-71.079397
0
LINE
8
Layer 1
10
93.156730
20
-71.079397
11
96.512311
21
-67.878438
0
LINE
8
Layer 1
10
96.512311
20
-67.878438
11
99.764729
21
-64.565171
0
LINE
8
Layer 1
10
99.764729
20
-64.565171
11
102.907732
21
-61.145757
0
LINE
8
Layer 1
10
102.907732
20
-61.145757
11
105.935073
21
-57.626357
0
LINE
8
Layer 1
10
105.935073
20
-57.626357
11
108.840500
21
-54.013129
0
LINE
8
Layer 1
10
108.840500
20
-54.013129
11
110.544996
21
-51.775386
0
LINE
8
Layer 1
10
110.544996
20
-51.775386
11
110.838780
21
-51.190059
0
LINE
8
Layer 1
10
110.838780
20
-51.190059
11
110.351481
21
-50.749042
0
LINE
8
Layer 1
10
110.351481
20
-50.749042
11
109.935144
21
-50.420527
0
LINE
8
Layer 1
10
109.935144
20
-50.420527
11
109.527954
21
-50.854076
0
LINE
8
Layer 1
10
109.527954
20
-50.854076
11
108.534530
21
-51.922326
0
LINE
8
Layer 1
10
108.534530
20
-51.922326
11
104.706738
21
-55.849908
0
LINE
8
Layer 1
10
104.706738
20
-55.849908
11
100.632450
21
-59.693566
0
LINE
8
Layer 1
10
100.632450
20
-59.693566
11
95.725427
21
-63.868193
0
LINE
8
Layer 1
10
95.725427
20
-63.868193
11
90.597313
21
-67.788810
0
LINE
8
Layer 1
10
90.597313
20
-67.788810
11
85.275342
21
-71.435704
0
LINE
8
Layer 1
10
85.275342
20
-71.435704
11
79.786750
21
-74.789166
0
LINE
8
Layer 1
10
79.786750
20
-74.789166
11
78.318740
21
-75.655218
0
LINE
8
Layer 1
10
78.318740
20
-75.655218
11
79.803595
21
-78.229568
0
LINE
8
Layer 1
10
79.803595
20
-78.229568
11
81.439870
21
-80.745408
0
LINE
8
Layer 1
10
81.439870
20
-80.745408
11
82.533550
21
-79.946776
0
LINE
8
Layer 1
10
82.533550
20
-79.946776
11
82.533500
21
-79.946829
0
LINE
8
Layer 1
10
-33.830500
20
-72.251609
11
-29.944225
21
-64.783284
0
LINE
8
Layer 1
10
-29.944225
20
-64.783284
11
-26.300590
21
-58.418809
0
LINE
8
Layer 1
10
-26.300590
20
-58.418809
11
-23.196684
21
-53.428834
0
LINE
8
Layer 1
10
-23.196684
20
-53.428834
11
-20.077740
21
-48.733309
0
LINE
8
Layer 1
10
-20.077740
20
-48.733309
11
-19.190505
21
-47.388519
0
LINE
8
Layer 1
10
-19.190505
20
-47.388519
11
-19.321179
21
-47.247004
0
LINE
8
Layer 1
10
-19.321179
20
-47.247004
11
-23.969459
21
-43.486174
0
LINE
8
Layer 1
10
-23.969459
20
-43.486174
11
-29.141885
21
-38.696285
0
LINE
8
Layer 1
10
-29.141885
20
-38.696285
11
-33.896359
21
-33.645404
0
LINE
8
Layer 1
10
-33.896359
20
-33.645404
11
-34.883699
21
-32.582564
0
LINE
8
Layer 1
10
-34.883699
20
-32.582564
11
-39.002268
21
-35.852628
0
LINE
8
Layer 1
10
-39.002268
20
-35.852628
11
-45.810799
21
-41.579984
0
LINE
8
Layer 1
10
-45.810799
20
-41.579984
11
-53.928824
21
-48.891165
0
LINE
8
Layer 1
10
-53.928824
20
-48.891165
11
-61.629699
21
-56.312184
0
LINE
8
Layer 1
10
-61.629699
20
-56.312184
11
-62.962369
21
-57.650814
0
LINE
8
Layer 1
10
-62.962369
20
-57.650814
11
-61.740799
21
-58.738144
0
LINE
8
Layer 1
10
-61.740799
20
-58.738144
11
-56.664199
21
-63.005880
0
LINE
8
Layer 1
10
-56.664199
20
-63.005880
11
-51.341797
21
-66.984331
0
LINE
8
Layer 1
10
-51.341797
20
-66.984331
11
-45.724295
21
-70.708214
0
LINE
8
Layer 1
10
-45.724295
20
-70.708214
11
-39.762399
21
-74.212244
0
LINE
8
Layer 1
10
-39.762399
20
-74.212244
11
-35.863829
21
-76.264614
0
LINE
8
Layer 1
10
-35.863829
20
-76.264614
11
-33.830469
21
-72.251644
0
LINE
8
Layer 1
10
-33.830469
20
-72.251644
11
-33.830500
21
-72.251609
0
LINE
8
Layer 1
10
78.218500
20
-73.238590
11
83.304892
21
-70.177609
0
LINE
8
Layer 1
10
83.304892
20
-70.177609
11
88.378993
21
-66.758246
0
LINE
8
Layer 1
10
88.378993
20
-66.758246
11
93.301147
21
-63.079656
0
LINE
8
Layer 1
10
93.301147
20
-63.079656
11
97.931700
21
-59.240990
0
LINE
8
Layer 1
10
97.931700
20
-59.240990
11
102.818781
21
-54.691331
0
LINE
8
Layer 1
10
102.818781
20
-54.691331
11
107.317400
21
-50.112370
0
LINE
8
Layer 1
10
107.317400
20
-50.112370
11
108.325410
21
-49.011810
0
LINE
8
Layer 1
10
108.325410
20
-49.011810
11
107.080060
21
-47.760230
0
LINE
8
Layer 1
10
107.080060
20
-47.760230
11
105.280750
21
-45.893510
0
LINE
8
Layer 1
10
105.280750
20
-45.893510
11
104.726793
21
-45.278368
0
LINE
8
Layer 1
10
104.726793
20
-45.278368
11
103.830738
21
-45.990507
0
LINE
8
Layer 1
10
103.830738
20
-45.990507
11
97.968432
21
-50.297939
0
LINE
8
Layer 1
10
97.968432
20
-50.297939
11
91.760352
21
-54.187213
0
LINE
8
Layer 1
10
91.760352
20
-54.187213
11
85.277740
21
-57.617234
0
LINE
8
Layer 1
10
85.277740
20
-57.617234
11
78.591838
21
-60.546907
0
LINE
8
Layer 1
10
78.591838
20
-60.546907
11
73.346188
21
-62.458257
0
LINE
8
Layer 1
10
73.346188
20
-62.458257
11
72.580808
21
-62.763288
0
LINE
8
Layer 1
10
72.580808
20
-62.763288
11
75.048988
21
-69.225878
0
LINE
8
Layer 1
10
75.048988
20
-69.225878
11
77.278698
21
-73.769578
0
LINE
8
Layer 1
10
77.278698
20
-73.769578
11
78.218489
21
-73.238591
0
LINE
8
Layer 1
10
78.218489
20
-73.238591
11
78.218500
21
-73.238590
0
LINE
8
Layer 1
10
47.192400
20
-65.212100
11
51.881877
21
-64.868300
0
LINE
8
Layer 1
10
51.881877
20
-64.868300
11
56.589669
21
-64.282860
0
LINE
8
Layer 1
10
56.589669
20
-64.282860
11
61.275101
21
-63.461867
0
LINE
8
Layer 1
10
61.275101
20
-63.461867
11
65.897500
21
-62.411410
0
LINE
8
Layer 1
10
65.897500
20
-62.411410
11
69.861770
21
-61.311800
0
LINE
8
Layer 1
10
69.861770
20
-61.311800
11
69.515743
21
-59.947300
0
LINE
8
Layer 1
10
69.515743
20
-59.947300
11
68.655627
21
-56.445312
0
LINE
8
Layer 1
10
68.655627
20
-56.445312
11
67.888399
21
-52.624289
0
LINE
8
Layer 1
10
67.888399
20
-52.624289
11
67.282543
21
-48.862446
0
LINE
8
Layer 1
10
67.282543
20
-48.862446
11
66.906543
21
-45.538000
0
LINE
8
Layer 1
10
66.906543
20
-45.538000
11
66.789638
21
-44.268590
0
LINE
8
Layer 1
10
66.789638
20
-44.268590
11
66.756322
21
-44.044576
0
LINE
8
Layer 1
10
66.756322
20
-44.044576
11
64.124112
21
-44.036787
0
LINE
8
Layer 1
10
64.124112
20
-44.036787
11
60.289857
21
-43.935570
0
LINE
8
Layer 1
10
60.289857
20
-43.935570
11
56.558858
21
-43.650469
0
LINE
8
Layer 1
10
56.558858
20
-43.650469
11
52.863111
21
-43.174512
0
LINE
8
Layer 1
10
52.863111
20
-43.174512
11
49.134612
21
-42.500727
0
LINE
8
Layer 1
10
49.134612
20
-42.500727
11
43.963832
21
-41.252737
0
LINE
8
Layer 1
10
43.963832
20
-41.252737
11
43.423577
21
-41.166371
0
LINE
8
Layer 1
10
43.423577
20
-41.166371
11
42.219407
21
-45.052651
0
LINE
8
Layer 1
10
42.219407
20
-45.052651
11
40.491238
21
-51.969610
0
LINE
8
Layer 1
10
40.491238
20
-51.969610
11
39.207977
21
-59.128151
0
LINE
8
Layer 1
10
39.207977
20
-59.128151
11
38.530523
21
-64.985101
0
LINE
8
Layer 1
10
38.530523
20
-64.985101
11
38.530500
21
-65.208800
0
LINE
8
Layer 1
10
38.530500
20
-65.208800
11
39.333216
21
-65.232817
0
LINE
8
Layer 1
10
39.333216
20
-65.232817
11
47.192366
21
-65.212130
0
LINE
8
Layer 1
10
47.192366
20
-65.212130
11
47.192400
21
-65.212100
0
LINE
8
Layer 1
10
36.100200
20
-64.112440
11
36.554274
21
-58.247035
0
LINE
8
Layer 1
10
36.554274
20
-58.247035
11
37.308153
21
-52.543603
0
LINE
8
Layer 1
10
37.308153
20
-52.543603
11
38.365266
21
-46.980813
0
LINE
8
Layer 1
10
38.365266
20
-46.980813
11
39.729040
21
-41.537340
0
LINE
8
Layer 1
10
39.729040
20
-41.537340
11
40.098663
21
-40.146940
0
LINE
8
Layer 1
10
40.098663
20
-40.146940
11
39.519961
21
-39.864870
0
LINE
8
Layer 1
10
39.519961
20
-39.864870
11
35.784359
21
-38.447182
0
LINE
8
Layer 1
10
35.784359
20
-38.447182
11
32.199411
21
-36.879429
0
LINE
8
Layer 1
10
32.199411
20
-36.879429
11
28.732513
21
-35.146351
0
LINE
8
Layer 1
10
28.732513
20
-35.146351
11
25.351061
21
-33.232690
0
LINE
8
Layer 1
10
25.351061
20
-33.232690
11
24.070351
21
-32.455908
0
LINE
8
Layer 1
10
24.070351
20
-32.455908
11
23.957804
21
-32.429828
0
LINE
8
Layer 1
10
23.957804
20
-32.429828
11
23.783387
21
-32.589360
0
LINE
8
Layer 1
10
23.783387
20
-32.589360
11
22.831051
21
-33.978788
0
LINE
8
Layer 1
10
22.831051
20
-33.978788
11
18.064137
21
-41.648778
0
LINE
8
Layer 1
10
18.064137
20
-41.648778
11
13.787731
21
-49.607488
0
LINE
8
Layer 1
10
13.787731
20
-49.607488
11
10.856780
21
-55.761342
0
LINE
8
Layer 1
10
10.856780
20
-55.761342
11
9.429241
21
-59.189538
0
LINE
8
Layer 1
10
9.429241
20
-59.189538
11
13.426141
21
-60.622058
0
LINE
8
Layer 1
10
13.426141
20
-60.622058
11
18.733959
21
-62.161817
0
LINE
8
Layer 1
10
18.733959
20
-62.161817
11
24.114293
21
-63.397254
0
LINE
8
Layer 1
10
24.114293
20
-63.397254
11
29.595926
21
-64.334126
0
LINE
8
Layer 1
10
29.595926
20
-64.334126
11
35.207641
21
-64.978188
0
LINE
8
Layer 1
10
35.207641
20
-64.978188
11
36.002838
21
-65.054109
0
LINE
8
Layer 1
10
36.002838
20
-65.054109
11
36.100148
21
-64.112368
0
LINE
8
Layer 1
10
36.100148
20
-64.112368
11
36.100200
21
-64.112440
0
LINE
8
Layer 1
10
73.106200
20
-60.293790
11
77.026832
21
-58.877228
0
LINE
8
Layer 1
10
77.026832
20
-58.877228
11
80.858911
21
-57.307988
0
LINE
8
Layer 1
10
80.858911
20
-57.307988
11
84.605938
21
-55.584178
0
LINE
8
Layer 1
10
84.605938
20
-55.584178
11
88.271412
21
-53.703908
0
LINE
8
Layer 1
10
88.271412
20
-53.703908
11
91.858836
21
-51.665285
0
LINE
8
Layer 1
10
91.858836
20
-51.665285
11
95.371708
21
-49.466419
0
LINE
8
Layer 1
10
95.371708
20
-49.466419
11
98.813529
21
-47.105418
0
LINE
8
Layer 1
10
98.813529
20
-47.105418
11
102.187800
21
-44.580390
0
LINE
8
Layer 1
10
102.187800
20
-44.580390
11
103.299390
21
-43.704012
0
LINE
8
Layer 1
10
103.299390
20
-43.704012
11
102.545911
21
-42.537252
0
LINE
8
Layer 1
10
102.545911
20
-42.537252
11
100.553474
21
-39.641745
0
LINE
8
Layer 1
10
100.553474
20
-39.641745
11
98.897921
21
-36.855872
0
LINE
8
Layer 1
10
98.897921
20
-36.855872
11
98.530987
21
-36.347412
0
LINE
8
Layer 1
10
98.530987
20
-36.347412
11
96.998147
21
-37.048621
0
LINE
8
Layer 1
10
96.998147
20
-37.048621
11
92.059345
21
-39.084741
0
LINE
8
Layer 1
10
92.059345
20
-39.084741
11
86.852062
21
-40.795921
0
LINE
8
Layer 1
10
86.852062
20
-40.795921
11
81.397496
21
-42.176014
0
LINE
8
Layer 1
10
81.397496
20
-42.176014
11
75.716847
21
-43.218871
0
LINE
8
Layer 1
10
75.716847
20
-43.218871
11
70.377857
21
-43.821841
0
LINE
8
Layer 1
10
70.377857
20
-43.821841
11
69.454994
21
-43.903025
0
LINE
8
Layer 1
10
69.454994
20
-43.903025
11
69.278854
21
-43.939525
0
LINE
8
Layer 1
10
69.278854
20
-43.939525
11
69.328167
21
-44.925453
0
LINE
8
Layer 1
10
69.328167
20
-44.925453
11
69.571370
21
-48.509321
0
LINE
8
Layer 1
10
69.571370
20
-48.509321
11
69.938930
21
-51.698872
0
LINE
8
Layer 1
10
69.938930
20
-51.698872
11
70.468128
21
-54.753713
0
LINE
8
Layer 1
10
70.468128
20
-54.753713
11
71.196247
21
-57.933453
0
LINE
8
Layer 1
10
71.196247
20
-57.933453
11
71.972716
21
-60.658953
0
LINE
8
Layer 1
10
71.972716
20
-60.658953
11
73.106156
21
-60.293848
0
LINE
8
Layer 1
10
73.106156
20
-60.293848
11
73.106200
21
-60.293790
0
LINE
8
Layer 1
10
6.751470
20
-57.242300
11
9.519010
21
-50.391650
0
LINE
8
Layer 1
10
9.519010
20
-50.391650
11
11.768500
21
-45.508810
0
LINE
8
Layer 1
10
11.768500
20
-45.508810
11
14.204451
21
-40.709779
0
LINE
8
Layer 1
10
14.204451
20
-40.709779
11
16.802531
21
-36.040308
0
LINE
8
Layer 1
10
16.802531
20
-36.040308
11
19.538410
21
-31.546150
0
LINE
8
Layer 1
10
19.538410
20
-31.546150
11
20.460045
21
-30.078010
0
LINE
8
Layer 1
10
20.460045
20
-30.078010
11
19.381205
21
-29.263842
0
LINE
8
Layer 1
10
19.381205
20
-29.263842
11
14.769901
21
-25.569456
0
LINE
8
Layer 1
10
14.769901
20
-25.569456
11
10.533815
21
-21.652252
0
LINE
8
Layer 1
10
10.533815
20
-21.652252
11
9.904149
21
-21.015359
0
LINE
8
Layer 1
10
9.904149
20
-21.015359
11
9.115059
21
-21.739050
0
LINE
8
Layer 1
10
9.115059
20
-21.739050
11
1.995588
21
-28.556582
0
LINE
8
Layer 1
10
1.995588
20
-28.556582
11
-4.556441
21
-35.422250
0
LINE
8
Layer 1
10
-4.556441
20
-35.422250
11
-9.421999
21
-40.956157
0
LINE
8
Layer 1
10
-9.421999
20
-40.956157
11
-13.554071
21
-45.985150
0
LINE
8
Layer 1
10
-13.554071
20
-45.985150
11
-13.973355
21
-46.563383
0
LINE
8
Layer 1
10
-13.973355
20
-46.563383
11
-13.921087
21
-46.749021
0
LINE
8
Layer 1
10
-13.921087
20
-46.749021
11
-12.352067
21
-47.854681
0
LINE
8
Layer 1
10
-12.352067
20
-47.854681
11
-8.936559
21
-50.126719
0
LINE
8
Layer 1
10
-8.936559
20
-50.126719
11
-5.323212
21
-52.311816
0
LINE
8
Layer 1
10
-5.323212
20
-52.311816
11
-1.632218
21
-54.340635
0
LINE
8
Layer 1
10
-1.632218
20
-54.340635
11
2.016233
21
-56.143841
0
LINE
8
Layer 1
10
2.016233
20
-56.143841
11
6.384503
21
-58.043281
0
LINE
8
Layer 1
10
6.384503
20
-58.043281
11
6.751445
21
-57.242358
0
LINE
8
Layer 1
10
6.751445
20
-57.242358
11
6.751470
21
-57.242300
0
LINE
8
Layer 1
10
-64.423000
20
-55.959300
11
-63.093640
21
-54.447210
0
LINE
8
Layer 1
10
-63.093640
20
-54.447210
11
-58.064585
21
-49.002397
0
LINE
8
Layer 1
10
-58.064585
20
-49.002397
11
-52.884602
21
-43.697454
0
LINE
8
Layer 1
10
-52.884602
20
-43.697454
11
-47.582913
21
-38.561514
0
LINE
8
Layer 1
10
-47.582913
20
-38.561514
11
-42.188740
21
-33.623710
0
LINE
8
Layer 1
10
-42.188740
20
-33.623710
11
-37.714830
21
-29.736310
0
LINE
8
Layer 1
10
-37.714830
20
-29.736310
11
-37.387263
21
-29.466226
0
LINE
8
Layer 1
10
-37.387263
20
-29.466226
11
-38.612123
21
-27.832086
0
LINE
8
Layer 1
10
-38.612123
20
-27.832086
11
-41.056447
21
-24.423778
0
LINE
8
Layer 1
10
-41.056447
20
-24.423778
11
-43.372538
21
-20.903900
0
LINE
8
Layer 1
10
-43.372538
20
-20.903900
11
-45.490764
21
-17.383014
0
LINE
8
Layer 1
10
-45.490764
20
-17.383014
11
-47.341493
21
-13.971686
0
LINE
8
Layer 1
10
-47.341493
20
-13.971686
11
-47.878683
21
-13.019630
0
LINE
8
Layer 1
10
-47.878683
20
-13.019630
11
-55.048403
21
-16.369690
0
LINE
8
Layer 1
10
-55.048403
20
-16.369690
11
-67.778169
21
-22.692379
0
LINE
8
Layer 1
10
-67.778169
20
-22.692379
11
-80.159403
21
-29.297690
0
LINE
8
Layer 1
10
-80.159403
20
-29.297690
11
-84.378133
21
-31.702520
0
LINE
8
Layer 1
10
-84.378133
20
-31.702520
11
-82.039313
21
-35.382750
0
LINE
8
Layer 1
10
-82.039313
20
-35.382750
11
-78.376390
21
-40.573841
0
LINE
8
Layer 1
10
-78.376390
20
-40.573841
11
-74.435525
21
-45.588181
0
LINE
8
Layer 1
10
-74.435525
20
-45.588181
11
-70.273430
21
-50.357280
0
LINE
8
Layer 1
10
-70.273430
20
-50.357280
11
-65.946813
21
-54.812650
0
LINE
8
Layer 1
10
-65.946813
20
-54.812650
11
-64.575973
21
-56.100730
0
LINE
8
Layer 1
10
-64.575973
20
-56.100730
11
-64.422882
21
-55.959416
0
LINE
8
Layer 1
10
-64.422882
20
-55.959416
11
-64.423000
21
-55.959300
0
LINE
8
Layer 1
10
-114.222700
20
-48.461710
11
-103.672463
21
-41.178072
0
LINE
8
Layer 1
10
-103.672463
20
-41.178072
11
-92.592200
21
-33.986910
0
LINE
8
Layer 1
10
-92.592200
20
-33.986910
11
-87.763770
21
-30.807280
0
LINE
8
Layer 1
10
-87.763770
20
-30.807280
11
-91.430295
21
-24.127991
0
LINE
8
Layer 1
10
-91.430295
20
-24.127991
11
-94.661081
21
-17.341292
0
LINE
8
Layer 1
10
-94.661081
20
-17.341292
11
-97.433911
21
-10.497613
0
LINE
8
Layer 1
10
-97.433911
20
-10.497613
11
-99.726570
21
-3.647380
0
LINE
8
Layer 1
10
-99.726570
20
-3.647380
11
-100.170968
21
-2.206380
0
LINE
8
Layer 1
10
-100.170968
20
-2.206380
11
-106.743388
21
-3.871860
0
LINE
8
Layer 1
10
-106.743388
20
-3.871860
11
-126.044988
21
-9.631450
0
LINE
8
Layer 1
10
-126.044988
20
-9.631450
11
-134.689328
21
-12.379530
0
LINE
8
Layer 1
10
-134.689328
20
-12.379530
11
-134.081814
21
-14.183390
0
LINE
8
Layer 1
10
-134.081814
20
-14.183390
11
-130.886765
21
-22.493952
0
LINE
8
Layer 1
10
-130.886765
20
-22.493952
11
-127.190964
21
-30.491690
0
LINE
8
Layer 1
10
-127.190964
20
-30.491690
11
-122.916464
21
-38.465832
0
LINE
8
Layer 1
10
-122.916464
20
-38.465832
11
-118.217464
21
-45.985190
0
LINE
8
Layer 1
10
-118.217464
20
-45.985190
11
-115.753524
21
-49.531970
0
LINE
8
Layer 1
10
-115.753524
20
-49.531970
11
-114.222764
21
-48.461690
0
LINE
8
Layer 1
10
-114.222764
20
-48.461690
11
-114.222700
21
-48.461710
0
LINE
8
Layer 1
10
112.821300
20
-48.630975
11
117.943290
21
-40.796345
0
LINE
8
Layer 1
10
117.943290
20
-40.796345
11
118.486517
21
-39.892394
0
LINE
8
Layer 1
10
118.486517
20
-39.892394
11
118.574608
21
-39.686506
0
LINE
8
Layer 1
10
118.574608
20
-39.686506
11
117.004335
21
-41.760000
0
LINE
8
Layer 1
10
117.004335
20
-41.760000
11
112.319795
21
-47.658130
0
LINE
8
Layer 1
10
112.319795
20
-47.658130
11
111.346248
21
-48.807570
0
LINE
8
Layer 1
10
111.346248
20
-48.807570
11
111.732791
21
-49.131180
0
LINE
8
Layer 1
10
111.732791
20
-49.131180
11
112.192900
21
-49.431978
0
LINE
8
Layer 1
10
112.192900
20
-49.431978
11
112.821296
21
-48.630973
0
LINE
8
Layer 1
10
112.821296
20
-48.630973
11
112.821300
21
-48.630975
0
LINE
8
Layer 1
10
111.256810
20
-45.612895
11
114.027698
21
-42.164847
0
LINE
8
Layer 1
10
114.027698
20
-42.164847
11
116.666680
21
-38.624919
0
LINE
8
Layer 1
10
116.666680
20
-38.624919
11
119.172140
21
-34.995750
0
LINE
8
Layer 1
10
119.172140
20
-34.995750
11
121.542461
21
-31.279980
0
LINE
8
Layer 1
10
121.542461
20
-31.279980
11
123.776026
21
-27.480250
0
LINE
8
Layer 1
10
123.776026
20
-27.480250
11
125.871217
21
-23.599199
0
LINE
8
Layer 1
10
125.871217
20
-23.599199
11
127.826417
21
-19.639467
0
LINE
8
Layer 1
10
127.826417
20
-19.639467
11
129.640010
21
-15.603695
0
LINE
8
Layer 1
10
129.640010
20
-15.603695
11
130.282505
21
-14.019945
0
LINE
8
Layer 1
10
130.282505
20
-14.019945
11
129.775852
21
-14.907152
0
LINE
8
Layer 1
10
129.775852
20
-14.907152
11
127.584927
21
-18.807684
0
LINE
8
Layer 1
10
127.584927
20
-18.807684
11
125.167765
21
-22.660465
0
LINE
8
Layer 1
10
125.167765
20
-22.660465
11
122.545480
21
-26.439070
0
LINE
8
Layer 1
10
122.545480
20
-26.439070
11
119.739183
21
-30.117077
0
LINE
8
Layer 1
10
119.739183
20
-30.117077
11
116.769989
21
-33.668062
0
LINE
8
Layer 1
10
116.769989
20
-33.668062
11
113.659011
21
-37.065602
0
LINE
8
Layer 1
10
113.659011
20
-37.065602
11
110.427360
21
-40.283273
0
LINE
8
Layer 1
10
110.427360
20
-40.283273
11
107.096152
21
-43.294652
0
LINE
8
Layer 1
10
107.096152
20
-43.294652
11
106.424534
21
-43.944321
0
LINE
8
Layer 1
10
106.424534
20
-43.944321
11
108.983104
21
-46.672141
0
LINE
8
Layer 1
10
108.983104
20
-46.672141
11
109.729815
21
-47.376231
0
LINE
8
Layer 1
10
109.729815
20
-47.376231
11
110.057308
21
-47.017411
0
LINE
8
Layer 1
10
110.057308
20
-47.017411
11
111.256758
21
-45.612951
0
LINE
8
Layer 1
10
111.256758
20
-45.612951
11
111.256810
21
-45.612895
0
LINE
8
Layer 1
10
-15.927190
20
-42.940385
11
-9.850680
21
-35.217185
0
LINE
8
Layer 1
10
-9.850680
20
-35.217185
11
-3.005090
21
-27.412685
0
LINE
8
Layer 1
10
-3.005090
20
-27.412685
11
5.733340
21
-18.610015
0
LINE
8
Layer 1
10
5.733340
20
-18.610015
11
6.799280
21
-17.609545
0
LINE
8
Layer 1
10
6.799280
20
-17.609545
11
6.115592
21
-16.788863
0
LINE
8
Layer 1
10
6.115592
20
-16.788863
11
3.499933
21
-13.465708
0
LINE
8
Layer 1
10
3.499933
20
-13.465708
11
1.098610
21
-10.054400
0
LINE
8
Layer 1
10
1.098610
20
-10.054400
11
0.199882
21
-8.695610
0
LINE
8
Layer 1
10
0.199882
20
-8.695610
11
-0.142673
21
-8.892697
0
LINE
8
Layer 1
10
-0.142673
20
-8.892697
11
-7.354983
21
-13.239277
0
LINE
8
Layer 1
10
-7.354983
20
-13.239277
11
-16.831816
21
-19.379814
0
LINE
8
Layer 1
10
-16.831816
20
-19.379814
11
-26.060083
21
-25.851477
0
LINE
8
Layer 1
10
-26.060083
20
-25.851477
11
-31.617473
21
-30.034587
0
LINE
8
Layer 1
10
-31.617473
20
-30.034587
11
-29.204303
21
-32.955857
0
LINE
8
Layer 1
10
-29.204303
20
-32.955857
11
-25.701601
21
-36.603263
0
LINE
8
Layer 1
10
-25.701601
20
-36.603263
11
-22.065173
21
-40.133047
0
LINE
8
Layer 1
10
-22.065173
20
-40.133047
11
-17.024863
21
-44.376057
0
LINE
8
Layer 1
10
-17.024863
20
-44.376057
11
-15.927493
21
-42.940377
0
LINE
8
Layer 1
10
-15.927493
20
-42.940377
11
-15.927190
21
-42.940385
0
LINE
8
Layer 1
10
106.369000
20
-41.095800
11
111.748817
21
-35.987428
0
LINE
8
Layer 1
10
111.748817
20
-35.987428
11
116.778351
21
-30.398161
0
LINE
8
Layer 1
10
116.778351
20
-30.398161
11
121.390910
21
-24.408089
0
LINE
8
Layer 1
10
121.390910
20
-24.408089
11
125.519800
21
-18.097300
0
LINE
8
Layer 1
10
125.519800
20
-18.097300
11
127.930909
21
-13.837915
0
LINE
8
Layer 1
10
127.930909
20
-13.837915
11
129.156860
21
-11.351200
0
LINE
8
Layer 1
10
129.156860
20
-11.351200
11
128.258937
21
-10.861624
0
LINE
8
Layer 1
10
128.258937
20
-10.861624
11
127.355877
21
-12.122654
0
LINE
8
Layer 1
10
127.355877
20
-12.122654
11
125.109987
21
-15.106686
0
LINE
8
Layer 1
10
125.109987
20
-15.106686
11
122.732104
21
-17.963806
0
LINE
8
Layer 1
10
122.732104
20
-17.963806
11
120.223325
21
-20.692983
0
LINE
8
Layer 1
10
120.223325
20
-20.692983
11
117.584751
21
-23.293186
0
LINE
8
Layer 1
10
117.584751
20
-23.293186
11
114.817480
21
-25.763386
0
LINE
8
Layer 1
10
114.817480
20
-25.763386
11
111.922611
21
-28.102551
0
LINE
8
Layer 1
10
111.922611
20
-28.102551
11
108.901244
21
-30.309650
0
LINE
8
Layer 1
10
108.901244
20
-30.309650
11
105.754477
21
-32.383654
0
LINE
8
Layer 1
10
105.754477
20
-32.383654
11
101.495527
21
-34.838354
0
LINE
8
Layer 1
10
101.495527
20
-34.838354
11
100.504863
21
-35.359790
0
LINE
8
Layer 1
10
100.504863
20
-35.359790
11
100.818437
21
-35.931309
0
LINE
8
Layer 1
10
100.818437
20
-35.931309
11
102.470564
21
-38.695251
0
LINE
8
Layer 1
10
102.470564
20
-38.695251
11
104.297417
21
-41.337109
0
LINE
8
Layer 1
10
104.297417
20
-41.337109
11
104.941823
21
-42.154579
0
LINE
8
Layer 1
10
104.941823
20
-42.154579
11
105.066704
21
-42.217796
0
LINE
8
Layer 1
10
105.066704
20
-42.217796
11
105.167987
21
-42.151675
0
LINE
8
Layer 1
10
105.167987
20
-42.151675
11
106.369087
21
-41.095845
0
LINE
8
Layer 1
10
106.369087
20
-41.095845
11
106.369000
21
-41.095800
0
LINE
8
Layer 1
10
66.651800
20
-38.686680
11
66.725659
21
-35.234326
0
LINE
8
Layer 1
10
66.725659
20
-35.234326
11
66.985070
21
-31.987870
0
LINE
8
Layer 1
10
66.985070
20
-31.987870
11
67.436398
21
-28.443677
0
LINE
8
Layer 1
10
67.436398
20
-28.443677
11
68.063824
21
-24.913795
0
LINE
8
Layer 1
10
68.063824
20
-24.913795
11
68.854375
21
-21.462100
0
LINE
8
Layer 1
10
68.854375
20
-21.462100
11
69.795080
21
-18.152470
0
LINE
8
Layer 1
10
69.795080
20
-18.152470
11
70.110012
21
-17.027650
0
LINE
8
Layer 1
10
70.110012
20
-17.027650
11
69.070682
21
-16.607198
0
LINE
8
Layer 1
10
69.070682
20
-16.607198
11
64.271626
21
-14.423300
0
LINE
8
Layer 1
10
64.271626
20
-14.423300
11
59.626912
21
-11.721678
0
LINE
8
Layer 1
10
59.626912
20
-11.721678
11
58.831853
21
-11.269364
0
LINE
8
Layer 1
10
58.831853
20
-11.269364
11
55.856433
21
-15.510134
0
LINE
8
Layer 1
10
55.856433
20
-15.510134
11
52.733072
21
-20.503697
0
LINE
8
Layer 1
10
52.733072
20
-20.503697
11
49.895047
21
-25.659443
0
LINE
8
Layer 1
10
49.895047
20
-25.659443
11
47.346265
21
-30.969784
0
LINE
8
Layer 1
10
47.346265
20
-30.969784
11
45.090633
21
-36.427134
0
LINE
8
Layer 1
10
45.090633
20
-36.427134
11
44.578536
21
-37.821414
0
LINE
8
Layer 1
10
44.578536
20
-37.821414
11
47.181261
21
-38.649438
0
LINE
8
Layer 1
10
47.181261
20
-38.649438
11
51.746976
21
-39.779904
0
LINE
8
Layer 1
10
51.746976
20
-39.779904
11
57.484675
21
-40.773873
0
LINE
8
Layer 1
10
57.484675
20
-40.773873
11
63.955776
21
-41.344624
0
LINE
8
Layer 1
10
63.955776
20
-41.344624
11
65.486536
21
-41.380012
0
LINE
8
Layer 1
10
65.486536
20
-41.380012
11
66.643936
21
-41.393248
0
LINE
8
Layer 1
10
66.643936
20
-41.393248
11
66.651800
21
-38.686680
0
LINE
8
Layer 1
10
71.385480
20
-41.279410
11
74.516457
21
-41.042004
0
LINE
8
Layer 1
10
74.516457
20
-41.042004
11
77.656878
21
-40.645323
0
LINE
8
Layer 1
10
77.656878
20
-40.645323
11
80.801376
21
-40.090716
0
LINE
8
Layer 1
10
80.801376
20
-40.090716
11
83.944584
21
-39.379530
0
LINE
8
Layer 1
10
83.944584
20
-39.379530
11
87.081135
21
-38.513114
0
LINE
8
Layer 1
10
87.081135
20
-38.513114
11
90.205663
21
-37.492817
0
LINE
8
Layer 1
10
90.205663
20
-37.492817
11
96.397180
21
-34.995970
0
LINE
8
Layer 1
10
96.397180
20
-34.995970
11
97.643090
21
-34.422608
0
LINE
8
Layer 1
10
97.643090
20
-34.422608
11
97.319009
21
-33.665277
0
LINE
8
Layer 1
10
97.319009
20
-33.665277
11
96.098496
21
-30.646503
0
LINE
8
Layer 1
10
96.098496
20
-30.646503
11
95.053026
21
-27.446813
0
LINE
8
Layer 1
10
95.053026
20
-27.446813
11
94.209079
21
-24.157155
0
LINE
8
Layer 1
10
94.209079
20
-24.157155
11
93.593129
21
-20.868477
0
LINE
8
Layer 1
10
93.593129
20
-20.868477
11
93.464560
21
-20.019059
0
LINE
8
Layer 1
10
93.464560
20
-20.019059
11
92.785647
21
-20.068081
0
LINE
8
Layer 1
10
92.785647
20
-20.068081
11
87.706971
21
-20.256063
0
LINE
8
Layer 1
10
87.706971
20
-20.256063
11
83.034187
21
-19.995643
0
LINE
8
Layer 1
10
83.034187
20
-19.995643
11
78.371750
21
-19.308723
0
LINE
8
Layer 1
10
78.371750
20
-19.308723
11
73.887197
21
-18.247653
0
LINE
8
Layer 1
10
73.887197
20
-18.247653
11
73.283360
21
-18.096337
0
LINE
8
Layer 1
10
73.283360
20
-18.096337
11
71.835760
21
-22.651287
0
LINE
8
Layer 1
10
71.835760
20
-22.651287
11
70.802135
21
-27.052441
0
LINE
8
Layer 1
10
70.802135
20
-27.052441
11
70.001137
21
-31.711060
0
LINE
8
Layer 1
10
70.001137
20
-31.711060
11
69.482451
21
-36.279742
0
LINE
8
Layer 1
10
69.482451
20
-36.279742
11
69.295760
21
-40.411087
0
LINE
8
Layer 1
10
69.295760
20
-40.411087
11
69.294631
21
-41.407178
0
LINE
8
Layer 1
10
69.294631
20
-41.407178
11
69.910668
21
-41.364921
0
LINE
8
Layer 1
10
69.910668
20
-41.364921
11
71.385428
21
-41.279430
0
LINE
8
Layer 1
10
71.385428
20
-41.279430
11
71.385480
21
-41.279410
0
LINE
8
Layer 1
10
41.736300
20
-35.178300
11
44.397091
21
-28.440264
0
LINE
8
Layer 1
10
44.397091
20
-28.440264
11
47.552820
21
-21.865226
0
LINE
8
Layer 1
10
47.552820
20
-21.865226
11
51.145139
21
-15.564525
0
LINE
8
Layer 1
10
51.145139
20
-15.564525
11
55.115700
21
-9.649500
0
LINE
8
Layer 1
10
55.115700
20
-9.649500
11
55.693208
21
-8.856499
0
LINE
8
Layer 1
10
55.693208
20
-8.856499
11
55.464346
21
-8.687301
0
LINE
8
Layer 1
10
55.464346
20
-8.687301
11
51.484256
21
-5.092521
0
LINE
8
Layer 1
10
51.484256
20
-5.092521
11
49.839776
21
-3.469381
0
LINE
8
Layer 1
10
49.839776
20
-3.469381
11
48.721416
21
-4.445508
0
LINE
8
Layer 1
10
48.721416
20
-4.445508
11
42.774596
21
-9.974427
0
LINE
8
Layer 1
10
42.774596
20
-9.974427
11
37.260616
21
-15.594808
0
LINE
8
Layer 1
10
37.260616
20
-15.594808
11
31.686511
21
-22.012766
0
LINE
8
Layer 1
10
31.686511
20
-22.012766
11
26.594116
21
-28.569608
0
LINE
8
Layer 1
10
26.594116
20
-28.569608
11
26.278809
21
-28.999624
0
LINE
8
Layer 1
10
26.278809
20
-28.999624
11
27.233713
21
-29.623563
0
LINE
8
Layer 1
10
27.233713
20
-29.623563
11
32.111552
21
-32.514238
0
LINE
8
Layer 1
10
32.111552
20
-32.514238
11
37.223833
21
-35.050433
0
LINE
8
Layer 1
10
37.223833
20
-35.050433
11
41.197793
21
-36.660623
0
LINE
8
Layer 1
10
41.197793
20
-36.660623
11
41.736383
21
-35.178333
0
LINE
8
Layer 1
10
41.736383
20
-35.178333
11
41.736300
21
-35.178300
0
LINE
8
Layer 1
10
100.942300
20
-32.722200
11
104.146941
21
-30.867065
0
LINE
8
Layer 1
10
104.146941
20
-30.867065
11
107.231060
21
-28.875543
0
LINE
8
Layer 1
10
107.231060
20
-28.875543
11
110.195416
21
-26.746995
0
LINE
8
Layer 1
10
110.195416
20
-26.746995
11
113.040768
21
-24.480785
0
LINE
8
Layer 1
10
113.040768
20
-24.480785
11
115.767873
21
-22.076277
0
LINE
8
Layer 1
10
115.767873
20
-22.076277
11
118.377491
21
-19.532835
0
LINE
8
Layer 1
10
118.377491
20
-19.532835
11
120.870380
21
-16.849821
0
LINE
8
Layer 1
10
120.870380
20
-16.849821
11
123.247300
21
-14.026600
0
LINE
8
Layer 1
10
123.247300
20
-14.026600
11
126.473540
21
-9.649940
0
LINE
8
Layer 1
10
126.473540
20
-9.649940
11
125.709204
21
-9.009680
0
LINE
8
Layer 1
10
125.709204
20
-9.009680
11
124.344254
21
-7.832290
0
LINE
8
Layer 1
10
124.344254
20
-7.832290
11
123.726013
21
-7.249315
0
LINE
8
Layer 1
10
123.726013
20
-7.249315
11
123.373529
21
-7.545208
0
LINE
8
Layer 1
10
123.373529
20
-7.545208
11
120.421662
21
-9.869215
0
LINE
8
Layer 1
10
120.421662
20
-9.869215
11
117.388560
21
-11.952349
0
LINE
8
Layer 1
10
117.388560
20
-11.952349
11
114.269546
21
-13.796749
0
LINE
8
Layer 1
10
114.269546
20
-13.796749
11
111.059945
21
-15.404553
0
LINE
8
Layer 1
10
111.059945
20
-15.404553
11
107.755079
21
-16.777902
0
LINE
8
Layer 1
10
107.755079
20
-16.777902
11
104.350273
21
-17.918934
0
LINE
8
Layer 1
10
104.350273
20
-17.918934
11
100.840848
21
-18.829790
0
LINE
8
Layer 1
10
100.840848
20
-18.829790
11
97.222129
21
-19.512608
0
LINE
8
Layer 1
10
97.222129
20
-19.512608
11
95.701439
21
-19.738676
0
LINE
8
Layer 1
10
95.701439
20
-19.738676
11
95.922526
21
-21.755216
0
LINE
8
Layer 1
10
95.922526
20
-21.755216
11
96.974854
21
-26.470852
0
LINE
8
Layer 1
10
96.974854
20
-26.470852
11
98.570346
21
-31.167956
0
LINE
8
Layer 1
10
98.570346
20
-31.167956
11
99.615016
21
-33.403926
0
LINE
8
Layer 1
10
99.615016
20
-33.403926
11
100.942316
21
-32.722239
0
LINE
8
Layer 1
10
100.942316
20
-32.722239
11
100.942300
21
-32.722200
0
LINE
8
Layer 1
10
-85.341700
20
-29.340100
11
-80.461660
21
-26.274270
0
LINE
8
Layer 1
10
-80.461660
20
-26.274270
11
-73.612523
21
-22.145546
0
LINE
8
Layer 1
10
-73.612523
20
-22.145546
11
-66.624144
21
-18.125726
0
LINE
8
Layer 1
10
-66.624144
20
-18.125726
11
-59.599898
21
-14.272904
0
LINE
8
Layer 1
10
-59.599898
20
-14.272904
11
-52.643160
21
-10.645170
0
LINE
8
Layer 1
10
-52.643160
20
-10.645170
11
-49.736910
21
-9.160680
0
LINE
8
Layer 1
10
-49.736910
20
-9.160680
11
-50.027373
21
-8.407396
0
LINE
8
Layer 1
10
-50.027373
20
-8.407396
11
-51.553154
21
-4.750741
0
LINE
8
Layer 1
10
-51.553154
20
-4.750741
11
-52.965928
21
-0.955036
0
LINE
8
Layer 1
10
-52.965928
20
-0.955036
11
-54.217002
21
2.840939
0
LINE
8
Layer 1
10
-54.217002
20
2.840939
11
-55.257683
21
6.498404
0
LINE
8
Layer 1
10
-55.257683
20
6.498404
11
-55.663476
21
7.947694
0
LINE
8
Layer 1
10
-55.663476
20
7.947694
11
-62.201076
21
6.608984
0
LINE
8
Layer 1
10
-62.201076
20
6.608984
11
-82.548976
21
2.064904
0
LINE
8
Layer 1
10
-82.548976
20
2.064904
11
-97.664076
21
-1.568666
0
LINE
8
Layer 1
10
-97.664076
20
-1.568666
11
-96.214556
21
-6.335536
0
LINE
8
Layer 1
10
-96.214556
20
-6.335536
11
-94.278104
21
-11.747986
0
LINE
8
Layer 1
10
-94.278104
20
-11.747986
11
-92.088972
21
-17.056527
0
LINE
8
Layer 1
10
-92.088972
20
-17.056527
11
-89.651982
21
-22.250223
0
LINE
8
Layer 1
10
-89.651982
20
-22.250223
11
-86.971956
21
-27.318136
0
LINE
8
Layer 1
10
-86.971956
20
-27.318136
11
-85.661916
21
-29.520936
0
LINE
8
Layer 1
10
-85.661916
20
-29.520936
11
-85.341676
21
-29.340051
0
LINE
8
Layer 1
10
-85.341676
20
-29.340051
11
-85.341700
21
-29.340100
0
LINE
8
Layer 1
10
-32.097200
20
-25.110200
11
-25.190328
21
-19.759205
0
LINE
8
Layer 1
10
-25.190328
20
-19.759205
11
-17.991322
21
-14.559144
0
LINE
8
Layer 1
10
-17.991322
20
-14.559144
11
-10.717005
21
-9.661285
0
LINE
8
Layer 1
10
-10.717005
20
-9.661285
11
-3.584200
21
-5.216900
0
LINE
8
Layer 1
10
-3.584200
20
-5.216900
11
-2.328020
21
-4.463895
0
LINE
8
Layer 1
10
-2.328020
20
-4.463895
11
-3.088264
21
-2.926325
0
LINE
8
Layer 1
10
-3.088264
20
-2.926325
11
-5.746344
21
2.788485
0
LINE
8
Layer 1
10
-5.746344
20
2.788485
11
-6.216444
21
3.922665
0
LINE
8
Layer 1
10
-6.216444
20
3.922665
11
-6.599098
21
3.782449
0
LINE
8
Layer 1
10
-6.599098
20
3.782449
11
-9.557898
21
2.710829
0
LINE
8
Layer 1
10
-9.557898
20
2.710829
11
-22.745960
21
-2.273995
0
LINE
8
Layer 1
10
-22.745960
20
-2.273995
11
-35.879498
21
-7.678571
0
LINE
8
Layer 1
10
-35.879498
20
-7.678571
11
-43.893548
21
-11.190811
0
LINE
8
Layer 1
10
-43.893548
20
-11.190811
11
-41.708568
21
-15.424911
0
LINE
8
Layer 1
10
-41.708568
20
-15.424911
11
-38.547753
21
-20.689078
0
LINE
8
Layer 1
10
-38.547753
20
-20.689078
11
-35.070468
21
-25.739511
0
LINE
8
Layer 1
10
-35.070468
20
-25.739511
11
-34.261450
21
-26.836071
0
LINE
8
Layer 1
10
-34.261450
20
-26.836071
11
-34.088318
21
-26.703768
0
LINE
8
Layer 1
10
-34.088318
20
-26.703768
11
-32.097168
21
-25.110198
0
LINE
8
Layer 1
10
-32.097168
20
-25.110198
11
-32.097200
21
-25.110200
0
LINE
8
Layer 1
10
23.633500
20
-25.472455
11
28.507122
21
-19.042017
0
LINE
8
Layer 1
10
28.507122
20
-19.042017
11
33.931934
21
-12.737246
0
LINE
8
Layer 1
10
33.931934
20
-12.737246
11
39.761203
21
-6.718805
0
LINE
8
Layer 1
10
39.761203
20
-6.718805
11
45.848200
21
-1.147355
0
LINE
8
Layer 1
10
45.848200
20
-1.147355
11
46.987210
21
-0.090615
0
LINE
8
Layer 1
10
46.987210
20
-0.090615
11
46.312341
21
0.852684
0
LINE
8
Layer 1
10
46.312341
20
0.852684
11
44.917111
21
2.832304
0
LINE
8
Layer 1
10
44.917111
20
2.832304
11
44.114946
21
3.931734
0
LINE
8
Layer 1
10
44.114946
20
3.931734
11
42.168356
21
2.800964
0
LINE
8
Layer 1
10
42.168356
20
2.800964
11
34.944462
21
-1.730886
0
LINE
8
Layer 1
10
34.944462
20
-1.730886
11
27.988534
21
-6.493095
0
LINE
8
Layer 1
10
27.988534
20
-6.493095
11
21.262191
21
-11.513099
0
LINE
8
Layer 1
10
21.262191
20
-11.513099
11
14.727056
21
-16.818336
0
LINE
8
Layer 1
10
14.727056
20
-16.818336
11
13.368646
21
-17.967206
0
LINE
8
Layer 1
10
13.368646
20
-17.967206
11
13.882967
21
-18.535773
0
LINE
8
Layer 1
10
13.882967
20
-18.535773
11
16.177867
21
-20.839227
0
LINE
8
Layer 1
10
16.177867
20
-20.839227
11
18.966537
21
-23.402503
0
LINE
8
Layer 1
10
18.966537
20
-23.402503
11
22.847887
21
-26.531813
0
LINE
8
Layer 1
10
22.847887
20
-26.531813
11
23.633489
21
-25.472453
0
LINE
8
Layer 1
10
23.633489
20
-25.472453
11
23.633500
21
-25.472455
0
LINE
8
Layer 1
10
93.101900
20
-17.732700
11
93.110197
21
-16.147080
0
LINE
8
Layer 1
10
93.110197
20
-16.147080
11
93.089262
21
-11.897209
0
LINE
8
Layer 1
10
93.089262
20
-11.897209
11
93.453774
21
-7.604970
0
LINE
8
Layer 1
10
93.453774
20
-7.604970
11
94.090514
21
-4.011435
0
LINE
8
Layer 1
10
94.090514
20
-4.011435
11
94.999901
21
-0.509700
0
LINE
8
Layer 1
10
94.999901
20
-0.509700
11
96.185502
21
2.912025
0
LINE
8
Layer 1
10
96.185502
20
2.912025
11
97.650884
21
6.265530
0
LINE
8
Layer 1
10
97.650884
20
6.265530
11
98.260941
21
7.613060
0
LINE
8
Layer 1
10
98.260941
20
7.613060
11
97.520771
21
8.073931
0
LINE
8
Layer 1
10
97.520771
20
8.073931
11
95.398750
21
9.531604
0
LINE
8
Layer 1
10
95.398750
20
9.531604
11
93.351151
21
11.240071
0
LINE
8
Layer 1
10
93.351151
20
11.240071
11
92.579079
21
11.942615
0
LINE
8
Layer 1
10
92.579079
20
11.942615
11
91.865170
21
11.241384
0
LINE
8
Layer 1
10
91.865170
20
11.241384
11
90.129220
21
9.494744
0
LINE
8
Layer 1
10
90.129220
20
9.494744
11
87.788794
21
6.979906
0
LINE
8
Layer 1
10
87.788794
20
6.979906
11
85.562828
21
4.342218
0
LINE
8
Layer 1
10
85.562828
20
4.342218
11
83.457186
21
1.590582
0
LINE
8
Layer 1
10
83.457186
20
1.590582
11
81.477730
21
-1.266101
0
LINE
8
Layer 1
10
81.477730
20
-1.266101
11
79.630323
21
-4.218928
0
LINE
8
Layer 1
10
79.630323
20
-4.218928
11
77.920827
21
-7.258998
0
LINE
8
Layer 1
10
77.920827
20
-7.258998
11
76.355105
21
-10.377408
0
LINE
8
Layer 1
10
76.355105
20
-10.377408
11
74.939020
21
-13.565256
0
LINE
8
Layer 1
10
74.939020
20
-13.565256
11
74.418474
21
-14.914975
0
LINE
8
Layer 1
10
74.418474
20
-14.914975
11
74.454987
21
-15.094956
0
LINE
8
Layer 1
10
74.454987
20
-15.094956
11
74.648139
21
-15.172806
0
LINE
8
Layer 1
10
74.648139
20
-15.172806
11
78.103820
21
-16.176266
0
LINE
8
Layer 1
10
78.103820
20
-16.176266
11
81.460112
21
-16.937904
0
LINE
8
Layer 1
10
81.460112
20
-16.937904
11
84.729768
21
-17.460190
0
LINE
8
Layer 1
10
84.729768
20
-17.460190
11
87.925539
21
-17.745596
0
LINE
8
Layer 1
10
87.925539
20
-17.745596
11
93.101909
21
-17.732727
0
LINE
8
Layer 1
10
93.101909
20
-17.732727
11
93.101900
21
-17.732700
0
LINE
8
Layer 1
10
96.985660
20
-17.384740
11
99.861889
21
-16.872159
0
LINE
8
Layer 1
10
99.861889
20
-16.872159
11
102.722485
21
-16.175748
0
LINE
8
Layer 1
10
102.722485
20
-16.175748
11
105.553287
21
-15.301309
0
LINE
8
Layer 1
10
105.553287
20
-15.301309
11
108.340135
21
-14.254644
0
LINE
8
Layer 1
10
108.340135
20
-14.254644
11
111.068867
21
-13.041553
0
LINE
8
Layer 1
10
111.068867
20
-13.041553
11
113.725322
21
-11.667837
0
LINE
8
Layer 1
10
113.725322
20
-11.667837
11
116.295340
21
-10.139299
0
LINE
8
Layer 1
10
116.295340
20
-10.139299
11
118.764760
21
-8.461740
0
LINE
8
Layer 1
10
118.764760
20
-8.461740
11
122.075090
21
-5.829000
0
LINE
8
Layer 1
10
122.075090
20
-5.829000
11
122.249215
21
-5.640851
0
LINE
8
Layer 1
10
122.249215
20
-5.640851
11
121.744421
21
-4.980138
0
LINE
8
Layer 1
10
121.744421
20
-4.980138
11
120.165390
21
-2.641527
0
LINE
8
Layer 1
10
120.165390
20
-2.641527
11
118.877471
21
-0.145498
0
LINE
8
Layer 1
10
118.877471
20
-0.145498
11
117.602651
21
3.502392
0
LINE
8
Layer 1
10
117.602651
20
3.502392
11
117.464808
21
3.931132
0
LINE
8
Layer 1
10
117.464808
20
3.931132
11
116.599301
21
3.815071
0
LINE
8
Layer 1
10
116.599301
20
3.815071
11
113.832266
21
3.657447
0
LINE
8
Layer 1
10
113.832266
20
3.657447
11
110.924291
21
3.700816
0
LINE
8
Layer 1
10
110.924291
20
3.700816
11
108.406412
21
4.030049
0
LINE
8
Layer 1
10
108.406412
20
4.030049
11
105.811003
21
4.586648
0
LINE
8
Layer 1
10
105.811003
20
4.586648
11
103.305569
21
5.327990
0
LINE
8
Layer 1
10
103.305569
20
5.327990
11
101.057611
21
6.211456
0
LINE
8
Layer 1
10
101.057611
20
6.211456
11
100.495456
21
6.467637
0
LINE
8
Layer 1
10
100.495456
20
6.467637
11
99.984456
21
5.402497
0
LINE
8
Layer 1
10
99.984456
20
5.402497
11
98.400441
21
1.695437
0
LINE
8
Layer 1
10
98.400441
20
1.695437
11
97.138056
21
-2.141776
0
LINE
8
Layer 1
10
97.138056
20
-2.141776
11
96.207606
21
-6.072652
0
LINE
8
Layer 1
10
96.207606
20
-6.072652
11
95.619396
21
-10.060703
0
LINE
8
Layer 1
10
95.619396
20
-10.060703
11
95.373705
21
-14.919950
0
LINE
8
Layer 1
10
95.373705
20
-14.919950
11
95.414188
21
-16.813271
0
LINE
8
Layer 1
10
95.414188
20
-16.813271
11
95.568782
21
-17.573313
0
LINE
8
Layer 1
10
95.568782
20
-17.573313
11
96.985682
21
-17.384783
0
LINE
8
Layer 1
10
96.985682
20
-17.384783
11
96.985660
21
-17.384740
0
LINE
8
Layer 1
10
11.400500
20
-13.497500
11
18.022042
21
-8.011509
0
LINE
8
Layer 1
10
18.022042
20
-8.011509
11
25.131017
21
-2.686191
0
LINE
8
Layer 1
10
25.131017
20
-2.686191
11
32.549260
21
2.351372
0
LINE
8
Layer 1
10
32.549260
20
2.351372
11
40.098600
21
6.974100
0
LINE
8
Layer 1
10
40.098600
20
6.974100
11
41.760890
21
7.956856
0
LINE
8
Layer 1
10
41.760890
20
7.956856
11
41.149828
21
9.429356
0
LINE
8
Layer 1
10
41.149828
20
9.429356
11
40.376060
21
10.819276
0
LINE
8
Layer 1
10
40.376060
20
10.819276
11
31.778320
21
7.255806
0
LINE
8
Layer 1
10
31.778320
20
7.255806
11
25.412077
21
4.406717
0
LINE
8
Layer 1
10
25.412077
20
4.406717
11
19.190837
21
1.450203
0
LINE
8
Layer 1
10
19.190837
20
1.450203
11
13.017564
21
-1.661234
0
LINE
8
Layer 1
10
13.017564
20
-1.661234
11
6.795220
21
-4.975094
0
LINE
8
Layer 1
10
6.795220
20
-4.975094
11
4.613950
21
-6.184054
0
LINE
8
Layer 1
10
4.613950
20
-6.184054
11
4.638331
21
-6.463490
0
LINE
8
Layer 1
10
4.638331
20
-6.463490
11
5.289330
21
-7.535414
0
LINE
8
Layer 1
10
5.289330
20
-7.535414
11
8.015110
21
-11.525304
0
LINE
8
Layer 1
10
8.015110
20
-11.525304
11
10.317280
21
-14.418964
0
LINE
8
Layer 1
10
10.317280
20
-14.418964
11
11.400450
21
-13.497529
0
LINE
8
Layer 1
10
11.400450
20
-13.497529
11
11.400500
21
-13.497500
0
LINE
8
Layer 1
10
71.712100
20
-12.737500
11
74.279787
21
-7.054495
0
LINE
8
Layer 1
10
74.279787
20
-7.054495
11
77.362333
21
-1.589051
0
LINE
8
Layer 1
10
77.362333
20
-1.589051
11
80.933987
21
3.617543
0
LINE
8
Layer 1
10
80.933987
20
3.617543
11
84.969000
21
8.524000
0
LINE
8
Layer 1
10
84.969000
20
8.524000
11
89.962120
21
13.526970
0
LINE
8
Layer 1
10
89.962120
20
13.526970
11
90.571282
21
14.100962
0
LINE
8
Layer 1
10
90.571282
20
14.100962
11
89.944388
21
14.983809
0
LINE
8
Layer 1
10
89.944388
20
14.983809
11
89.154245
21
16.071249
0
LINE
8
Layer 1
10
89.154245
20
16.071249
11
88.908845
21
16.326392
0
LINE
8
Layer 1
10
88.908845
20
16.326392
11
87.272255
21
15.336998
0
LINE
8
Layer 1
10
87.272255
20
15.336998
11
81.218463
21
11.170338
0
LINE
8
Layer 1
10
81.218463
20
11.170338
11
75.450863
21
6.586187
0
LINE
8
Layer 1
10
75.450863
20
6.586187
11
70.020383
21
1.627941
0
LINE
8
Layer 1
10
70.020383
20
1.627941
11
64.977955
21
-3.661002
0
LINE
8
Layer 1
10
64.977955
20
-3.661002
11
61.299225
21
-8.032232
0
LINE
8
Layer 1
10
61.299225
20
-8.032232
11
61.393097
21
-8.244449
0
LINE
8
Layer 1
10
61.393097
20
-8.244449
11
62.050963
21
-8.741608
0
LINE
8
Layer 1
10
62.050963
20
-8.741608
11
65.045399
21
-10.683739
0
LINE
8
Layer 1
10
65.045399
20
-10.683739
11
68.100353
21
-12.387918
0
LINE
8
Layer 1
10
68.100353
20
-12.387918
11
71.199203
21
-13.833468
0
LINE
8
Layer 1
10
71.199203
20
-13.833468
11
71.712150
21
-12.737418
0
LINE
8
Layer 1
10
71.712150
20
-12.737418
11
71.712100
21
-12.737500
0
LINE
8
Layer 1
10
-132.741900
20
-9.514620
11
-120.945617
21
-5.840734
0
LINE
8
Layer 1
10
-120.945617
20
-5.840734
11
-109.654400
21
-2.489580
0
LINE
8
Layer 1
10
-109.654400
20
-2.489580
11
-101.060430
21
0.129450
0
LINE
8
Layer 1
10
-101.060430
20
0.129450
11
-100.829634
21
0.201851
0
LINE
8
Layer 1
10
-100.829634
20
0.201851
11
-101.153693
21
1.450721
0
LINE
8
Layer 1
10
-101.153693
20
1.450721
11
-102.233429
21
6.021044
0
LINE
8
Layer 1
10
-102.233429
20
6.021044
11
-103.156585
21
10.783530
0
LINE
8
Layer 1
10
-103.156585
20
10.783530
11
-103.905176
21
15.634762
0
LINE
8
Layer 1
10
-103.905176
20
15.634762
11
-104.461213
21
20.471321
0
LINE
8
Layer 1
10
-104.461213
20
20.471321
11
-104.824544
21
25.496909
0
LINE
8
Layer 1
10
-104.824544
20
25.496909
11
-104.986947
21
29.890921
0
LINE
8
Layer 1
10
-104.986947
20
29.890921
11
-104.987511
21
30.648648
0
LINE
8
Layer 1
10
-104.987511
20
30.648648
11
-105.976905
21
30.694444
0
LINE
8
Layer 1
10
-105.976905
20
30.694444
11
-113.001162
21
30.845767
0
LINE
8
Layer 1
10
-113.001162
20
30.845767
11
-127.380105
21
30.887961
0
LINE
8
Layer 1
10
-127.380105
20
30.887961
11
-141.875000
21
30.888000
0
LINE
8
Layer 1
10
-141.875000
20
30.888000
11
-141.874718
21
29.898606
0
LINE
8
Layer 1
10
-141.874718
20
29.898606
11
-141.610871
21
23.159526
0
LINE
8
Layer 1
10
-141.610871
20
23.159526
11
-141.042308
21
16.580639
0
LINE
8
Layer 1
10
-141.042308
20
16.580639
11
-140.173490
21
10.074207
0
LINE
8
Layer 1
10
-140.173490
20
10.074207
11
-139.004700
21
3.642035
0
LINE
8
Layer 1
10
-139.004700
20
3.642035
11
-137.536221
21
-2.714074
0
LINE
8
Layer 1
10
-137.536221
20
-2.714074
11
-135.329701
21
-10.330544
0
LINE
8
Layer 1
10
-135.329701
20
-10.330544
11
-132.741801
21
-9.514632
0
LINE
8
Layer 1
10
-132.741801
20
-9.514632
11
-132.741900
21
-9.514620
0
LINE
8
Layer 1
10
130.341100
20
-9.005116
11
132.541980
21
-3.845846
0
LINE
8
Layer 1
10
132.541980
20
-3.845846
11
131.861605
21
-5.027466
0
LINE
8
Layer 1
10
131.861605
20
-5.027466
11
130.469535
21
-7.413146
0
LINE
8
Layer 1
10
130.469535
20
-7.413146
11
129.616999
21
-8.809576
0
LINE
8
Layer 1
10
129.616999
20
-8.809576
11
129.476162
21
-9.043411
0
LINE
8
Layer 1
10
129.476162
20
-9.043411
11
129.795666
21
-9.236025
0
LINE
8
Layer 1
10
129.795666
20
-9.236025
11
130.128363
21
-9.431560
0
LINE
8
Layer 1
10
130.128363
20
-9.431560
11
130.341102
21
-9.005111
0
LINE
8
Layer 1
10
130.341102
20
-9.005111
11
130.341100
21
-9.005116
0
LINE
8
Layer 1
10
128.413280
20
-6.708976
11
131.566206
21
-1.044246
0
LINE
8
Layer 1
10
131.566206
20
-1.044246
11
134.188890
21
4.806124
0
LINE
8
Layer 1
10
134.188890
20
4.806124
11
134.707450
21
6.159164
0
LINE
8
Layer 1
10
134.707450
20
6.159164
11
133.923649
21
4.909874
0
LINE
8
Layer 1
10
133.923649
20
4.909874
11
132.282892
21
2.368348
0
LINE
8
Layer 1
10
132.282892
20
2.368348
11
130.524337
21
-0.029684
0
LINE
8
Layer 1
10
130.524337
20
-0.029684
11
128.602810
21
-2.342039
0
LINE
8
Layer 1
10
128.602810
20
-2.342039
11
126.473139
21
-4.626536
0
LINE
8
Layer 1
10
126.473139
20
-4.626536
11
125.291609
21
-5.829626
0
LINE
8
Layer 1
10
125.291609
20
-5.829626
11
125.911284
21
-6.387316
0
LINE
8
Layer 1
10
125.911284
20
-6.387316
11
127.232375
21
-7.514996
0
LINE
8
Layer 1
10
127.232375
20
-7.514996
11
127.733904
21
-7.770186
0
LINE
8
Layer 1
10
127.733904
20
-7.770186
11
128.413280
21
-6.708976
0
LINE
8
Layer 1
10
128.413280
20
-6.708976
11
128.413280
21
-6.708976
0
LINE
8
Layer 1
10
-44.234720
20
-6.476577
11
-30.980282
21
-0.417760
0
LINE
8
Layer 1
10
-30.980282
20
-0.417760
11
-17.098920
21
5.313623
0
LINE
8
Layer 1
10
-17.098920
20
5.313623
11
-8.381050
21
8.602133
0
LINE
8
Layer 1
10
-8.381050
20
8.602133
11
-7.989027
21
8.825043
0
LINE
8
Layer 1
10
-7.989027
20
8.825043
11
-8.329093
21
10.023693
0
LINE
8
Layer 1
10
-8.329093
20
10.023693
11
-9.705513
21
15.281663
0
LINE
8
Layer 1
10
-9.705513
20
15.281663
11
-9.985790
21
16.513743
0
LINE
8
Layer 1
10
-9.985790
20
16.513743
11
-10.275762
21
16.501438
0
LINE
8
Layer 1
10
-10.275762
20
16.501438
11
-32.257162
21
12.624358
0
LINE
8
Layer 1
10
-32.257162
20
12.624358
11
-51.211162
21
8.897348
0
LINE
8
Layer 1
10
-51.211162
20
8.897348
11
-50.286233
21
5.254888
0
LINE
8
Layer 1
10
-50.286233
20
5.254888
11
-48.965938
21
1.008878
0
LINE
8
Layer 1
10
-48.965938
20
1.008878
11
-47.455903
21
-3.199452
0
LINE
8
Layer 1
10
-47.455903
20
-3.199452
11
-45.771143
21
-7.194362
0
LINE
8
Layer 1
10
-45.771143
20
-7.194362
11
-44.234703
21
-6.476598
0
LINE
8
Layer 1
10
-44.234703
20
-6.476598
11
-44.234720
21
-6.476577
0
LINE
8
Layer 1
10
58.917280
20
-4.730187
11
60.554470
21
-2.788737
0
LINE
8
Layer 1
10
60.554470
20
-2.788737
11
63.363595
21
0.321409
0
LINE
8
Layer 1
10
63.363595
20
0.321409
11
66.296769
21
3.309654
0
LINE
8
Layer 1
10
66.296769
20
3.309654
11
69.349020
21
6.171884
0
LINE
8
Layer 1
10
69.349020
20
6.171884
11
72.515375
21
8.903988
0
LINE
8
Layer 1
10
72.515375
20
8.903988
11
75.790860
21
11.501851
0
LINE
8
Layer 1
10
75.790860
20
11.501851
11
79.170503
21
13.961360
0
LINE
8
Layer 1
10
79.170503
20
13.961360
11
82.649331
21
16.278402
0
LINE
8
Layer 1
10
82.649331
20
16.278402
11
86.222370
21
18.448863
0
LINE
8
Layer 1
10
86.222370
20
18.448863
11
87.356330
21
19.105636
0
LINE
8
Layer 1
10
87.356330
20
19.105636
11
87.196759
21
19.434092
0
LINE
8
Layer 1
10
87.196759
20
19.434092
11
87.040451
21
19.687275
0
LINE
8
Layer 1
10
87.040451
20
19.687275
11
86.893870
21
19.717073
0
LINE
8
Layer 1
10
86.893870
20
19.717073
11
79.749410
21
16.353563
0
LINE
8
Layer 1
10
79.749410
20
16.353563
11
73.000957
21
12.759547
0
LINE
8
Layer 1
10
73.000957
20
12.759547
11
66.483519
21
8.848768
0
LINE
8
Layer 1
10
66.483519
20
8.848768
11
60.215626
21
4.632987
0
LINE
8
Layer 1
10
60.215626
20
4.632987
11
54.215810
21
0.123963
0
LINE
8
Layer 1
10
54.215810
20
0.123963
11
53.163680
21
-0.711265
0
LINE
8
Layer 1
10
53.163680
20
-0.711265
11
53.471147
21
-1.078489
0
LINE
8
Layer 1
10
53.471147
20
-1.078489
11
56.153836
21
-3.847362
0
LINE
8
Layer 1
10
56.153836
20
-3.847362
11
58.173787
21
-5.642359
0
LINE
8
Layer 1
10
58.173787
20
-5.642359
11
58.917247
21
-4.730189
0
LINE
8
Layer 1
10
58.917247
20
-4.730189
11
58.917280
21
-4.730187
0
LINE
8
Layer 1
10
124.896480
20
-3.218097
11
127.321164
21
-0.584513
0
LINE
8
Layer 1
10
127.321164
20
-0.584513
11
129.467050
21
2.102223
0
LINE
8
Layer 1
10
129.467050
20
2.102223
11
131.632649
21
5.255277
0
LINE
8
Layer 1
10
131.632649
20
5.255277
11
133.575578
21
8.612680
0
LINE
8
Layer 1
10
133.575578
20
8.612680
11
135.252132
21
12.091880
0
LINE
8
Layer 1
10
135.252132
20
12.091880
11
136.618610
21
15.610323
0
LINE
8
Layer 1
10
136.618610
20
15.610323
11
136.842206
21
16.319699
0
LINE
8
Layer 1
10
136.842206
20
16.319699
11
136.166341
21
15.401213
0
LINE
8
Layer 1
10
136.166341
20
15.401213
11
134.317379
21
13.090202
0
LINE
8
Layer 1
10
134.317379
20
13.090202
11
132.375731
21
11.120073
0
LINE
8
Layer 1
10
132.375731
20
11.120073
11
130.282129
21
9.372573
0
LINE
8
Layer 1
10
130.282129
20
9.372573
11
128.109986
21
7.869989
0
LINE
8
Layer 1
10
128.109986
20
7.869989
11
125.825478
21
6.591215
0
LINE
8
Layer 1
10
125.825478
20
6.591215
11
123.394781
21
5.515143
0
LINE
8
Layer 1
10
123.394781
20
5.515143
11
120.030741
21
4.446943
0
LINE
8
Layer 1
10
120.030741
20
4.446943
11
119.623887
21
4.222771
0
LINE
8
Layer 1
10
119.623887
20
4.222771
11
120.567491
21
1.318141
0
LINE
8
Layer 1
10
120.567491
20
1.318141
11
121.399639
21
-0.483289
0
LINE
8
Layer 1
10
121.399639
20
-0.483289
11
122.365481
21
-2.154069
0
LINE
8
Layer 1
10
122.365481
20
-2.154069
11
123.883041
21
-4.207529
0
LINE
8
Layer 1
10
123.883041
20
-4.207529
11
124.896491
21
-3.218135
0
LINE
8
Layer 1
10
124.896491
20
-3.218135
11
124.896480
21
-3.218097
0
LINE
8
Layer 1
10
3.192160
20
-1.267790
11
12.890814
21
3.910031
0
LINE
8
Layer 1
10
12.890814
20
3.910031
11
23.275860
21
8.905610
0
LINE
8
Layer 1
10
23.275860
20
8.905610
11
30.763746
21
12.144106
0
LINE
8
Layer 1
10
30.763746
20
12.144106
11
37.858460
21
14.988050
0
LINE
8
Layer 1
10
37.858460
20
14.988050
11
38.731994
21
15.316833
0
LINE
8
Layer 1
10
38.731994
20
15.316833
11
38.437157
21
16.315205
0
LINE
8
Layer 1
10
38.437157
20
16.315205
11
38.143368
21
17.168603
0
LINE
8
Layer 1
10
38.143368
20
17.168603
11
37.936978
21
17.261676
0
LINE
8
Layer 1
10
37.936978
20
17.261676
11
34.572928
21
16.393206
0
LINE
8
Layer 1
10
34.572928
20
16.393206
11
19.682817
21
12.281024
0
LINE
8
Layer 1
10
19.682817
20
12.281024
11
5.227128
21
7.801356
0
LINE
8
Layer 1
10
5.227128
20
7.801356
11
-1.329942
21
5.607436
0
LINE
8
Layer 1
10
-1.329942
20
5.607436
11
0.327438
21
1.596766
0
LINE
8
Layer 1
10
0.327438
20
1.596766
11
2.053888
21
-1.892644
0
LINE
8
Layer 1
10
2.053888
20
-1.892644
11
3.192158
21
-1.267788
0
LINE
8
Layer 1
10
3.192158
20
-1.267788
11
3.192160
21
-1.267790
0
LINE
8
Layer 1
10
-96.661740
20
1.470060
11
-79.520527
21
6.411043
0
LINE
8
Layer 1
10
-79.520527
20
6.411043
11
-61.640940
21
11.078140
0
LINE
8
Layer 1
10
-61.640940
20
11.078140
11
-56.625200
21
12.325800
0
LINE
8
Layer 1
10
-56.625200
20
12.325800
11
-56.756696
21
13.036201
0
LINE
8
Layer 1
10
-56.756696
20
13.036201
11
-57.492230
21
17.412100
0
LINE
8
Layer 1
10
-57.492230
20
17.412100
11
-58.088236
21
22.226171
0
LINE
8
Layer 1
10
-58.088236
20
22.226171
11
-58.541366
21
29.292721
0
LINE
8
Layer 1
10
-58.541366
20
29.292721
11
-58.542213
21
29.676187
0
LINE
8
Layer 1
10
-58.542213
20
29.676187
11
-60.726343
21
29.722931
0
LINE
8
Layer 1
10
-60.726343
20
29.722931
11
-67.465423
21
29.845311
0
LINE
8
Layer 1
10
-67.465423
20
29.845311
11
-97.333923
21
30.478501
0
LINE
8
Layer 1
10
-97.333923
20
30.478501
11
-101.982213
21
30.589087
0
LINE
8
Layer 1
10
-101.982213
20
30.589087
11
-102.374000
21
30.589100
0
LINE
8
Layer 1
10
-102.374000
20
30.589100
11
-102.373850
21
29.413030
0
LINE
8
Layer 1
10
-102.373850
20
29.413030
11
-102.299183
21
26.668860
0
LINE
8
Layer 1
10
-102.299183
20
26.668860
11
-101.873398
21
20.581158
0
LINE
8
Layer 1
10
-101.873398
20
20.581158
11
-101.178164
21
14.681547
0
LINE
8
Layer 1
10
-101.178164
20
14.681547
11
-100.200690
21
8.880543
0
LINE
8
Layer 1
10
-100.200690
20
8.880543
11
-98.928183
21
3.088660
0
LINE
8
Layer 1
10
-98.928183
20
3.088660
11
-98.474513
21
1.333669
0
LINE
8
Layer 1
10
-98.474513
20
1.333669
11
-98.278463
21
0.978140
0
LINE
8
Layer 1
10
-98.278463
20
0.978140
11
-96.661613
21
1.469790
0
LINE
8
Layer 1
10
-96.661613
20
1.469790
11
-96.661740
21
1.470060
0
LINE
8
Layer 1
10
50.986260
20
3.059590
11
56.570279
21
7.171069
0
LINE
8
Layer 1
10
56.570279
20
7.171069
11
62.798960
21
11.301800
0
LINE
8
Layer 1
10
62.798960
20
11.301800
11
66.919177
21
13.759915
0
LINE
8
Layer 1
10
66.919177
20
13.759915
11
71.244814
21
16.142297
0
LINE
8
Layer 1
10
71.244814
20
16.142297
11
75.590099
21
18.350586
0
LINE
8
Layer 1
10
75.590099
20
18.350586
11
79.769260
21
20.286420
0
LINE
8
Layer 1
10
79.769260
20
20.286420
11
80.470370
21
20.633985
0
LINE
8
Layer 1
10
80.470370
20
20.633985
11
73.476970
21
18.096935
0
LINE
8
Layer 1
10
73.476970
20
18.096935
11
67.538902
21
15.687488
0
LINE
8
Layer 1
10
67.538902
20
15.687488
11
61.588379
21
13.050097
0
LINE
8
Layer 1
10
61.588379
20
13.050097
11
55.703726
21
10.220951
0
LINE
8
Layer 1
10
55.703726
20
10.220951
11
49.963270
21
7.236235
0
LINE
8
Layer 1
10
49.963270
20
7.236235
11
48.299270
21
6.323526
0
LINE
8
Layer 1
10
48.299270
20
6.323526
11
48.099152
21
6.202275
0
LINE
8
Layer 1
10
48.099152
20
6.202275
11
48.747297
21
5.194725
0
LINE
8
Layer 1
10
48.747297
20
5.194725
11
50.463507
21
2.663825
0
LINE
8
Layer 1
10
50.463507
20
2.663825
11
50.986205
21
3.059633
0
LINE
8
Layer 1
10
50.986205
20
3.059633
11
50.986260
21
3.059590
0
LINE
8
Layer 1
10
116.141000
20
5.906830
11
117.055253
21
6.042545
0
LINE
8
Layer 1
10
117.055253
20
6.042545
11
116.994784
21
6.700300
0
LINE
8
Layer 1
10
116.994784
20
6.700300
11
116.902251
21
9.416255
0
LINE
8
Layer 1
10
116.902251
20
9.416255
11
116.998509
21
12.145550
0
LINE
8
Layer 1
10
116.998509
20
12.145550
11
117.537410
21
14.987066
0
LINE
8
Layer 1
10
117.537410
20
14.987066
11
118.331937
21
17.609668
0
LINE
8
Layer 1
10
118.331937
20
17.609668
11
119.398752
21
20.058761
0
LINE
8
Layer 1
10
119.398752
20
20.058761
11
120.754519
21
22.379750
0
LINE
8
Layer 1
10
120.754519
20
22.379750
11
121.970984
21
24.061763
0
LINE
8
Layer 1
10
121.970984
20
24.061763
11
123.299577
21
25.606720
0
LINE
8
Layer 1
10
123.299577
20
25.606720
11
124.737779
21
27.011938
0
LINE
8
Layer 1
10
124.737779
20
27.011938
11
126.283069
21
28.274730
0
LINE
8
Layer 1
10
126.283069
20
28.274730
11
126.910928
21
28.778112
0
LINE
8
Layer 1
10
126.910928
20
28.778112
11
123.512628
21
27.572122
0
LINE
8
Layer 1
10
123.512628
20
27.572122
11
120.312816
21
26.127980
0
LINE
8
Layer 1
10
120.312816
20
26.127980
11
117.233140
21
24.439331
0
LINE
8
Layer 1
10
117.233140
20
24.439331
11
114.289433
21
22.515667
0
LINE
8
Layer 1
10
114.289433
20
22.515667
11
111.497528
21
20.366482
0
LINE
8
Layer 1
10
111.497528
20
20.366482
11
109.622614
21
18.713206
0
LINE
8
Layer 1
10
109.622614
20
18.713206
11
107.892381
21
16.989555
0
LINE
8
Layer 1
10
107.892381
20
16.989555
11
104.628258
21
13.078942
0
LINE
8
Layer 1
10
104.628258
20
13.078942
11
102.742080
21
10.351662
0
LINE
8
Layer 1
10
102.742080
20
10.351662
11
101.702718
21
8.587382
0
LINE
8
Layer 1
10
101.702718
20
8.587382
11
104.465558
21
7.268142
0
LINE
8
Layer 1
10
104.465558
20
7.268142
11
107.945762
21
6.273165
0
LINE
8
Layer 1
10
107.945762
20
6.273165
11
111.671328
21
5.770212
0
LINE
8
Layer 1
10
111.671328
20
5.770212
11
116.140998
21
5.906833
0
LINE
8
Layer 1
10
116.140998
20
5.906833
11
116.141000
21
5.906830
0
LINE
8
Layer 1
10
120.452910
20
6.765129
11
123.627416
21
7.912681
0
LINE
8
Layer 1
10
123.627416
20
7.912681
11
126.629654
21
9.465879
0
LINE
8
Layer 1
10
126.629654
20
9.465879
11
129.416445
21
11.398720
0
LINE
8
Layer 1
10
129.416445
20
11.398720
11
131.944610
21
13.685199
0
LINE
8
Layer 1
10
131.944610
20
13.685199
11
133.567511
21
15.498980
0
LINE
8
Layer 1
10
133.567511
20
15.498980
11
134.967670
21
17.409879
0
LINE
8
Layer 1
10
134.967670
20
17.409879
11
136.099414
21
19.268901
0
LINE
8
Layer 1
10
136.099414
20
19.268901
11
137.060350
21
21.151313
0
LINE
8
Layer 1
10
137.060350
20
21.151313
11
137.751556
21
22.843110
0
LINE
8
Layer 1
10
137.751556
20
22.843110
11
138.074110
21
24.130289
0
LINE
8
Layer 1
10
138.074110
20
24.130289
11
138.291686
21
29.907339
0
LINE
8
Layer 1
10
138.291686
20
29.907339
11
138.291663
21
30.756088
0
LINE
8
Layer 1
10
138.291663
20
30.756088
11
137.787634
21
30.705088
0
LINE
8
Layer 1
10
137.787634
20
30.705088
11
136.350214
21
30.470226
0
LINE
8
Layer 1
10
136.350214
20
30.470226
11
133.358127
21
29.657260
0
LINE
8
Layer 1
10
133.358127
20
29.657260
11
130.560950
21
28.451252
0
LINE
8
Layer 1
10
130.560950
20
28.451252
11
127.990056
21
26.881927
0
LINE
8
Layer 1
10
127.990056
20
26.881927
11
125.676818
21
24.979009
0
LINE
8
Layer 1
10
125.676818
20
24.979009
11
123.652612
21
22.772226
0
LINE
8
Layer 1
10
123.652612
20
22.772226
11
121.948810
21
20.291300
0
LINE
8
Layer 1
10
121.948810
20
20.291300
11
120.596786
21
17.565959
0
LINE
8
Layer 1
10
120.596786
20
17.565959
11
119.627914
21
14.625926
0
LINE
8
Layer 1
10
119.627914
20
14.625926
11
119.073880
21
11.378239
0
LINE
8
Layer 1
10
119.073880
20
11.378239
11
119.018374
21
8.171526
0
LINE
8
Layer 1
10
119.018374
20
8.171526
11
119.145075
21
6.758629
0
LINE
8
Layer 1
10
119.145075
20
6.758629
11
119.315788
21
6.471356
0
LINE
8
Layer 1
10
119.315788
20
6.471356
11
120.452898
21
6.765104
0
LINE
8
Layer 1
10
120.452898
20
6.765104
11
120.452910
21
6.765129
0
LINE
8
Layer 1
10
100.151000
20
10.751800
11
102.741235
21
14.413389
0
LINE
8
Layer 1
10
102.741235
20
14.413389
11
105.828880
21
17.965640
0
LINE
8
Layer 1
10
105.828880
20
17.965640
11
109.284310
21
21.272671
0
LINE
8
Layer 1
10
109.284310
20
21.272671
11
112.977900
21
24.198600
0
LINE
8
Layer 1
10
112.977900
20
24.198600
11
116.804800
21
26.663690
0
LINE
8
Layer 1
10
116.804800
20
26.663690
11
117.277955
21
26.955271
0
LINE
8
Layer 1
10
117.277955
20
26.955271
11
117.140819
21
26.964152
0
LINE
8
Layer 1
10
117.140819
20
26.964152
11
112.385039
21
25.121842
0
LINE
8
Layer 1
10
112.385039
20
25.121842
11
108.692311
21
23.393558
0
LINE
8
Layer 1
10
108.692311
20
23.393558
11
105.048579
21
21.374412
0
LINE
8
Layer 1
10
105.048579
20
21.374412
11
101.431727
21
19.051179
0
LINE
8
Layer 1
10
101.431727
20
19.051179
11
97.819639
21
16.410632
0
LINE
8
Layer 1
10
97.819639
20
16.410632
11
94.758119
21
13.820072
0
LINE
8
Layer 1
10
94.758119
20
13.820072
11
97.222269
21
11.490152
0
LINE
8
Layer 1
10
97.222269
20
11.490152
11
99.499739
21
9.832252
0
LINE
8
Layer 1
10
99.499739
20
9.832252
11
100.150955
21
10.751850
0
LINE
8
Layer 1
10
100.150955
20
10.751850
11
100.151000
21
10.751800
0
LINE
8
Layer 1
10
49.806100
20
12.214150
11
58.971482
21
16.511810
0
LINE
8
Layer 1
10
58.971482
20
16.511810
11
67.783900
21
20.100600
0
LINE
8
Layer 1
10
67.783900
20
20.100600
11
68.522912
21
20.409912
0
LINE
8
Layer 1
10
68.522912
20
20.409912
11
64.248415
21
19.177124
0
LINE
8
Layer 1
10
64.248415
20
19.177124
11
56.302512
21
16.628642
0
LINE
8
Layer 1
10
56.302512
20
16.628642
11
44.906212
21
12.572162
0
LINE
8
Layer 1
10
44.906212
20
12.572162
11
45.731023
21
10.638862
0
LINE
8
Layer 1
10
45.731023
20
10.638862
11
45.929194
21
10.214934
0
LINE
8
Layer 1
10
45.929194
20
10.214934
11
46.840929
21
10.697920
0
LINE
8
Layer 1
10
46.840929
20
10.697920
11
49.806129
21
12.214150
0
LINE
8
Layer 1
10
49.806129
20
12.214150
11
49.806100
21
12.214150
0
LINE
8
Layer 1
10
0.186819
20
11.594400
11
12.156612
21
15.426213
0
LINE
8
Layer 1
10
12.156612
20
15.426213
11
24.231000
21
18.863900
0
LINE
8
Layer 1
10
24.231000
20
18.863900
11
36.202200
21
21.866120
0
LINE
8
Layer 1
10
36.202200
20
21.866120
11
36.972703
21
22.039455
0
LINE
8
Layer 1
10
36.972703
20
22.039455
11
36.924144
21
22.375474
0
LINE
8
Layer 1
10
36.924144
20
22.375474
11
36.769695
21
23.181532
0
LINE
8
Layer 1
10
36.769695
20
23.181532
11
36.607262
21
23.420874
0
LINE
8
Layer 1
10
36.607262
20
23.420874
11
19.004062
21
21.063074
0
LINE
8
Layer 1
10
19.004062
20
21.063074
11
-4.761138
21
17.414934
0
LINE
8
Layer 1
10
-4.761138
20
17.414934
11
-4.220098
21
14.857105
0
LINE
8
Layer 1
10
-4.220098
20
14.857105
11
-3.088278
21
10.628024
0
LINE
8
Layer 1
10
-3.088278
20
10.628024
11
-2.923830
21
10.539957
0
LINE
8
Layer 1
10
-2.923830
20
10.539957
11
0.186950
21
11.594347
0
LINE
8
Layer 1
10
0.186950
20
11.594347
11
0.186819
21
11.594400
0
LINE
8
Layer 1
10
-45.101300
20
14.978700
11
-28.039863
21
18.577429
0
LINE
8
Layer 1
10
-28.039863
20
18.577429
11
-12.042900
21
21.560130
0
LINE
8
Layer 1
10
-12.042900
20
21.560130
11
-10.974200
21
21.779597
0
LINE
8
Layer 1
10
-10.974200
20
21.779597
11
-11.042577
21
23.129477
0
LINE
8
Layer 1
10
-11.042577
20
23.129477
11
-11.450433
21
27.863827
0
LINE
8
Layer 1
10
-11.450433
20
27.863827
11
-11.536618
21
29.282577
0
LINE
8
Layer 1
10
-11.536618
20
29.282577
11
-16.315578
21
29.297309
0
LINE
8
Layer 1
10
-16.315578
20
29.297309
11
-47.514378
21
29.551907
0
LINE
8
Layer 1
10
-47.514378
20
29.551907
11
-53.968428
21
29.587616
0
LINE
8
Layer 1
10
-53.968428
20
29.587616
11
-53.844105
21
26.130641
0
LINE
8
Layer 1
10
-53.844105
20
26.130641
11
-53.348008
21
20.508696
0
LINE
8
Layer 1
10
-53.348008
20
20.508696
11
-52.232698
21
13.415297
0
LINE
8
Layer 1
10
-52.232698
20
13.415297
11
-50.648268
21
13.724614
0
LINE
8
Layer 1
10
-50.648268
20
13.724614
11
-45.101358
21
14.978675
0
LINE
8
Layer 1
10
-45.101358
20
14.978675
11
-45.101300
21
14.978700
0
LINE
8
Layer 1
10
93.675700
20
16.666000
11
98.305320
21
20.022690
0
LINE
8
Layer 1
10
98.305320
20
20.022690
11
102.153181
21
22.421691
0
LINE
8
Layer 1
10
102.153181
20
22.421691
11
106.369810
21
24.668450
0
LINE
8
Layer 1
10
106.369810
20
24.668450
11
108.385930
21
25.702430
0
LINE
8
Layer 1
10
108.385930
20
25.702430
11
104.280302
21
24.131256
0
LINE
8
Layer 1
10
104.280302
20
24.131256
11
99.969994
21
22.259171
0
LINE
8
Layer 1
10
99.969994
20
22.259171
11
95.784154
21
20.237044
0
LINE
8
Layer 1
10
95.784154
20
20.237044
11
92.051930
21
18.215740
0
LINE
8
Layer 1
10
92.051930
20
18.215740
11
91.548206
21
17.923417
0
LINE
8
Layer 1
10
91.548206
20
17.923417
11
92.052311
21
17.181283
0
LINE
8
Layer 1
10
92.052311
20
17.181283
11
92.929011
21
16.088283
0
LINE
8
Layer 1
10
92.929011
20
16.088283
11
93.675722
21
16.666000
0
LINE
8
Layer 1
10
93.675722
20
16.666000
11
93.675700
21
16.666000
0
LINE
8
Layer 1
10
44.477000
20
17.416767
11
51.673295
21
19.817193
0
LINE
8
Layer 1
10
51.673295
20
19.817193
11
58.227500
21
21.817547
0
LINE
8
Layer 1
10
58.227500
20
21.817547
11
58.653348
21
21.951246
0
LINE
8
Layer 1
10
58.653348
20
21.951246
11
58.539894
21
21.961474
0
LINE
8
Layer 1
10
58.539894
20
21.961474
11
56.814610
21
21.627589
0
LINE
8
Layer 1
10
56.814610
20
21.627589
11
42.855410
21
18.434109
0
LINE
8
Layer 1
10
42.855410
20
18.434109
11
43.266432
21
16.999169
0
LINE
8
Layer 1
10
43.266432
20
16.999169
11
44.477002
21
17.416767
0
LINE
8
Layer 1
10
44.477002
20
17.416767
11
44.477000
21
17.416767
0
LINE
8
Layer 1
10
92.219600
20
21.647467
11
94.215740
21
22.670217
0
LINE
8
Layer 1
10
94.215740
20
22.670217
11
90.305900
21
21.167527
0
LINE
8
Layer 1
10
90.305900
20
21.167527
11
89.983586
21
21.008793
0
LINE
8
Layer 1
10
89.983586
20
21.008793
11
90.005167
21
20.799840
0
LINE
8
Layer 1
10
90.005167
20
20.799840
11
90.126762
21
20.605350
0
LINE
8
Layer 1
10
90.126762
20
20.605350
11
92.219592
21
21.647470
0
LINE
8
Layer 1
10
92.219592
20
21.647470
11
92.219600
21
21.647467
0
LINE
8
Layer 1
10
58.970200
20
22.047300
11
58.827074
21
22.053198
0
LINE
8
Layer 1
10
58.827074
20
22.053198
11
58.872193
21
22.008082
0
LINE
8
Layer 1
10
58.872193
20
22.008082
11
58.970200
21
22.047306
0
LINE
8
Layer 1
10
58.970200
20
22.047306
11
58.970200
21
22.047300
0
LINE
8
Layer 1
10
-2.787050
20
23.120000
11
16.219898
21
25.933012
0
LINE
8
Layer 1
10
16.219898
20
25.933012
11
34.124900
21
28.122700
0
LINE
8
Layer 1
10
34.124900
20
28.122700
11
35.864140
21
28.319660
0
LINE
8
Layer 1
10
35.864140
20
28.319660
11
36.147288
21
28.363433
0
LINE
8
Layer 1
10
36.147288
20
28.363433
11
36.125500
21
28.897705
0
LINE
8
Layer 1
10
36.125500
20
28.897705
11
36.103713
21
29.431979
0
LINE
8
Layer 1
10
36.103713
20
29.431979
11
34.535600
21
29.431900
0
LINE
8
Layer 1
10
34.535600
20
29.431900
11
-6.185100
21
29.204144
0
LINE
8
Layer 1
10
-6.185100
20
29.204144
11
-5.932898
21
25.212974
0
LINE
8
Layer 1
10
-5.932898
20
25.212974
11
-5.596684
21
22.674154
0
LINE
8
Layer 1
10
-5.596684
20
22.674154
11
-2.787064
21
23.119926
0
LINE
8
Layer 1
10
-2.787064
20
23.119926
11
-2.787050
21
23.120000
0
LINE
8
Layer 1
10
94.533950
20
22.748901
11
94.571285
21
22.821288
0
LINE
8
Layer 1
10
94.571285
20
22.821288
11
94.384606
21
22.748901
0
LINE
8
Layer 1
10
94.384606
20
22.748901
11
94.347271
21
22.676514
0
LINE
8
Layer 1
10
94.347271
20
22.676514
11
94.533950
21
22.748901
0
LINE
8
Layer 1
10
94.533950
20
22.748901
11
94.533950
21
22.748901
0
LINE
8
Layer 1
10
43.272150
20
23.460944
11
48.349800
21
24.506354
0
LINE
8
Layer 1
10
48.349800
20
24.506354
11
52.083360
21
25.282261
0
LINE
8
Layer 1
10
52.083360
20
25.282261
11
43.994490
21
24.343608
0
LINE
8
Layer 1
10
43.994490
20
24.343608
11
41.580630
21
24.056086
0
LINE
8
Layer 1
10
41.580630
20
24.056086
11
41.627933
21
23.719841
0
LINE
8
Layer 1
10
41.627933
20
23.719841
11
41.728618
21
23.226327
0
LINE
8
Layer 1
10
41.728618
20
23.226327
11
41.878097
21
23.152191
0
LINE
8
Layer 1
10
41.878097
20
23.152191
11
43.272157
21
23.460942
0
LINE
8
Layer 1
10
43.272157
20
23.460942
11
43.272150
21
23.460944
0
LINE
8
Layer 1
10
44.765580
20
29.207894
11
48.186025
21
29.552866
0
LINE
8
Layer 1
10
48.186025
20
29.552866
11
48.284467
21
29.580268
0
LINE
8
Layer 1
10
48.284467
20
29.580268
11
48.125311
21
29.591201
0
LINE
8
Layer 1
10
48.125311
20
29.591201
11
47.124350
21
29.577800
0
LINE
8
Layer 1
10
47.124350
20
29.577800
11
43.260110
21
29.543981
0
LINE
8
Layer 1
10
43.260110
20
29.543981
11
40.994700
21
29.544000
0
LINE
8
Layer 1
10
40.994700
20
29.544000
11
40.994700
21
29.257700
0
LINE
8
Layer 1
10
40.994700
20
29.257700
11
41.050704
21
28.913815
0
LINE
8
Layer 1
10
41.050704
20
28.913815
11
41.517400
21
28.897954
0
LINE
8
Layer 1
10
41.517400
20
28.897954
11
44.765600
21
29.207848
0
LINE
8
Layer 1
10
44.765600
20
29.207848
11
44.765580
21
29.207894
0
LINE
8
Layer 1
10
-109.974420
20
33.052524
11
-105.977410
21
33.172178
0
LINE
8
Layer 1
10
-105.977410
20
33.172178
11
-104.988016
21
33.218169
0
LINE
8
Layer 1
10
-104.988016
20
33.218169
11
-104.987452
21
33.975896
0
LINE
8
Layer 1
10
-104.987452
20
33.975896
11
-104.825014
21
38.369905
0
LINE
8
Layer 1
10
-104.825014
20
38.369905
11
-104.461718
21
43.395496
0
LINE
8
Layer 1
10
-104.461718
20
43.395496
11
-103.905636
21
48.234119
0
LINE
8
Layer 1
10
-103.905636
20
48.234119
11
-103.157485
21
53.083458
0
LINE
8
Layer 1
10
-103.157485
20
53.083458
11
-102.234581
21
57.843941
0
LINE
8
Layer 1
10
-102.234581
20
57.843941
11
-101.154238
21
62.415996
0
LINE
8
Layer 1
10
-101.154238
20
62.415996
11
-100.830222
21
63.664696
0
LINE
8
Layer 1
10
-100.830222
20
63.664696
11
-101.172981
21
63.775068
0
LINE
8
Layer 1
10
-101.172981
20
63.775068
11
-108.086811
21
65.896638
0
LINE
8
Layer 1
10
-108.086811
20
65.896638
11
-112.343071
21
67.141928
0
LINE
8
Layer 1
10
-112.343071
20
67.141928
11
-132.739171
21
73.380978
0
LINE
8
Layer 1
10
-132.739171
20
73.380978
11
-135.327091
21
74.197411
0
LINE
8
Layer 1
10
-135.327091
20
74.197411
11
-137.536851
21
66.580941
0
LINE
8
Layer 1
10
-137.536851
20
66.580941
11
-139.280390
21
58.858944
0
LINE
8
Layer 1
10
-139.280390
20
58.858944
11
-140.581662
21
51.037966
0
LINE
8
Layer 1
10
-140.581662
20
51.037966
11
-141.438470
21
43.134000
0
LINE
8
Layer 1
10
-141.438470
20
43.134000
11
-141.848621
21
35.163041
0
LINE
8
Layer 1
10
-141.848621
20
35.163041
11
-141.899432
21
32.978911
0
LINE
8
Layer 1
10
-141.899432
20
32.978911
11
-127.440000
21
32.978800
0
LINE
8
Layer 1
10
-127.440000
20
32.978800
11
-109.973700
21
33.052468
0
LINE
8
Layer 1
10
-109.973700
20
33.052468
11
-109.974420
21
33.052524
0
LINE
8
Layer 1
10
138.290580
20
33.968250
11
138.073004
21
39.736600
0
LINE
8
Layer 1
10
138.073004
20
39.736600
11
137.599225
21
41.461913
0
LINE
8
Layer 1
10
137.599225
20
41.461913
11
136.578716
21
43.698196
0
LINE
8
Layer 1
10
136.578716
20
43.698196
11
135.190609
21
46.100479
0
LINE
8
Layer 1
10
135.190609
20
46.100479
11
133.614034
21
48.323790
0
LINE
8
Layer 1
10
133.614034
20
48.323790
11
131.679620
21
50.420248
0
LINE
8
Layer 1
10
131.679620
20
50.420248
11
129.591354
21
52.351030
0
LINE
8
Layer 1
10
129.591354
20
52.351030
11
127.960181
21
53.541647
0
LINE
8
Layer 1
10
127.960181
20
53.541647
11
126.163468
21
54.657296
0
LINE
8
Layer 1
10
126.163468
20
54.657296
11
124.309182
21
55.636043
0
LINE
8
Layer 1
10
124.309182
20
55.636043
11
122.505294
21
56.415950
0
LINE
8
Layer 1
10
122.505294
20
56.415950
11
119.314724
21
57.395502
0
LINE
8
Layer 1
10
119.314724
20
57.395502
11
119.144010
21
57.108230
0
LINE
8
Layer 1
10
119.144010
20
57.108230
11
119.017310
21
55.695332
0
LINE
8
Layer 1
10
119.017310
20
55.695332
11
119.007515
21
53.396286
0
LINE
8
Layer 1
10
119.007515
20
53.396286
11
119.254822
21
51.034322
0
LINE
8
Layer 1
10
119.254822
20
51.034322
11
120.021157
21
47.864403
0
LINE
8
Layer 1
10
120.021157
20
47.864403
11
121.232766
21
44.897340
0
LINE
8
Layer 1
10
121.232766
20
44.897340
11
122.853423
21
42.171463
0
LINE
8
Layer 1
10
122.853423
20
42.171463
11
124.846902
21
39.725102
0
LINE
8
Layer 1
10
124.846902
20
39.725102
11
127.176977
21
37.596587
0
LINE
8
Layer 1
10
127.176977
20
37.596587
11
129.807423
21
35.824249
0
LINE
8
Layer 1
10
129.807423
20
35.824249
11
132.702013
21
34.446417
0
LINE
8
Layer 1
10
132.702013
20
34.446417
11
135.824522
21
33.501422
0
LINE
8
Layer 1
10
135.824522
20
33.501422
11
138.047832
21
33.136675
0
LINE
8
Layer 1
10
138.047832
20
33.136675
11
138.290512
21
33.128180
0
LINE
8
Layer 1
10
138.290512
20
33.128180
11
138.290580
21
33.968250
0
LINE
8
Layer 1
10
-92.854420
20
33.501695
11
-63.211920
21
34.102786
0
LINE
8
Layer 1
10
-63.211920
20
34.102786
11
-58.573520
21
34.196534
0
LINE
8
Layer 1
10
-58.573520
20
34.196534
11
-58.474514
21
36.152384
0
LINE
8
Layer 1
10
-58.474514
20
36.152384
11
-58.221296
21
40.244369
0
LINE
8
Layer 1
10
-58.221296
20
40.244369
11
-57.787397
21
44.328885
0
LINE
8
Layer 1
10
-57.787397
20
44.328885
11
-56.723077
21
51.011114
0
LINE
8
Layer 1
10
-56.723077
20
51.011114
11
-56.625614
21
51.544759
0
LINE
8
Layer 1
10
-56.625614
20
51.544759
11
-58.692354
21
52.053306
0
LINE
8
Layer 1
10
-58.692354
20
52.053306
11
-78.163967
21
57.092928
0
LINE
8
Layer 1
10
-78.163967
20
57.092928
11
-97.171254
21
62.551507
0
LINE
8
Layer 1
10
-97.171254
20
62.551507
11
-98.279484
21
62.889924
0
LINE
8
Layer 1
10
-98.279484
20
62.889924
11
-98.475759
21
62.532024
0
LINE
8
Layer 1
10
-98.475759
20
62.532024
11
-98.929204
21
60.778004
0
LINE
8
Layer 1
10
-98.929204
20
60.778004
11
-100.303923
21
54.430263
0
LINE
8
Layer 1
10
-100.303923
20
54.430263
11
-101.340038
21
48.024542
0
LINE
8
Layer 1
10
-101.340038
20
48.024542
11
-102.026224
21
41.644927
0
LINE
8
Layer 1
10
-102.026224
20
41.644927
11
-102.351154
21
35.375504
0
LINE
8
Layer 1
10
-102.351154
20
35.375504
11
-102.399338
21
33.254514
0
LINE
8
Layer 1
10
-102.399338
20
33.254514
11
-100.688388
21
33.305187
0
LINE
8
Layer 1
10
-100.688388
20
33.305187
11
-92.854398
21
33.501721
0
LINE
8
Layer 1
10
-92.854398
20
33.501721
11
-92.854420
21
33.501695
0
LINE
8
Layer 1
10
-40.099220
20
34.405531
11
-22.028820
21
34.535370
0
LINE
8
Layer 1
10
-22.028820
20
34.535370
11
-11.537520
21
34.584288
0
LINE
8
Layer 1
10
-11.537520
20
34.584288
11
-11.451335
21
36.003038
0
LINE
8
Layer 1
10
-11.451335
20
36.003038
11
-11.043592
21
40.736408
0
LINE
8
Layer 1
10
-11.043592
20
40.736408
11
-10.954300
21
42.087008
0
LINE
8
Layer 1
10
-10.954300
20
42.087008
11
-12.022880
21
42.307356
0
LINE
8
Layer 1
10
-12.022880
20
42.307356
11
-29.672560
21
45.624699
0
LINE
8
Layer 1
10
-29.672560
20
45.624699
11
-49.059780
21
49.779816
0
LINE
8
Layer 1
10
-49.059780
20
49.779816
11
-52.077080
21
50.464684
0
LINE
8
Layer 1
10
-52.077080
20
50.464684
11
-52.193226
21
50.438953
0
LINE
8
Layer 1
10
-52.193226
20
50.438953
11
-52.296717
21
50.168560
0
LINE
8
Layer 1
10
-52.296717
20
50.168560
11
-52.680663
21
48.025104
0
LINE
8
Layer 1
10
-52.680663
20
48.025104
11
-53.518231
21
41.790737
0
LINE
8
Layer 1
10
-53.518231
20
41.790737
11
-53.960413
21
35.562304
0
LINE
8
Layer 1
10
-53.960413
20
35.562304
11
-54.011376
21
34.225484
0
LINE
8
Layer 1
10
-54.011376
20
34.225484
11
-50.844866
21
34.275059
0
LINE
8
Layer 1
10
-50.844866
20
34.275059
11
-40.099266
21
34.405561
0
LINE
8
Layer 1
10
-40.099266
20
34.405561
11
-40.099220
21
34.405531
0
LINE
8
Layer 1
10
47.788880
20
34.369429
11
41.069540
21
34.958299
0
LINE
8
Layer 1
10
41.069540
20
34.958299
11
40.993800
21
34.618092
0
LINE
8
Layer 1
10
40.993800
20
34.618092
11
40.994700
21
34.324700
0
LINE
8
Layer 1
10
40.994700
20
34.324700
11
43.888210
21
34.304267
0
LINE
8
Layer 1
10
43.888210
20
34.304267
11
47.789780
21
34.275915
0
LINE
8
Layer 1
10
47.789780
20
34.275915
11
48.797840
21
34.268013
0
LINE
8
Layer 1
10
48.797840
20
34.268013
11
47.788880
21
34.369429
0
LINE
8
Layer 1
10
36.124580
20
34.969218
11
36.146367
21
35.503490
0
LINE
8
Layer 1
10
36.146367
20
35.503490
11
35.863222
21
35.547023
0
LINE
8
Layer 1
10
35.863222
20
35.547023
11
33.153262
21
35.855856
0
LINE
8
Layer 1
10
33.153262
20
35.855856
11
15.437500
21
38.040176
0
LINE
8
Layer 1
10
15.437500
20
38.040176
11
-2.790138
21
40.748536
0
LINE
8
Layer 1
10
-2.790138
20
40.748536
11
-5.599758
21
41.192697
0
LINE
8
Layer 1
10
-5.599758
20
41.192697
11
-5.934868
21
38.653877
0
LINE
8
Layer 1
10
-5.934868
20
38.653877
11
-6.185981
21
34.663047
0
LINE
8
Layer 1
10
-6.185981
20
34.663047
11
13.475319
21
34.553153
0
LINE
8
Layer 1
10
13.475319
20
34.553153
11
33.146519
21
34.429280
0
LINE
8
Layer 1
10
33.146519
20
34.429280
11
34.642019
21
34.414746
0
LINE
8
Layer 1
10
34.642019
20
34.414746
11
36.102799
21
34.434953
0
LINE
8
Layer 1
10
36.102799
20
34.434953
11
36.124580
21
34.969218
0
LINE
8
Layer 1
10
126.940380
20
35.094330
11
126.585689
21
35.369618
0
LINE
8
Layer 1
10
126.585689
20
35.369618
11
123.763449
21
37.792638
0
LINE
8
Layer 1
10
123.763449
20
37.792638
11
121.528972
21
40.384138
0
LINE
8
Layer 1
10
121.528972
20
40.384138
11
119.686608
21
43.277698
0
LINE
8
Layer 1
10
119.686608
20
43.277698
11
118.279826
21
46.392929
0
LINE
8
Layer 1
10
118.279826
20
46.392929
11
117.352099
21
49.649438
0
LINE
8
Layer 1
10
117.352099
20
49.649438
11
116.981266
21
51.925794
0
LINE
8
Layer 1
10
116.981266
20
51.925794
11
116.902412
21
54.446838
0
LINE
8
Layer 1
10
116.902412
20
54.446838
11
116.993146
21
57.166588
0
LINE
8
Layer 1
10
116.993146
20
57.166588
11
117.054056
21
57.824315
0
LINE
8
Layer 1
10
117.054056
20
57.824315
11
116.065139
21
57.973112
0
LINE
8
Layer 1
10
116.065139
20
57.973112
11
113.165840
21
58.099649
0
LINE
8
Layer 1
10
113.165840
20
58.099649
11
110.214019
21
57.968334
0
LINE
8
Layer 1
10
110.214019
20
57.968334
11
107.252001
21
57.442771
0
LINE
8
Layer 1
10
107.252001
20
57.442771
11
104.464329
21
56.598724
0
LINE
8
Layer 1
10
104.464329
20
56.598724
11
101.701489
21
55.268114
0
LINE
8
Layer 1
10
101.701489
20
55.268114
11
103.620739
21
52.178014
0
LINE
8
Layer 1
10
103.620739
20
52.178014
11
105.802716
21
49.267291
0
LINE
8
Layer 1
10
105.802716
20
49.267291
11
108.133876
21
46.630263
0
LINE
8
Layer 1
10
108.133876
20
46.630263
11
110.667592
21
44.211460
0
LINE
8
Layer 1
10
110.667592
20
44.211460
11
113.457239
21
41.955414
0
LINE
8
Layer 1
10
113.457239
20
41.955414
11
116.279107
21
40.016837
0
LINE
8
Layer 1
10
116.279107
20
40.016837
11
119.279591
21
38.279028
0
LINE
8
Layer 1
10
119.279591
20
38.279028
11
122.422324
21
36.761260
0
LINE
8
Layer 1
10
122.422324
20
36.761260
11
125.670939
21
35.482804
0
LINE
8
Layer 1
10
125.670939
20
35.482804
11
126.940349
21
35.094292
0
LINE
8
Layer 1
10
126.940349
20
35.094292
11
126.940380
21
35.094330
0
LINE
8
Layer 1
10
117.295900
20
36.898540
11
116.182050
21
37.577072
0
LINE
8
Layer 1
10
116.182050
20
37.577072
11
113.765144
21
39.123496
0
LINE
8
Layer 1
10
113.765144
20
39.123496
11
111.421042
21
40.835048
0
LINE
8
Layer 1
10
111.421042
20
40.835048
11
109.165932
21
42.695822
0
LINE
8
Layer 1
10
109.165932
20
42.695822
11
107.015999
21
44.689915
0
LINE
8
Layer 1
10
107.015999
20
44.689915
11
104.987428
21
46.801421
0
LINE
8
Layer 1
10
104.987428
20
46.801421
11
103.096406
21
49.014435
0
LINE
8
Layer 1
10
103.096406
20
49.014435
11
101.359118
21
51.313054
0
LINE
8
Layer 1
10
101.359118
20
51.313054
11
99.791750
21
53.681372
0
LINE
8
Layer 1
10
99.791750
20
53.681372
11
99.507493
21
54.036060
0
LINE
8
Layer 1
10
99.507493
20
54.036060
11
97.170623
21
52.329280
0
LINE
8
Layer 1
10
97.170623
20
52.329280
11
94.757063
21
50.045460
0
LINE
8
Layer 1
10
94.757063
20
50.045460
11
97.295883
21
47.865460
0
LINE
8
Layer 1
10
97.295883
20
47.865460
11
101.850823
21
44.536110
0
LINE
8
Layer 1
10
101.850823
20
44.536110
11
105.262245
21
42.364152
0
LINE
8
Layer 1
10
105.262245
20
42.364152
11
108.623808
21
40.502481
0
LINE
8
Layer 1
10
108.623808
20
40.502481
11
112.117753
21
38.857885
0
LINE
8
Layer 1
10
112.117753
20
38.857885
11
115.926323
21
37.337150
0
LINE
8
Layer 1
10
115.926323
20
37.337150
11
117.092265
21
36.919150
0
LINE
8
Layer 1
10
117.092265
20
36.919150
11
117.295853
21
36.898583
0
LINE
8
Layer 1
10
117.295853
20
36.898583
11
117.295900
21
36.898540
0
LINE
8
Layer 1
10
106.588800
20
39.089750
11
103.028116
21
40.967231
0
LINE
8
Layer 1
10
103.028116
20
40.967231
11
99.606912
21
43.001593
0
LINE
8
Layer 1
10
99.606912
20
43.001593
11
96.394753
21
45.148983
0
LINE
8
Layer 1
10
96.394753
20
45.148983
11
93.461200
21
47.365550
0
LINE
8
Layer 1
10
93.461200
20
47.365550
11
92.874754
21
47.838876
0
LINE
8
Layer 1
10
92.874754
20
47.838876
11
92.721426
21
47.643954
0
LINE
8
Layer 1
10
92.721426
20
47.643954
11
92.057434
21
46.696241
0
LINE
8
Layer 1
10
92.057434
20
46.696241
11
91.546773
21
45.943459
0
LINE
8
Layer 1
10
91.546773
20
45.943459
11
92.050497
21
45.650589
0
LINE
8
Layer 1
10
92.050497
20
45.650589
11
96.454008
21
43.312765
0
LINE
8
Layer 1
10
96.454008
20
43.312765
11
101.365427
21
40.969339
0
LINE
8
Layer 1
10
101.365427
20
40.969339
11
108.455547
21
38.139379
0
LINE
8
Layer 1
10
108.455547
20
38.139379
11
106.588767
21
39.089756
0
LINE
8
Layer 1
10
106.588767
20
39.089756
11
106.588800
21
39.089750
0
LINE
8
Layer 1
10
48.536400
20
39.324000
11
43.348230
21
40.396560
0
LINE
8
Layer 1
10
43.348230
20
40.396560
11
41.733110
21
40.656670
0
LINE
8
Layer 1
10
41.733110
20
40.656670
11
41.647425
21
39.843679
0
LINE
8
Layer 1
10
41.647425
20
39.843679
11
45.624215
21
39.331164
0
LINE
8
Layer 1
10
45.624215
20
39.331164
11
50.664525
21
38.734042
0
LINE
8
Layer 1
10
50.664525
20
38.734042
11
51.971265
21
38.594362
0
LINE
8
Layer 1
10
51.971265
20
38.594362
11
51.039275
21
38.806959
0
LINE
8
Layer 1
10
51.039275
20
38.806959
11
48.536385
21
39.324005
0
LINE
8
Layer 1
10
48.536385
20
39.324005
11
48.536400
21
39.324000
0
LINE
8
Layer 1
10
36.800700
20
40.800610
11
36.924020
21
41.491320
0
LINE
8
Layer 1
10
36.924020
20
41.491320
11
36.972579
21
41.827339
0
LINE
8
Layer 1
10
36.972579
20
41.827339
11
36.202076
21
42.001445
0
LINE
8
Layer 1
10
36.202076
20
42.001445
11
26.323086
21
44.448275
0
LINE
8
Layer 1
10
26.323086
20
44.448275
11
13.888361
21
47.924645
0
LINE
8
Layer 1
10
13.888361
20
47.924645
11
1.381486
21
51.879185
0
LINE
8
Layer 1
10
1.381486
20
51.879185
11
-3.044834
21
53.329195
0
LINE
8
Layer 1
10
-3.044834
20
53.329195
11
-4.000563
21
49.872299
0
LINE
8
Layer 1
10
-4.000563
20
49.872299
11
-4.761344
21
46.451855
0
LINE
8
Layer 1
10
-4.761344
20
46.451855
11
-1.261794
21
45.862460
0
LINE
8
Layer 1
10
-1.261794
20
45.862460
11
14.364356
21
43.473970
0
LINE
8
Layer 1
10
14.364356
20
43.473970
11
29.905906
21
41.308440
0
LINE
8
Layer 1
10
29.905906
20
41.308440
11
34.647536
21
40.679460
0
LINE
8
Layer 1
10
34.647536
20
40.679460
11
36.525392
21
40.467516
0
LINE
8
Layer 1
10
36.525392
20
40.467516
11
36.739351
21
40.558953
0
LINE
8
Layer 1
10
36.739351
20
40.558953
11
36.800716
21
40.800607
0
LINE
8
Layer 1
10
36.800716
20
40.800607
11
36.800700
21
40.800610
0
LINE
8
Layer 1
10
94.533900
20
41.117963
11
94.347221
21
41.190350
0
LINE
8
Layer 1
10
94.347221
20
41.190350
11
94.384556
21
41.117963
0
LINE
8
Layer 1
10
94.384556
20
41.117963
11
94.571235
21
41.045576
0
LINE
8
Layer 1
10
94.571235
20
41.045576
11
94.533900
21
41.117963
0
LINE
8
Layer 1
10
94.533900
20
41.117963
11
94.533900
21
41.117963
0
LINE
8
Layer 1
10
92.219090
20
42.220033
11
90.126260
21
43.262693
0
LINE
8
Layer 1
10
90.126260
20
43.262693
11
90.005017
21
43.067901
0
LINE
8
Layer 1
10
90.005017
20
43.067901
11
89.923147
21
42.851011
0
LINE
8
Layer 1
10
89.923147
20
42.851011
11
91.649817
21
42.174488
0
LINE
8
Layer 1
10
91.649817
20
42.174488
11
93.749847
21
41.349372
0
LINE
8
Layer 1
10
93.749847
20
41.349372
11
94.133582
21
41.210220
0
LINE
8
Layer 1
10
94.133582
20
41.210220
11
94.027965
21
41.296662
0
LINE
8
Layer 1
10
94.027965
20
41.296662
11
92.219087
21
42.220038
0
LINE
8
Layer 1
10
92.219087
20
42.220038
11
92.219090
21
42.220033
0
LINE
8
Layer 1
10
58.953090
20
41.831794
11
57.198310
21
42.352327
0
LINE
8
Layer 1
10
57.198310
20
42.352327
11
45.527010
21
46.088977
0
LINE
8
Layer 1
10
45.527010
20
46.088977
11
43.254140
21
46.837227
0
LINE
8
Layer 1
10
43.254140
20
46.837227
11
42.857711
21
45.413847
0
LINE
8
Layer 1
10
42.857711
20
45.413847
11
57.609011
21
42.064767
0
LINE
8
Layer 1
10
57.609011
20
42.064767
11
58.763370
21
41.830805
0
LINE
8
Layer 1
10
58.763370
20
41.830805
11
58.979558
21
41.801801
0
LINE
8
Layer 1
10
58.979558
20
41.801801
11
58.953101
21
41.831793
0
LINE
8
Layer 1
10
58.953101
20
41.831793
11
58.953090
21
41.831794
0
LINE
8
Layer 1
10
80.495790
20
43.258964
11
76.663180
21
45.006285
0
LINE
8
Layer 1
10
76.663180
20
45.006285
11
72.574759
21
47.039080
0
LINE
8
Layer 1
10
72.574759
20
47.039080
11
64.628190
21
51.446324
0
LINE
8
Layer 1
10
64.628190
20
51.446324
11
57.468419
21
56.072574
0
LINE
8
Layer 1
10
57.468419
20
56.072574
11
50.976890
21
60.814834
0
LINE
8
Layer 1
10
50.976890
20
60.814834
11
50.446708
21
61.193156
0
LINE
8
Layer 1
10
50.446708
20
61.193156
11
48.111698
21
57.649366
0
LINE
8
Layer 1
10
48.111698
20
57.649366
11
55.630328
21
53.696086
0
LINE
8
Layer 1
10
55.630328
20
53.696086
11
61.356296
21
50.929680
0
LINE
8
Layer 1
10
61.356296
20
50.929680
11
67.002544
21
48.408012
0
LINE
8
Layer 1
10
67.002544
20
48.408012
11
72.721709
21
46.065769
0
LINE
8
Layer 1
10
72.721709
20
46.065769
11
78.666428
21
43.837636
0
LINE
8
Layer 1
10
78.666428
20
43.837636
11
80.495837
21
43.202036
0
LINE
8
Layer 1
10
80.495837
20
43.202036
11
80.738826
21
43.139408
0
LINE
8
Layer 1
10
80.738826
20
43.139408
11
80.495868
21
43.258957
0
LINE
8
Layer 1
10
80.495868
20
43.258957
11
80.495790
21
43.258964
0
LINE
8
Layer 1
10
68.542190
20
43.461360
11
66.905640
21
44.105207
0
LINE
8
Layer 1
10
66.905640
20
44.105207
11
61.727519
21
46.180589
0
LINE
8
Layer 1
10
61.727519
20
46.180589
11
56.559008
21
48.427407
0
LINE
8
Layer 1
10
56.559008
20
48.427407
11
51.547587
21
50.779044
0
LINE
8
Layer 1
10
51.547587
20
50.779044
11
46.840740
21
53.168887
0
LINE
8
Layer 1
10
46.840740
20
53.168887
11
45.929005
21
53.651876
0
LINE
8
Layer 1
10
45.929005
20
53.651876
11
45.730834
21
53.227942
0
LINE
8
Layer 1
10
45.730834
20
53.227942
11
44.901051
21
51.299612
0
LINE
8
Layer 1
10
44.901051
20
51.299612
11
51.784721
21
48.773422
0
LINE
8
Layer 1
10
51.784721
20
48.773422
11
59.028402
21
46.334761
0
LINE
8
Layer 1
10
59.028402
20
46.334761
11
66.681621
21
43.962362
0
LINE
8
Layer 1
10
66.681621
20
43.962362
11
68.542181
21
43.461362
0
LINE
8
Layer 1
10
68.542181
20
43.461362
11
68.542190
21
43.461360
0
LINE
8
Layer 1
10
87.197190
20
44.434284
11
87.357263
21
44.763756
0
LINE
8
Layer 1
10
87.357263
20
44.763756
11
86.036003
21
45.531905
0
LINE
8
Layer 1
10
86.036003
20
45.531905
11
82.450477
21
47.719271
0
LINE
8
Layer 1
10
82.450477
20
47.719271
11
78.957323
21
50.057501
0
LINE
8
Layer 1
10
78.957323
20
50.057501
11
75.562953
21
52.541260
0
LINE
8
Layer 1
10
75.562953
20
52.541260
11
72.273777
21
55.165210
0
LINE
8
Layer 1
10
72.273777
20
55.165210
11
69.096203
21
57.924016
0
LINE
8
Layer 1
10
69.096203
20
57.924016
11
66.036643
21
60.812341
0
LINE
8
Layer 1
10
66.036643
20
60.812341
11
63.101506
21
63.824850
0
LINE
8
Layer 1
10
63.101506
20
63.824850
11
60.297203
21
66.956205
0
LINE
8
Layer 1
10
60.297203
20
66.956205
11
58.656753
21
68.907755
0
LINE
8
Layer 1
10
58.656753
20
68.907755
11
58.136378
21
69.554139
0
LINE
8
Layer 1
10
58.136378
20
69.554139
11
57.611355
21
69.097860
0
LINE
8
Layer 1
10
57.611355
20
69.097860
11
53.481145
21
64.963450
0
LINE
8
Layer 1
10
53.481145
20
64.963450
11
53.163335
21
64.578087
0
LINE
8
Layer 1
10
53.163335
20
64.578087
11
54.191445
21
63.762647
0
LINE
8
Layer 1
10
54.191445
20
63.762647
11
61.182683
21
58.561976
0
LINE
8
Layer 1
10
61.182683
20
58.561976
11
68.566204
21
53.725031
0
LINE
8
Layer 1
10
68.566204
20
53.725031
11
76.225145
21
49.323594
0
LINE
8
Layer 1
10
76.225145
20
49.323594
11
84.042645
21
45.429447
0
LINE
8
Layer 1
10
84.042645
20
45.429447
11
86.995945
21
44.110367
0
LINE
8
Layer 1
10
86.995945
20
44.110367
11
87.197138
21
44.434358
0
LINE
8
Layer 1
10
87.197138
20
44.434358
11
87.197190
21
44.434284
0
LINE
8
Layer 1
10
38.413390
20
47.478044
11
38.725666
21
48.468183
0
LINE
8
Layer 1
10
38.725666
20
48.468183
11
38.363637
21
48.688299
0
LINE
8
Layer 1
10
38.363637
20
48.688299
11
32.258410
21
51.102163
0
LINE
8
Layer 1
10
32.258410
20
51.102163
11
24.682537
21
54.330479
0
LINE
8
Layer 1
10
24.682537
20
54.330479
11
13.652545
21
59.577285
0
LINE
8
Layer 1
10
13.652545
20
59.577285
11
3.192160
21
65.133600
0
LINE
8
Layer 1
10
3.192160
20
65.133600
11
2.048210
21
65.759500
0
LINE
8
Layer 1
10
2.048210
20
65.759500
11
-0.034090
21
61.475890
0
LINE
8
Layer 1
10
-0.034090
20
61.475890
11
-1.329990
21
58.256160
0
LINE
8
Layer 1
10
-1.329990
20
58.256160
11
10.118110
21
54.495610
0
LINE
8
Layer 1
10
10.118110
20
54.495610
11
26.097710
21
49.751020
0
LINE
8
Layer 1
10
26.097710
20
49.751020
11
38.051310
21
46.574780
0
LINE
8
Layer 1
10
38.051310
20
46.574780
11
38.413339
21
47.478079
0
LINE
8
Layer 1
10
38.413339
20
47.478079
11
38.413390
21
47.478044
0
LINE
8
Layer 1
10
-9.743010
20
48.435739
11
-8.329990
21
53.843049
0
LINE
8
Layer 1
10
-8.329990
20
53.843049
11
-7.989611
21
55.037889
0
LINE
8
Layer 1
10
-7.989611
20
55.037889
11
-9.987061
21
55.856009
0
LINE
8
Layer 1
10
-9.987061
20
55.856009
11
-24.049620
21
61.347104
0
LINE
8
Layer 1
10
-24.049620
20
61.347104
11
-37.970061
21
67.403309
0
LINE
8
Layer 1
10
-37.970061
20
67.403309
11
-45.043671
21
70.734249
0
LINE
8
Layer 1
10
-45.043671
20
70.734249
11
-45.756634
21
71.061130
0
LINE
8
Layer 1
10
-45.756634
20
71.061130
11
-46.711993
21
68.924950
0
LINE
8
Layer 1
10
-46.711993
20
68.924950
11
-48.236374
21
64.975420
0
LINE
8
Layer 1
10
-48.236374
20
64.975420
11
-50.243624
21
58.777710
0
LINE
8
Layer 1
10
-50.243624
20
58.777710
11
-51.215441
21
54.974010
0
LINE
8
Layer 1
10
-51.215441
20
54.974010
11
-42.749021
21
53.259740
0
LINE
8
Layer 1
10
-42.749021
20
53.259740
11
-18.854221
21
48.813520
0
LINE
8
Layer 1
10
-18.854221
20
48.813520
11
-10.163311
21
47.339390
0
LINE
8
Layer 1
10
-10.163311
20
47.339390
11
-9.975438
21
47.512453
0
LINE
8
Layer 1
10
-9.975438
20
47.512453
11
-9.742958
21
48.435740
0
LINE
8
Layer 1
10
-9.742958
20
48.435740
11
-9.743010
21
48.435739
0
LINE
8
Layer 1
10
89.154290
20
47.795575
11
89.944433
21
48.883015
0
LINE
8
Layer 1
10
89.944433
20
48.883015
11
90.576418
21
49.744198
0
LINE
8
Layer 1
10
90.576418
20
49.744198
11
90.186963
21
50.131511
0
LINE
8
Layer 1
10
90.186963
20
50.131511
11
85.938038
21
54.297365
0
LINE
8
Layer 1
10
85.938038
20
54.297365
11
82.250413
21
58.553691
0
LINE
8
Layer 1
10
82.250413
20
58.553691
11
79.118228
21
62.777332
0
LINE
8
Layer 1
10
79.118228
20
62.777332
11
76.289766
21
67.240991
0
LINE
8
Layer 1
10
76.289766
20
67.240991
11
73.809051
21
71.869275
0
LINE
8
Layer 1
10
73.809051
20
71.869275
11
71.720113
21
76.586791
0
LINE
8
Layer 1
10
71.720113
20
76.586791
11
71.262967
21
77.701331
0
LINE
8
Layer 1
10
71.262967
20
77.701331
11
69.200658
21
76.790064
0
LINE
8
Layer 1
10
69.200658
20
76.790064
11
65.885737
21
75.051381
0
LINE
8
Layer 1
10
65.885737
20
75.051381
11
61.426477
21
72.162721
0
LINE
8
Layer 1
10
61.426477
20
72.162721
11
61.211661
21
71.985989
0
LINE
8
Layer 1
10
61.211661
20
71.985989
11
61.942873
21
71.094190
0
LINE
8
Layer 1
10
61.942873
20
71.094190
11
67.105823
21
65.216823
0
LINE
8
Layer 1
10
67.105823
20
65.216823
11
72.571623
21
59.820450
0
LINE
8
Layer 1
10
72.571623
20
59.820450
11
78.397348
21
54.852672
0
LINE
8
Layer 1
10
78.397348
20
54.852672
11
84.640073
21
50.261090
0
LINE
8
Layer 1
10
84.640073
20
50.261090
11
88.908903
21
47.540410
0
LINE
8
Layer 1
10
88.908903
20
47.540410
11
89.154303
21
47.795516
0
LINE
8
Layer 1
10
89.154303
20
47.795516
11
89.154290
21
47.795575
0
LINE
8
Layer 1
10
136.524990
20
48.529078
11
134.699537
21
53.009912
0
LINE
8
Layer 1
10
134.699537
20
53.009912
11
132.398294
21
57.359322
0
LINE
8
Layer 1
10
132.398294
20
57.359322
11
129.679029
21
61.479860
0
LINE
8
Layer 1
10
129.679029
20
61.479860
11
126.599510
21
65.274078
0
LINE
8
Layer 1
10
126.599510
20
65.274078
11
123.882730
21
68.074248
0
LINE
8
Layer 1
10
123.882730
20
68.074248
11
123.341476
21
67.420875
0
LINE
8
Layer 1
10
123.341476
20
67.420875
11
121.918087
21
65.292342
0
LINE
8
Layer 1
10
121.918087
20
65.292342
11
120.775686
21
63.063505
0
LINE
8
Layer 1
10
120.775686
20
63.063505
11
119.657606
21
59.818475
0
LINE
8
Layer 1
10
119.657606
20
59.818475
11
119.610698
21
59.524390
0
LINE
8
Layer 1
10
119.610698
20
59.524390
11
120.307846
21
59.346434
0
LINE
8
Layer 1
10
120.307846
20
59.346434
11
122.497168
21
58.685355
0
LINE
8
Layer 1
10
122.497168
20
58.685355
11
124.633727
21
57.837517
0
LINE
8
Layer 1
10
124.633727
20
57.837517
11
126.701683
21
56.813310
0
LINE
8
Layer 1
10
126.701683
20
56.813310
11
128.685193
21
55.623124
0
LINE
8
Layer 1
10
128.685193
20
55.623124
11
130.568416
21
54.277348
0
LINE
8
Layer 1
10
130.568416
20
54.277348
11
132.335511
21
52.786373
0
LINE
8
Layer 1
10
132.335511
20
52.786373
11
133.970634
21
51.160589
0
LINE
8
Layer 1
10
133.970634
20
51.160589
11
135.457946
21
49.410384
0
LINE
8
Layer 1
10
135.457946
20
49.410384
11
136.438806
21
48.093274
0
LINE
8
Layer 1
10
136.438806
20
48.093274
11
136.847018
21
47.539653
0
LINE
8
Layer 1
10
136.847018
20
47.539653
11
136.524955
21
48.529047
0
LINE
8
Layer 1
10
136.524955
20
48.529047
11
136.524990
21
48.529078
0
LINE
8
Layer 1
10
93.362700
20
52.637300
11
95.558023
21
54.452499
0
LINE
8
Layer 1
10
95.558023
20
54.452499
11
97.692460
21
55.902860
0
LINE
8
Layer 1
10
97.692460
20
55.902860
11
98.265373
21
56.296034
0
LINE
8
Layer 1
10
98.265373
20
56.296034
11
97.828973
21
57.229424
0
LINE
8
Layer 1
10
97.828973
20
57.229424
11
96.105609
21
61.139799
0
LINE
8
Layer 1
10
96.105609
20
61.139799
11
94.752036
21
65.235977
0
LINE
8
Layer 1
10
94.752036
20
65.235977
11
93.776931
21
69.486853
0
LINE
8
Layer 1
10
93.776931
20
69.486853
11
93.188973
21
73.861324
0
LINE
8
Layer 1
10
93.188973
20
73.861324
11
93.061929
21
76.908768
0
LINE
8
Layer 1
10
93.061929
20
76.908768
11
93.110315
21
80.013954
0
LINE
8
Layer 1
10
93.110315
20
80.013954
11
93.101905
21
81.604944
0
LINE
8
Layer 1
10
93.101905
20
81.604944
11
90.101394
21
81.638157
0
LINE
8
Layer 1
10
90.101394
20
81.638157
11
86.170755
21
81.482610
0
LINE
8
Layer 1
10
86.170755
20
81.482610
11
83.268709
21
81.119625
0
LINE
8
Layer 1
10
83.268709
20
81.119625
11
80.462795
21
80.608832
0
LINE
8
Layer 1
10
80.462795
20
80.608832
11
77.630210
21
79.924192
0
LINE
8
Layer 1
10
77.630210
20
79.924192
11
74.648155
21
79.039670
0
LINE
8
Layer 1
10
74.648155
20
79.039670
11
74.455003
21
78.961820
0
LINE
8
Layer 1
10
74.455003
20
78.961820
11
74.418489
21
78.781838
0
LINE
8
Layer 1
10
74.418489
20
78.781838
11
74.939036
21
77.432120
0
LINE
8
Layer 1
10
74.939036
20
77.432120
11
77.567787
21
71.799822
0
LINE
8
Layer 1
10
77.567787
20
71.799822
11
80.667416
21
66.395908
0
LINE
8
Layer 1
10
80.667416
20
66.395908
11
84.212830
21
61.260175
0
LINE
8
Layer 1
10
84.212830
20
61.260175
11
88.178936
21
56.432420
0
LINE
8
Layer 1
10
88.178936
20
56.432420
11
92.575336
21
51.945310
0
LINE
8
Layer 1
10
92.575336
20
51.945310
11
93.362702
21
52.637324
0
LINE
8
Layer 1
10
93.362702
20
52.637324
11
93.362700
21
52.637300
0
LINE
8
Layer 1
10
41.171200
20
54.480400
11
41.760028
21
55.910820
0
LINE
8
Layer 1
10
41.760028
20
55.910820
11
40.098548
21
56.892777
0
LINE
8
Layer 1
10
40.098548
20
56.892777
11
32.580084
21
61.490472
0
LINE
8
Layer 1
10
32.580084
20
61.490472
11
25.245769
21
66.469647
0
LINE
8
Layer 1
10
25.245769
20
66.469647
11
18.142930
21
71.796518
0
LINE
8
Layer 1
10
18.142930
20
71.796518
11
11.318900
21
77.437300
0
LINE
8
Layer 1
10
11.318900
20
77.437300
11
10.235820
21
78.258684
0
LINE
8
Layer 1
10
10.235820
20
78.258684
11
8.127810
21
75.541454
0
LINE
8
Layer 1
10
8.127810
20
75.541454
11
4.644050
21
70.381914
0
LINE
8
Layer 1
10
4.644050
20
70.381914
11
4.482393
21
70.113329
0
LINE
8
Layer 1
10
4.482393
20
70.113329
11
6.740223
21
68.877299
0
LINE
8
Layer 1
10
6.740223
20
68.877299
11
16.166493
21
63.931369
0
LINE
8
Layer 1
10
16.166493
20
63.931369
11
27.595162
21
58.460461
0
LINE
8
Layer 1
10
27.595162
20
58.460461
11
39.799893
21
53.265869
0
LINE
8
Layer 1
10
39.799893
20
53.265869
11
40.480483
21
53.055729
0
LINE
8
Layer 1
10
40.480483
20
53.055729
11
41.171230
21
54.480439
0
LINE
8
Layer 1
10
41.171230
20
54.480439
11
41.171200
21
54.480400
0
LINE
8
Layer 1
10
-55.410400
20
56.817650
11
-53.203666
21
64.154294
0
LINE
8
Layer 1
10
-53.203666
20
64.154294
11
-50.426340
21
71.344650
0
LINE
8
Layer 1
10
-50.426340
20
71.344650
11
-49.740670
21
73.031290
0
LINE
8
Layer 1
10
-49.740670
20
73.031290
11
-52.494870
21
74.437340
0
LINE
8
Layer 1
10
-52.494870
20
74.437340
11
-60.195693
21
78.459196
0
LINE
8
Layer 1
10
-60.195693
20
78.459196
11
-67.836957
21
82.676806
0
LINE
8
Layer 1
10
-67.836957
20
82.676806
11
-75.468003
21
87.118159
0
LINE
8
Layer 1
10
-75.468003
20
87.118159
11
-83.138170
21
91.811240
0
LINE
8
Layer 1
10
-83.138170
20
91.811240
11
-85.728610
21
93.336330
0
LINE
8
Layer 1
10
-85.728610
20
93.336330
11
-88.073410
21
89.168960
0
LINE
8
Layer 1
10
-88.073410
20
89.168960
11
-90.404348
21
84.582591
0
LINE
8
Layer 1
10
-90.404348
20
84.582591
11
-92.541345
21
79.885349
0
LINE
8
Layer 1
10
-92.541345
20
79.885349
11
-94.479652
21
75.088287
0
LINE
8
Layer 1
10
-94.479652
20
75.088287
11
-96.214520
21
70.202460
0
LINE
8
Layer 1
10
-96.214520
20
70.202460
11
-97.664040
21
65.438700
0
LINE
8
Layer 1
10
-97.664040
20
65.438700
11
-79.749240
21
61.158760
0
LINE
8
Layer 1
10
-79.749240
20
61.158760
11
-61.678340
21
57.144300
0
LINE
8
Layer 1
10
-61.678340
20
57.144300
11
-57.160730
21
56.176680
0
LINE
8
Layer 1
10
-57.160730
20
56.176680
11
-55.807570
21
55.910283
0
LINE
8
Layer 1
10
-55.807570
20
55.910283
11
-55.635802
21
56.056011
0
LINE
8
Layer 1
10
-55.635802
20
56.056011
11
-55.410365
21
56.817635
0
LINE
8
Layer 1
10
-55.410365
20
56.817635
11
-55.410400
21
56.817650
0
LINE
8
Layer 1
10
103.601600
20
58.629820
11
106.650208
21
59.488750
0
LINE
8
Layer 1
10
106.650208
20
59.488750
11
109.767050
21
60.059820
0
LINE
8
Layer 1
10
109.767050
20
60.059820
11
113.576639
21
60.204795
0
LINE
8
Layer 1
10
113.576639
20
60.204795
11
117.276990
21
59.963375
0
LINE
8
Layer 1
10
117.276990
20
59.963375
11
117.489053
21
59.985091
0
LINE
8
Layer 1
10
117.489053
20
59.985091
11
117.601511
21
60.358699
0
LINE
8
Layer 1
10
117.601511
20
60.358699
11
118.877641
21
64.012419
0
LINE
8
Layer 1
10
118.877641
20
64.012419
11
120.164317
21
66.506309
0
LINE
8
Layer 1
10
120.164317
20
66.506309
11
121.738471
21
68.839039
0
LINE
8
Layer 1
10
121.738471
20
68.839039
11
122.234637
21
69.548416
0
LINE
8
Layer 1
10
122.234637
20
69.548416
11
119.519737
21
71.770566
0
LINE
8
Layer 1
10
119.519737
20
71.770566
11
117.294471
21
73.356848
0
LINE
8
Layer 1
10
117.294471
20
73.356848
11
114.976503
21
74.820984
0
LINE
8
Layer 1
10
114.976503
20
74.820984
11
112.576750
21
76.158009
0
LINE
8
Layer 1
10
112.576750
20
76.158009
11
110.106130
21
77.362958
0
LINE
8
Layer 1
10
110.106130
20
77.362958
11
107.575557
21
78.430867
0
LINE
8
Layer 1
10
107.575557
20
78.430867
11
104.995951
21
79.356770
0
LINE
8
Layer 1
10
104.995951
20
79.356770
11
102.378226
21
80.135702
0
LINE
8
Layer 1
10
102.378226
20
80.135702
11
99.733300
21
80.762700
0
LINE
8
Layer 1
10
99.733300
20
80.762700
11
95.568800
21
81.440200
0
LINE
8
Layer 1
10
95.568800
20
81.440200
11
95.414110
21
80.678697
0
LINE
8
Layer 1
10
95.414110
20
80.678697
11
95.373736
21
78.782924
0
LINE
8
Layer 1
10
95.373736
20
78.782924
11
95.619995
21
73.927590
0
LINE
8
Layer 1
10
95.619995
20
73.927590
11
96.209942
21
69.932933
0
LINE
8
Layer 1
10
96.209942
20
69.932933
11
97.139711
21
66.003381
0
LINE
8
Layer 1
10
97.139711
20
66.003381
11
98.400150
21
62.171384
0
LINE
8
Layer 1
10
98.400150
20
62.171384
11
99.982105
21
58.469390
0
LINE
8
Layer 1
10
99.982105
20
58.469390
11
100.490728
21
57.409200
0
LINE
8
Layer 1
10
100.490728
20
57.409200
11
101.446185
21
57.819347
0
LINE
8
Layer 1
10
101.446185
20
57.819347
11
103.601455
21
58.629829
0
LINE
8
Layer 1
10
103.601455
20
58.629829
11
103.601600
21
58.629820
0
LINE
8
Layer 1
10
134.189000
20
59.058700
11
132.842703
21
62.214831
0
LINE
8
Layer 1
10
132.842703
20
62.214831
11
131.292125
21
65.436325
0
LINE
8
Layer 1
10
131.292125
20
65.436325
11
129.644984
21
68.510781
0
LINE
8
Layer 1
10
129.644984
20
68.510781
11
128.009000
21
71.225800
0
LINE
8
Layer 1
10
128.009000
20
71.225800
11
127.678975
21
71.735961
0
LINE
8
Layer 1
10
127.678975
20
71.735961
11
127.244545
21
71.394654
0
LINE
8
Layer 1
10
127.244545
20
71.394654
11
126.048295
21
70.377314
0
LINE
8
Layer 1
10
126.048295
20
70.377314
11
125.286468
21
69.701278
0
LINE
8
Layer 1
10
125.286468
20
69.701278
11
126.471728
21
68.495748
0
LINE
8
Layer 1
10
126.471728
20
68.495748
11
128.652967
21
66.145974
0
LINE
8
Layer 1
10
128.652967
20
66.145974
11
130.661729
21
63.711463
0
LINE
8
Layer 1
10
130.661729
20
63.711463
11
132.485296
21
61.208597
0
LINE
8
Layer 1
10
132.485296
20
61.208597
11
134.110948
21
58.653758
0
LINE
8
Layer 1
10
134.110948
20
58.653758
11
134.689263
21
57.727394
0
LINE
8
Layer 1
10
134.689263
20
57.727394
11
134.189369
21
59.058614
0
LINE
8
Layer 1
10
134.189369
20
59.058614
11
134.189000
21
59.058700
0
LINE
8
Layer 1
10
-5.497520
20
61.653400
11
-3.050390
21
66.867510
0
LINE
8
Layer 1
10
-3.050390
20
66.867510
11
-2.327498
21
68.329060
0
LINE
8
Layer 1
10
-2.327498
20
68.329060
11
-4.256118
21
69.493800
0
LINE
8
Layer 1
10
-4.256118
20
69.493800
11
-11.384111
21
73.966257
0
LINE
8
Layer 1
10
-11.384111
20
73.966257
11
-18.518076
21
78.793942
0
LINE
8
Layer 1
10
-18.518076
20
78.793942
11
-25.596161
21
83.933482
0
LINE
8
Layer 1
10
-25.596161
20
83.933482
11
-32.556518
21
89.341500
0
LINE
8
Layer 1
10
-32.556518
20
89.341500
11
-34.172648
21
90.637980
0
LINE
8
Layer 1
10
-34.172648
20
90.637980
11
-35.072084
21
89.600780
0
LINE
8
Layer 1
10
-35.072084
20
89.600780
11
-38.557661
21
84.544837
0
LINE
8
Layer 1
10
-38.557661
20
84.544837
11
-41.709114
21
79.290580
0
LINE
8
Layer 1
10
-41.709114
20
79.290580
11
-43.893434
21
75.058580
0
LINE
8
Layer 1
10
-43.893434
20
75.058580
11
-35.879384
21
71.544540
0
LINE
8
Layer 1
10
-35.879384
20
71.544540
11
-22.451103
21
66.028854
0
LINE
8
Layer 1
10
-22.451103
20
66.028854
11
-8.699084
21
60.841840
0
LINE
8
Layer 1
10
-8.699084
20
60.841840
11
-6.234934
21
59.951169
0
LINE
8
Layer 1
10
-6.234934
20
59.951169
11
-6.142275
21
60.148510
0
LINE
8
Layer 1
10
-6.142275
20
60.148510
11
-5.497547
21
61.653420
0
LINE
8
Layer 1
10
-5.497547
20
61.653420
11
-5.497520
21
61.653400
0
LINE
8
Layer 1
10
44.839580
20
60.924542
11
46.233080
21
62.904722
0
LINE
8
Layer 1
10
46.233080
20
62.904722
11
46.987493
21
63.958052
0
LINE
8
Layer 1
10
46.987493
20
63.958052
11
45.848293
21
65.014242
0
LINE
8
Layer 1
10
45.848293
20
65.014242
11
39.835504
21
70.508285
0
LINE
8
Layer 1
10
39.835504
20
70.508285
11
34.105981
21
76.411969
0
LINE
8
Layer 1
10
34.105981
20
76.411969
11
28.731263
21
82.647090
0
LINE
8
Layer 1
10
28.731263
20
82.647090
11
23.782893
21
89.135442
0
LINE
8
Layer 1
10
23.782893
20
89.135442
11
22.878513
21
90.393382
0
LINE
8
Layer 1
10
22.878513
20
90.393382
11
21.100140
21
89.051056
0
LINE
8
Layer 1
10
21.100140
20
89.051056
11
18.033263
21
86.453282
0
LINE
8
Layer 1
10
18.033263
20
86.453282
11
15.197523
21
83.728972
0
LINE
8
Layer 1
10
15.197523
20
83.728972
11
13.332513
21
81.869162
0
LINE
8
Layer 1
10
13.332513
20
81.869162
11
13.561700
21
81.673479
0
LINE
8
Layer 1
10
13.561700
20
81.673479
11
20.409498
21
76.052136
0
LINE
8
Layer 1
10
20.409498
20
76.052136
11
27.327637
21
70.836060
0
LINE
8
Layer 1
10
27.327637
20
70.836060
11
34.482383
21
65.905373
0
LINE
8
Layer 1
10
34.482383
20
65.905373
11
42.040000
21
61.140200
0
LINE
8
Layer 1
10
42.040000
20
61.140200
11
44.100500
21
59.939770
0
LINE
8
Layer 1
10
44.100500
20
59.939770
11
44.839515
21
60.924527
0
LINE
8
Layer 1
10
44.839515
20
60.924527
11
44.839580
21
60.924542
0
LINE
8
Layer 1
10
-99.956420
20
66.748902
11
-97.594389
21
73.915896
0
LINE
8
Layer 1
10
-97.594389
20
73.915896
11
-94.783322
21
80.939786
0
LINE
8
Layer 1
10
-94.783322
20
80.939786
11
-91.510454
21
87.849808
0
LINE
8
Layer 1
10
-91.510454
20
87.849808
11
-87.763020
21
94.675202
0
LINE
8
Layer 1
10
-87.763020
20
94.675202
11
-92.704110
21
97.928022
0
LINE
8
Layer 1
10
-92.704110
20
97.928022
11
-103.632786
21
105.018756
0
LINE
8
Layer 1
10
-103.632786
20
105.018756
11
-113.598710
21
111.889522
0
LINE
8
Layer 1
10
-113.598710
20
111.889522
11
-115.810260
21
113.353382
0
LINE
8
Layer 1
10
-115.810260
20
113.353382
11
-118.614120
21
109.255472
0
LINE
8
Layer 1
10
-118.614120
20
109.255472
11
-123.078204
21
102.058988
0
LINE
8
Layer 1
10
-123.078204
20
102.058988
11
-127.153060
21
94.433272
0
LINE
8
Layer 1
10
-127.153060
20
94.433272
11
-130.874034
21
86.391423
0
LINE
8
Layer 1
10
-130.874034
20
86.391423
11
-134.081700
21
78.050272
0
LINE
8
Layer 1
10
-134.081700
20
78.050272
11
-134.689214
21
76.246972
0
LINE
8
Layer 1
10
-134.689214
20
76.246972
11
-126.044874
21
73.498762
0
LINE
8
Layer 1
10
-126.044874
20
73.498762
11
-113.792485
21
69.783313
0
LINE
8
Layer 1
10
-113.792485
20
69.783313
11
-104.763574
21
67.214112
0
LINE
8
Layer 1
10
-104.763574
20
67.214112
11
-100.240604
21
66.064962
0
LINE
8
Layer 1
10
-100.240604
20
66.064962
11
-99.956480
21
66.748876
0
LINE
8
Layer 1
10
-99.956480
20
66.748876
11
-99.956420
21
66.748902
0
LINE
8
Layer 1
10
54.182580
20
71.485072
11
55.462530
21
72.552492
0
LINE
8
Layer 1
10
55.462530
20
72.552492
11
55.689115
21
72.720009
0
LINE
8
Layer 1
10
55.689115
20
72.720009
11
54.822719
21
73.925379
0
LINE
8
Layer 1
10
54.822719
20
73.925379
11
50.853763
21
79.903147
0
LINE
8
Layer 1
10
50.853763
20
79.903147
11
47.302890
21
86.209297
0
LINE
8
Layer 1
10
47.302890
20
86.209297
11
44.177627
21
92.829168
0
LINE
8
Layer 1
10
44.177627
20
92.829168
11
41.485500
21
99.748100
0
LINE
8
Layer 1
10
41.485500
20
99.748100
11
41.206377
21
100.545327
0
LINE
8
Layer 1
10
41.206377
20
100.545327
11
40.932529
21
100.447261
0
LINE
8
Layer 1
10
40.932529
20
100.447261
11
39.720829
21
99.973539
0
LINE
8
Layer 1
10
39.720829
20
99.973539
11
36.514527
21
98.589723
0
LINE
8
Layer 1
10
36.514527
20
98.589723
11
33.285893
21
97.007183
0
LINE
8
Layer 1
10
33.285893
20
97.007183
11
30.152852
21
95.287137
0
LINE
8
Layer 1
10
30.152852
20
95.287137
11
27.233329
21
93.490799
0
LINE
8
Layer 1
10
27.233329
20
93.490799
11
26.278036
21
92.865965
0
LINE
8
Layer 1
10
26.278036
20
92.865965
11
26.703985
21
92.286860
0
LINE
8
Layer 1
10
26.703985
20
92.286860
11
31.749843
21
85.802954
0
LINE
8
Layer 1
10
31.749843
20
85.802954
11
37.260385
21
79.461660
0
LINE
8
Layer 1
10
37.260385
20
79.461660
11
42.807196
21
73.810329
0
LINE
8
Layer 1
10
42.807196
20
73.810329
11
48.723285
21
68.313160
0
LINE
8
Layer 1
10
48.723285
20
68.313160
11
49.843355
21
67.339089
0
LINE
8
Layer 1
10
49.843355
20
67.339089
11
51.486125
21
68.962129
0
LINE
8
Layer 1
10
51.486125
20
68.962129
11
54.182265
21
71.485069
0
LINE
8
Layer 1
10
54.182265
20
71.485069
11
54.182580
21
71.485072
0
LINE
8
Layer 1
10
132.097980
20
68.839702
11
130.377790
21
72.797312
0
LINE
8
Layer 1
10
130.377790
20
72.797312
11
130.138545
21
73.301365
0
LINE
8
Layer 1
10
130.138545
20
73.301365
11
129.828248
21
73.113895
0
LINE
8
Layer 1
10
129.828248
20
73.113895
11
129.539741
21
72.843137
0
LINE
8
Layer 1
10
129.539741
20
72.843137
11
130.280907
21
71.593157
0
LINE
8
Layer 1
10
130.280907
20
71.593157
11
131.745437
21
69.101057
0
LINE
8
Layer 1
10
131.745437
20
69.101057
11
132.511975
21
67.775647
0
LINE
8
Layer 1
10
132.511975
20
67.775647
11
132.097989
21
68.839717
0
LINE
8
Layer 1
10
132.097989
20
68.839717
11
132.097980
21
68.839702
0
LINE
8
Layer 1
10
124.330000
20
71.688500
11
125.682390
21
72.857720
0
LINE
8
Layer 1
10
125.682390
20
72.857720
11
126.456274
21
73.533808
0
LINE
8
Layer 1
10
126.456274
20
73.533808
11
124.972580
21
75.660008
0
LINE
8
Layer 1
10
124.972580
20
75.660008
11
122.271434
21
79.090658
0
LINE
8
Layer 1
10
122.271434
20
79.090658
11
120.189336
21
81.491460
0
LINE
8
Layer 1
10
120.189336
20
81.491460
11
117.690434
21
84.057128
0
LINE
8
Layer 1
10
117.690434
20
84.057128
11
114.339722
21
87.219024
0
LINE
8
Layer 1
10
114.339722
20
87.219024
11
110.929675
21
90.060987
0
LINE
8
Layer 1
10
110.929675
20
90.060987
11
107.341783
21
92.675420
0
LINE
8
Layer 1
10
107.341783
20
92.675420
11
103.457534
21
95.154728
0
LINE
8
Layer 1
10
103.457534
20
95.154728
11
99.614864
21
97.270728
0
LINE
8
Layer 1
10
99.614864
20
97.270728
11
98.495944
21
94.842198
0
LINE
8
Layer 1
10
98.495944
20
94.842198
11
97.165555
21
90.991355
0
LINE
8
Layer 1
10
97.165555
20
90.991355
11
96.183024
21
87.078098
0
LINE
8
Layer 1
10
96.183024
20
87.078098
11
95.662528
21
83.647968
0
LINE
8
Layer 1
10
95.662528
20
83.647968
11
96.998468
21
83.419609
0
LINE
8
Layer 1
10
96.998468
20
83.419609
11
100.557063
21
82.756467
0
LINE
8
Layer 1
10
100.557063
20
82.756467
11
104.029342
21
81.868805
0
LINE
8
Layer 1
10
104.029342
20
81.868805
11
107.408120
21
80.759821
0
LINE
8
Layer 1
10
107.408120
20
80.759821
11
110.686214
21
79.432709
0
LINE
8
Layer 1
10
110.686214
20
79.432709
11
113.856440
21
77.890666
0
LINE
8
Layer 1
10
113.856440
20
77.890666
11
116.911613
21
76.136888
0
LINE
8
Layer 1
10
116.911613
20
76.136888
11
119.844551
21
74.174570
0
LINE
8
Layer 1
10
119.844551
20
74.174570
11
122.648068
21
72.006909
0
LINE
8
Layer 1
10
122.648068
20
72.006909
11
123.722508
21
71.137878
0
LINE
8
Layer 1
10
123.722508
20
71.137878
11
124.330033
21
71.688459
0
LINE
8
Layer 1
10
124.330033
20
71.688459
11
124.330000
21
71.688500
0
LINE
8
Layer 1
10
1.145760
20
73.985900
11
3.508985
21
77.344781
0
LINE
8
Layer 1
10
3.508985
20
77.344781
11
6.115930
21
80.656390
0
LINE
8
Layer 1
10
6.115930
20
80.656390
11
6.800276
21
81.477774
0
LINE
8
Layer 1
10
6.800276
20
81.477774
11
5.696346
21
82.515564
0
LINE
8
Layer 1
10
5.696346
20
82.515564
11
-2.878114
21
91.149594
0
LINE
8
Layer 1
10
-2.878114
20
91.149594
11
-9.508301
21
98.668771
0
LINE
8
Layer 1
10
-9.508301
20
98.668771
11
-15.604714
21
106.380594
0
LINE
8
Layer 1
10
-15.604714
20
106.380594
11
-16.997034
21
108.238684
0
LINE
8
Layer 1
10
-16.997034
20
108.238684
11
-20.123714
21
105.706184
0
LINE
8
Layer 1
10
-20.123714
20
105.706184
11
-23.059898
21
103.070350
0
LINE
8
Layer 1
10
-23.059898
20
103.070350
11
-26.097834
21
100.099004
0
LINE
8
Layer 1
10
-26.097834
20
100.099004
11
-29.869349
21
96.074345
0
LINE
8
Layer 1
10
-29.869349
20
96.074345
11
-31.616074
21
93.899134
0
LINE
8
Layer 1
10
-31.616074
20
93.899134
11
-28.795804
21
91.749964
0
LINE
8
Layer 1
10
-28.795804
20
91.749964
11
-19.517010
21
85.080011
0
LINE
8
Layer 1
10
-19.517010
20
85.080011
11
-10.117804
21
78.848764
0
LINE
8
Layer 1
10
-10.117804
20
78.848764
11
-3.327489
21
74.649626
0
LINE
8
Layer 1
10
-3.327489
20
74.649626
11
0.231196
21
72.614734
0
LINE
8
Layer 1
10
0.231196
20
72.614734
11
1.145779
21
73.985874
0
LINE
8
Layer 1
10
1.145779
20
73.985874
11
1.145760
21
73.985900
0
LINE
8
Layer 1
10
128.764000
20
74.959800
11
129.181415
21
75.266542
0
LINE
8
Layer 1
10
129.181415
20
75.266542
11
125.518535
21
81.968292
0
LINE
8
Layer 1
10
125.518535
20
81.968292
11
123.437015
21
85.286117
0
LINE
8
Layer 1
10
123.437015
20
85.286117
11
121.238913
21
88.499773
0
LINE
8
Layer 1
10
121.238913
20
88.499773
11
118.921693
21
91.612274
0
LINE
8
Layer 1
10
118.921693
20
91.612274
11
116.482817
21
94.626637
0
LINE
8
Layer 1
10
116.482817
20
94.626637
11
113.919747
21
97.545875
0
LINE
8
Layer 1
10
113.919747
20
97.545875
11
111.229946
21
100.373005
0
LINE
8
Layer 1
10
111.229946
20
100.373005
11
108.410876
21
103.111041
0
LINE
8
Layer 1
10
108.410876
20
103.111041
11
105.460000
21
105.763000
0
LINE
8
Layer 1
10
105.460000
20
105.763000
11
105.008366
21
106.153612
0
LINE
8
Layer 1
10
105.008366
20
106.153612
11
104.297841
21
105.202964
0
LINE
8
Layer 1
10
104.297841
20
105.202964
11
102.462696
21
102.553953
0
LINE
8
Layer 1
10
102.462696
20
102.553953
11
100.818531
21
99.797894
0
LINE
8
Layer 1
10
100.818531
20
99.797894
11
100.505239
21
99.226375
0
LINE
8
Layer 1
10
100.505239
20
99.226375
11
101.495903
21
98.704938
0
LINE
8
Layer 1
10
101.495903
20
98.704938
11
105.211301
21
96.595775
0
LINE
8
Layer 1
10
105.211301
20
96.595775
11
108.840662
21
94.230559
0
LINE
8
Layer 1
10
108.840662
20
94.230559
11
112.359638
21
91.630722
0
LINE
8
Layer 1
10
112.359638
20
91.630722
11
115.743878
21
88.817695
0
LINE
8
Layer 1
10
115.743878
20
88.817695
11
118.969034
21
85.812912
0
LINE
8
Layer 1
10
118.969034
20
85.812912
11
122.010756
21
82.637803
0
LINE
8
Layer 1
10
122.010756
20
82.637803
11
124.844696
21
79.313801
0
LINE
8
Layer 1
10
124.844696
20
79.313801
11
127.446503
21
75.862338
0
LINE
8
Layer 1
10
127.446503
20
75.862338
11
128.297388
21
74.723598
0
LINE
8
Layer 1
10
128.297388
20
74.723598
11
128.764082
21
74.959589
0
LINE
8
Layer 1
10
128.764082
20
74.959589
11
128.764000
21
74.959800
0
LINE
8
Layer 1
10
59.550500
20
75.544200
11
64.197232
21
78.239829
0
LINE
8
Layer 1
10
64.197232
20
78.239829
11
69.145750
21
80.507620
0
LINE
8
Layer 1
10
69.145750
20
80.507620
11
70.110413
21
80.893036
0
LINE
8
Layer 1
10
70.110413
20
80.893036
11
69.795809
21
82.019326
0
LINE
8
Layer 1
10
69.795809
20
82.019326
11
68.854053
21
85.338143
0
LINE
8
Layer 1
10
68.854053
20
85.338143
11
68.060435
21
88.806095
0
LINE
8
Layer 1
10
68.060435
20
88.806095
11
67.432090
21
92.338837
0
LINE
8
Layer 1
10
67.432090
20
92.338837
11
66.986149
21
95.852026
0
LINE
8
Layer 1
10
66.986149
20
95.852026
11
66.724274
21
99.159319
0
LINE
8
Layer 1
10
66.724274
20
99.159319
11
66.650553
21
102.602316
0
LINE
8
Layer 1
10
66.650553
20
102.602316
11
66.644288
21
105.283026
0
LINE
8
Layer 1
10
66.644288
20
105.283026
11
64.889518
21
105.234811
0
LINE
8
Layer 1
10
64.889518
20
105.234811
11
59.982176
21
104.924164
0
LINE
8
Layer 1
10
59.982176
20
104.924164
11
55.033903
21
104.267565
0
LINE
8
Layer 1
10
55.033903
20
104.267565
11
50.117812
21
103.277219
0
LINE
8
Layer 1
10
50.117812
20
103.277219
11
45.307018
21
101.965331
0
LINE
8
Layer 1
10
45.307018
20
101.965331
11
44.578973
21
101.688316
0
LINE
8
Layer 1
10
44.578973
20
101.688316
11
46.032473
21
97.905496
0
LINE
8
Layer 1
10
46.032473
20
97.905496
11
48.517159
21
92.304720
0
LINE
8
Layer 1
10
48.517159
20
92.304720
11
51.291421
21
86.906420
0
LINE
8
Layer 1
10
51.291421
20
86.906420
11
54.383509
21
81.659333
0
LINE
8
Layer 1
10
54.383509
20
81.659333
11
57.821673
21
76.512196
0
LINE
8
Layer 1
10
57.821673
20
76.512196
11
58.710910
21
75.286189
0
LINE
8
Layer 1
10
58.710910
20
75.286189
11
58.944483
21
75.145746
0
LINE
8
Layer 1
10
58.944483
20
75.145746
11
59.550543
21
75.544237
0
LINE
8
Layer 1
10
59.550543
20
75.544237
11
59.550500
21
75.544200
0
LINE
8
Layer 1
10
-47.574500
20
77.389550
11
-45.265060
21
81.627140
0
LINE
8
Layer 1
10
-45.265060
20
81.627140
11
-42.023852
21
86.872498
0
LINE
8
Layer 1
10
-42.023852
20
86.872498
11
-38.393710
21
91.991840
0
LINE
8
Layer 1
10
-38.393710
20
91.991840
11
-37.454899
21
93.382780
0
LINE
8
Layer 1
10
-37.454899
20
93.382780
11
-38.641839
21
94.401820
0
LINE
8
Layer 1
10
-38.641839
20
94.401820
11
-45.011873
21
100.043124
0
LINE
8
Layer 1
10
-45.011873
20
100.043124
11
-51.285133
21
105.984704
0
LINE
8
Layer 1
10
-51.285133
20
105.984704
11
-57.368146
21
112.135067
0
LINE
8
Layer 1
10
-57.368146
20
112.135067
11
-63.167439
21
118.402720
0
LINE
8
Layer 1
10
-63.167439
20
118.402720
11
-64.589829
21
119.954960
0
LINE
8
Layer 1
10
-64.589829
20
119.954960
11
-69.930899
21
114.592660
0
LINE
8
Layer 1
10
-69.930899
20
114.592660
11
-73.226692
21
110.893444
0
LINE
8
Layer 1
10
-73.226692
20
110.893444
11
-76.320869
21
107.131601
0
LINE
8
Layer 1
10
-76.320869
20
107.131601
11
-79.247061
21
103.264513
0
LINE
8
Layer 1
10
-79.247061
20
103.264513
11
-82.038899
21
99.249560
0
LINE
8
Layer 1
10
-82.038899
20
99.249560
11
-84.377919
21
95.568550
0
LINE
8
Layer 1
10
-84.377919
20
95.568550
11
-75.995379
21
90.896700
0
LINE
8
Layer 1
10
-75.995379
20
90.896700
11
-64.142067
21
84.707701
0
LINE
8
Layer 1
10
-64.142067
20
84.707701
11
-52.082579
21
78.827200
0
LINE
8
Layer 1
10
-52.082579
20
78.827200
11
-47.898349
21
76.892050
0
LINE
8
Layer 1
10
-47.898349
20
76.892050
11
-47.574412
21
77.389555
0
LINE
8
Layer 1
10
-47.574412
20
77.389555
11
-47.574500
21
77.389550
0
LINE
8
Layer 1
10
129.642500
20
79.472030
11
126.578076
21
86.078994
0
LINE
8
Layer 1
10
126.578076
20
86.078994
11
123.142779
21
92.460265
0
LINE
8
Layer 1
10
123.142779
20
92.460265
11
119.335817
21
98.617218
0
LINE
8
Layer 1
10
119.335817
20
98.617218
11
115.156400
21
104.551230
0
LINE
8
Layer 1
10
115.156400
20
104.551230
11
111.944348
21
108.639019
0
LINE
8
Layer 1
10
111.944348
20
108.639019
11
109.774930
21
111.192090
0
LINE
8
Layer 1
10
109.774930
20
111.192090
11
108.914247
21
110.470787
0
LINE
8
Layer 1
10
108.914247
20
110.470787
11
107.340210
21
108.850590
0
LINE
8
Layer 1
10
107.340210
20
108.850590
11
106.424402
21
107.811150
0
LINE
8
Layer 1
10
106.424402
20
107.811150
11
107.096020
21
107.161481
0
LINE
8
Layer 1
10
107.096020
20
107.161481
11
112.442143
21
102.155371
0
LINE
8
Layer 1
10
112.442143
20
102.155371
11
117.570720
21
96.636081
0
LINE
8
Layer 1
10
117.570720
20
96.636081
11
120.943143
21
92.471408
0
LINE
8
Layer 1
10
120.943143
20
92.471408
11
124.149243
21
88.037002
0
LINE
8
Layer 1
10
124.149243
20
88.037002
11
127.117881
21
83.436961
0
LINE
8
Layer 1
10
127.117881
20
83.436961
11
129.777920
21
78.775381
0
LINE
8
Layer 1
10
129.777920
20
78.775381
11
130.286086
21
77.890407
0
LINE
8
Layer 1
10
130.286086
20
77.890407
11
129.642546
21
79.472007
0
LINE
8
Layer 1
10
129.642546
20
79.472007
11
129.642500
21
79.472030
0
LINE
8
Layer 1
10
74.397200
20
82.253200
11
78.890596
21
83.284448
0
LINE
8
Layer 1
10
78.890596
20
83.284448
11
83.384855
21
83.902471
0
LINE
8
Layer 1
10
83.384855
20
83.902471
11
87.982486
21
84.116651
0
LINE
8
Layer 1
10
87.982486
20
84.116651
11
92.786000
21
83.936370
0
LINE
8
Layer 1
10
92.786000
20
83.936370
11
93.464843
21
83.884929
0
LINE
8
Layer 1
10
93.464843
20
83.884929
11
93.593480
21
84.734800
0
LINE
8
Layer 1
10
93.593480
20
84.734800
11
94.225249
21
88.111484
0
LINE
8
Layer 1
10
94.225249
20
88.111484
11
95.089261
21
91.452640
0
LINE
8
Layer 1
10
95.089261
20
91.452640
11
96.174082
21
94.719501
0
LINE
8
Layer 1
10
96.174082
20
94.719501
11
97.468280
21
97.873300
0
LINE
8
Layer 1
10
97.468280
20
97.873300
11
97.656415
21
98.289249
0
LINE
8
Layer 1
10
97.656415
20
98.289249
11
96.449885
21
98.839053
0
LINE
8
Layer 1
10
96.449885
20
98.839053
11
90.230046
21
101.350782
0
LINE
8
Layer 1
10
90.230046
20
101.350782
11
87.099606
21
102.375169
0
LINE
8
Layer 1
10
87.099606
20
102.375169
11
83.960275
21
103.244030
0
LINE
8
Layer 1
10
83.960275
20
103.244030
11
80.815646
21
103.956464
0
LINE
8
Layer 1
10
80.815646
20
103.956464
11
77.669309
21
104.511564
0
LINE
8
Layer 1
10
77.669309
20
104.511564
11
74.524859
21
104.908429
0
LINE
8
Layer 1
10
74.524859
20
104.908429
11
71.385885
21
105.146153
0
LINE
8
Layer 1
10
71.385885
20
105.146153
11
69.911125
21
105.231644
0
LINE
8
Layer 1
10
69.911125
20
105.231644
11
69.295088
21
105.273901
0
LINE
8
Layer 1
10
69.295088
20
105.273901
11
69.295935
21
104.277810
0
LINE
8
Layer 1
10
69.295935
20
104.277810
11
69.482502
21
100.156342
0
LINE
8
Layer 1
10
69.482502
20
100.156342
11
70.002392
21
95.582672
0
LINE
8
Layer 1
10
70.002392
20
95.582672
11
70.804143
21
90.916621
0
LINE
8
Layer 1
10
70.804143
20
90.916621
11
71.836295
21
86.518010
0
LINE
8
Layer 1
10
71.836295
20
86.518010
11
73.270815
21
81.963060
0
LINE
8
Layer 1
10
73.270815
20
81.963060
11
74.397355
21
82.253143
0
LINE
8
Layer 1
10
74.397355
20
82.253143
11
74.397200
21
82.253200
0
LINE
8
Layer 1
10
13.107700
20
87.976500
11
16.187975
21
90.639267
0
LINE
8
Layer 1
10
16.187975
20
90.639267
11
19.381260
21
93.130690
0
LINE
8
Layer 1
10
19.381260
20
93.130690
11
20.460100
21
93.944860
0
LINE
8
Layer 1
10
20.460100
20
93.944860
11
19.538465
21
95.413000
0
LINE
8
Layer 1
10
19.538465
20
95.413000
11
16.802585
21
99.907144
0
LINE
8
Layer 1
10
16.802585
20
99.907144
11
14.204502
21
104.576614
0
LINE
8
Layer 1
10
14.204502
20
104.576614
11
11.768551
21
109.375652
0
LINE
8
Layer 1
10
11.768551
20
109.375652
11
9.519065
21
114.258500
0
LINE
8
Layer 1
10
9.519065
20
114.258500
11
6.751525
21
121.109150
0
LINE
8
Layer 1
10
6.751525
20
121.109150
11
6.395417
21
121.911866
0
LINE
8
Layer 1
10
6.395417
20
121.911866
11
2.501677
21
120.231746
0
LINE
8
Layer 1
10
2.501677
20
120.231746
11
-1.520079
21
118.265846
0
LINE
8
Layer 1
10
-1.520079
20
118.265846
11
-5.462898
21
116.104826
0
LINE
8
Layer 1
10
-5.462898
20
116.104826
11
-9.320329
21
113.752421
0
LINE
8
Layer 1
10
-9.320329
20
113.752421
11
-13.085923
21
111.212366
0
LINE
8
Layer 1
10
-13.085923
20
111.212366
11
-14.037765
21
110.494207
0
LINE
8
Layer 1
10
-14.037765
20
110.494207
11
-12.866425
21
108.994177
0
LINE
8
Layer 1
10
-12.866425
20
108.994177
11
-7.842339
21
102.981774
0
LINE
8
Layer 1
10
-7.842339
20
102.981774
11
-2.604854
21
97.173502
0
LINE
8
Layer 1
10
-2.604854
20
97.173502
11
2.855870
21
91.558843
0
LINE
8
Layer 1
10
2.855870
20
91.558843
11
8.549675
21
86.127277
0
LINE
8
Layer 1
10
8.549675
20
86.127277
11
9.893405
21
84.892217
0
LINE
8
Layer 1
10
9.893405
20
84.892217
11
11.091215
21
86.059847
0
LINE
8
Layer 1
10
11.091215
20
86.059847
11
13.107695
21
87.976437
0
LINE
8
Layer 1
10
13.107695
20
87.976437
11
13.107700
21
87.976500
0
LINE
8
Layer 1
10
25.586100
20
97.242130
11
28.719088
21
99.007194
0
LINE
8
Layer 1
10
28.719088
20
99.007194
11
31.946290
21
100.628674
0
LINE
8
Layer 1
10
31.946290
20
100.628674
11
35.243497
21
102.095111
0
LINE
8
Layer 1
10
35.243497
20
102.095111
11
38.586500
21
103.395050
0
LINE
8
Layer 1
10
38.586500
20
103.395050
11
40.098590
21
104.016571
0
LINE
8
Layer 1
10
40.098590
20
104.016571
11
39.728967
21
105.404321
0
LINE
8
Layer 1
10
39.728967
20
105.404321
11
38.365553
21
110.846744
0
LINE
8
Layer 1
10
38.365553
20
110.846744
11
37.308278
21
116.409888
0
LINE
8
Layer 1
10
37.308278
20
116.409888
11
36.554283
21
122.111524
0
LINE
8
Layer 1
10
36.554283
20
122.111524
11
36.100707
21
127.969421
0
LINE
8
Layer 1
10
36.100707
20
127.969421
11
36.052456
21
128.911523
0
LINE
8
Layer 1
10
36.052456
20
128.911523
11
35.742048
21
128.883893
0
LINE
8
Layer 1
10
35.742048
20
128.883893
11
31.362058
21
128.439736
0
LINE
8
Layer 1
10
31.362058
20
128.439736
11
26.819246
21
127.773928
0
LINE
8
Layer 1
10
26.819246
20
127.773928
11
22.296525
21
126.887672
0
LINE
8
Layer 1
10
22.296525
20
126.887672
11
17.798295
21
125.781935
0
LINE
8
Layer 1
10
17.798295
20
125.781935
11
13.328958
21
124.457686
0
LINE
8
Layer 1
10
13.328958
20
124.457686
11
9.428858
21
123.055476
0
LINE
8
Layer 1
10
9.428858
20
123.055476
11
10.799936
21
119.758278
0
LINE
8
Layer 1
10
10.799936
20
119.758278
11
13.520288
21
113.997186
0
LINE
8
Layer 1
10
13.520288
20
113.997186
11
17.947619
21
105.711591
0
LINE
8
Layer 1
10
17.947619
20
105.711591
11
22.831258
21
97.846686
0
LINE
8
Layer 1
10
22.831258
20
97.846686
11
23.912488
21
96.219746
0
LINE
8
Layer 1
10
23.912488
20
96.219746
11
24.109061
21
96.349643
0
LINE
8
Layer 1
10
24.109061
20
96.349643
11
25.586061
21
97.242130
0
LINE
8
Layer 1
10
25.586061
20
97.242130
11
25.586100
21
97.242130
0
LINE
8
Layer 1
10
-34.192700
20
97.177480
11
-29.239314
21
102.461005
0
LINE
8
Layer 1
10
-29.239314
20
102.461005
11
-23.761400
21
107.531080
0
LINE
8
Layer 1
10
-23.761400
20
107.531080
11
-19.509340
21
110.973560
0
LINE
8
Layer 1
10
-19.509340
20
110.973560
11
-19.191987
21
111.256138
0
LINE
8
Layer 1
10
-19.191987
20
111.256138
11
-20.077625
21
112.600218
0
LINE
8
Layer 1
10
-20.077625
20
112.600218
11
-23.205564
21
117.309678
0
LINE
8
Layer 1
10
-23.205564
20
117.309678
11
-26.299205
21
122.285718
0
LINE
8
Layer 1
10
-26.299205
20
122.285718
11
-29.951575
21
128.664088
0
LINE
8
Layer 1
10
-29.951575
20
128.664088
11
-33.831945
21
136.121918
0
LINE
8
Layer 1
10
-33.831945
20
136.121918
11
-35.852365
21
140.138838
0
LINE
8
Layer 1
10
-35.852365
20
140.138838
11
-37.247305
21
139.413923
0
LINE
8
Layer 1
10
-37.247305
20
139.413923
11
-43.864873
21
135.720244
0
LINE
8
Layer 1
10
-43.864873
20
135.720244
11
-50.149562
21
131.685366
0
LINE
8
Layer 1
10
-50.149562
20
131.685366
11
-56.144298
21
127.279792
0
LINE
8
Layer 1
10
-56.144298
20
127.279792
11
-61.892005
21
122.474023
0
LINE
8
Layer 1
10
-61.892005
20
122.474023
11
-62.964445
21
121.520039
0
LINE
8
Layer 1
10
-62.964445
20
121.520039
11
-61.667995
21
120.217599
0
LINE
8
Layer 1
10
-61.667995
20
120.217599
11
-52.317564
21
111.269462
0
LINE
8
Layer 1
10
-52.317564
20
111.269462
11
-42.301095
21
102.451699
0
LINE
8
Layer 1
10
-42.301095
20
102.451699
11
-34.879915
21
96.449509
0
LINE
8
Layer 1
10
-34.879915
20
96.449509
11
-34.192671
21
97.177554
0
LINE
8
Layer 1
10
-34.192671
20
97.177554
11
-34.192700
21
97.177480
0
LINE
8
Layer 1
10
-86.126100
20
97.326823
11
-81.710204
21
103.848458
0
LINE
8
Layer 1
10
-81.710204
20
103.848458
11
-76.660100
21
110.367423
0
LINE
8
Layer 1
10
-76.660100
20
110.367423
11
-72.365056
21
115.263269
0
LINE
8
Layer 1
10
-72.365056
20
115.263269
11
-67.401500
21
120.328143
0
LINE
8
Layer 1
10
-67.401500
20
120.328143
11
-66.083930
21
121.656643
0
LINE
8
Layer 1
10
-66.083930
20
121.656643
11
-67.447330
21
123.203493
0
LINE
8
Layer 1
10
-67.447330
20
123.203493
11
-71.935370
21
128.303694
0
LINE
8
Layer 1
10
-71.935370
20
128.303694
11
-76.433126
21
133.657283
0
LINE
8
Layer 1
10
-76.433126
20
133.657283
11
-80.626310
21
138.881751
0
LINE
8
Layer 1
10
-80.626310
20
138.881751
11
-84.200630
21
143.594593
0
LINE
8
Layer 1
10
-84.200630
20
143.594593
11
-84.997484
21
144.608913
0
LINE
8
Layer 1
10
-84.997484
20
144.608913
11
-90.053414
21
140.737313
0
LINE
8
Layer 1
10
-90.053414
20
140.737313
11
-96.096749
21
135.533698
0
LINE
8
Layer 1
10
-96.096749
20
135.533698
11
-101.808543
21
130.033246
0
LINE
8
Layer 1
10
-101.808543
20
130.033246
11
-107.170572
21
124.254528
0
LINE
8
Layer 1
10
-107.170572
20
124.254528
11
-112.164614
21
118.216113
0
LINE
8
Layer 1
10
-112.164614
20
118.216113
11
-114.470884
21
115.159553
0
LINE
8
Layer 1
10
-114.470884
20
115.159553
11
-104.870184
21
108.415703
0
LINE
8
Layer 1
10
-104.870184
20
108.415703
11
-91.342484
21
99.591023
0
LINE
8
Layer 1
10
-91.342484
20
99.591023
11
-86.532884
21
96.751093
0
LINE
8
Layer 1
10
-86.532884
20
96.751093
11
-86.126069
21
97.326846
0
LINE
8
Layer 1
10
-86.126069
20
97.326846
11
-86.126100
21
97.326823
0
LINE
8
Layer 1
10
98.898900
20
100.724363
11
100.554470
21
103.510020
0
LINE
8
Layer 1
10
100.554470
20
103.510020
11
102.548830
21
106.407923
0
LINE
8
Layer 1
10
102.548830
20
106.407923
11
103.244535
21
107.389875
0
LINE
8
Layer 1
10
103.244535
20
107.389875
11
103.290455
21
107.550771
0
LINE
8
Layer 1
10
103.290455
20
107.550771
11
103.215359
21
107.639993
0
LINE
8
Layer 1
10
103.215359
20
107.639993
11
101.951619
21
108.630217
0
LINE
8
Layer 1
10
101.951619
20
108.630217
11
98.973044
21
110.863769
0
LINE
8
Layer 1
10
98.973044
20
110.863769
11
95.815785
21
113.041710
0
LINE
8
Layer 1
10
95.815785
20
113.041710
11
89.232419
21
117.053777
0
LINE
8
Layer 1
10
89.232419
20
117.053777
11
84.320989
21
119.568877
0
LINE
8
Layer 1
10
84.320989
20
119.568877
11
79.049919
21
121.943877
0
LINE
8
Layer 1
10
79.049919
20
121.943877
11
71.977479
21
124.525827
0
LINE
8
Layer 1
10
71.977479
20
124.525827
11
71.196334
21
121.800327
0
LINE
8
Layer 1
10
71.196334
20
121.800327
11
70.189342
21
117.136537
0
LINE
8
Layer 1
10
70.189342
20
117.136537
11
69.596524
21
112.644437
0
LINE
8
Layer 1
10
69.596524
20
112.644437
11
69.295210
21
108.051037
0
LINE
8
Layer 1
10
69.295210
20
108.051037
11
69.309497
21
107.883069
0
LINE
8
Layer 1
10
69.309497
20
107.883069
11
69.495097
21
107.786214
0
LINE
8
Layer 1
10
69.495097
20
107.786214
11
71.236660
21
107.612309
0
LINE
8
Layer 1
10
71.236660
20
107.612309
11
76.043925
21
107.033204
0
LINE
8
Layer 1
10
76.043925
20
107.033204
11
81.085088
21
106.105069
0
LINE
8
Layer 1
10
81.085088
20
106.105069
11
86.062436
21
104.891549
0
LINE
8
Layer 1
10
86.062436
20
104.891549
11
90.678260
21
103.456289
0
LINE
8
Layer 1
10
90.678260
20
103.456289
11
94.781182
21
101.877747
0
LINE
8
Layer 1
10
94.781182
20
101.877747
11
98.085730
21
100.418869
0
LINE
8
Layer 1
10
98.085730
20
100.418869
11
98.569332
21
100.186604
0
LINE
8
Layer 1
10
98.569332
20
100.186604
11
98.898922
21
100.724379
0
LINE
8
Layer 1
10
98.898922
20
100.724379
11
98.898900
21
100.724363
0
LINE
8
Layer 1
10
118.568300
20
103.636543
11
117.581454
21
105.260643
0
LINE
8
Layer 1
10
117.581454
20
105.260643
11
114.189850
21
110.516384
0
LINE
8
Layer 1
10
114.189850
20
110.516384
11
112.172854
21
113.323533
0
LINE
8
Layer 1
10
112.172854
20
113.323533
11
111.732653
21
112.998213
0
LINE
8
Layer 1
10
111.732653
20
112.998213
11
111.346110
21
112.674502
0
LINE
8
Layer 1
10
111.346110
20
112.674502
11
112.320846
21
111.525062
0
LINE
8
Layer 1
10
112.320846
20
111.525062
11
115.309928
21
107.843767
0
LINE
8
Layer 1
10
115.309928
20
107.843767
11
118.124336
21
104.121912
0
LINE
8
Layer 1
10
118.124336
20
104.121912
11
118.586543
21
103.514441
0
LINE
8
Layer 1
10
118.586543
20
103.514441
11
118.638401
21
103.483292
0
LINE
8
Layer 1
10
118.638401
20
103.483292
11
118.568308
21
103.636549
0
LINE
8
Layer 1
10
118.568308
20
103.636549
11
118.568300
21
103.636543
0
LINE
8
Layer 1
10
46.109800
20
105.677133
11
50.544300
21
106.648203
0
LINE
8
Layer 1
10
50.544300
20
106.648203
11
54.979189
21
107.338638
0
LINE
8
Layer 1
10
54.979189
20
107.338638
11
59.464333
21
107.754625
0
LINE
8
Layer 1
10
59.464333
20
107.754625
11
64.049600
21
107.902353
0
LINE
8
Layer 1
10
64.049600
20
107.902353
11
66.756460
21
107.911468
0
LINE
8
Layer 1
10
66.756460
20
107.911468
11
66.787733
21
108.135482
0
LINE
8
Layer 1
10
66.787733
20
108.135482
11
66.974335
21
110.039592
0
LINE
8
Layer 1
10
66.974335
20
110.039592
11
67.365898
21
113.279817
0
LINE
8
Layer 1
10
67.365898
20
113.279817
11
67.952003
21
116.842594
0
LINE
8
Layer 1
10
67.952003
20
116.842594
11
69.474735
21
123.665492
0
LINE
8
Layer 1
10
69.474735
20
123.665492
11
69.860674
21
125.180032
0
LINE
8
Layer 1
10
69.860674
20
125.180032
11
66.196374
21
126.202392
0
LINE
8
Layer 1
10
66.196374
20
126.202392
11
61.480635
21
127.287232
0
LINE
8
Layer 1
10
61.480635
20
127.287232
11
56.727223
21
128.130437
0
LINE
8
Layer 1
10
56.727223
20
128.130437
11
51.957436
21
128.728782
0
LINE
8
Layer 1
10
51.957436
20
128.728782
11
47.192574
21
129.079042
0
LINE
8
Layer 1
10
47.192574
20
129.079042
11
39.662654
21
129.106474
0
LINE
8
Layer 1
10
39.662654
20
129.106474
11
38.530714
21
129.057481
0
LINE
8
Layer 1
10
38.530714
20
129.057481
11
38.530500
21
128.843000
0
LINE
8
Layer 1
10
38.530500
20
128.843000
11
39.203295
21
123.028800
0
LINE
8
Layer 1
10
39.203295
20
123.028800
11
40.511902
21
115.726774
0
LINE
8
Layer 1
10
40.511902
20
115.726774
11
42.304835
21
108.621000
0
LINE
8
Layer 1
10
42.304835
20
108.621000
11
43.423565
21
105.033410
0
LINE
8
Layer 1
10
43.423565
20
105.033410
11
43.963820
21
105.119776
0
LINE
8
Layer 1
10
43.963820
20
105.119776
11
46.109640
21
105.677294
0
LINE
8
Layer 1
10
46.109640
20
105.677294
11
46.109800
21
105.677133
0
LINE
8
Layer 1
10
107.079800
20
111.627193
11
108.325330
21
112.878763
0
LINE
8
Layer 1
10
108.325330
20
112.878763
11
107.319340
21
113.979333
0
LINE
8
Layer 1
10
107.319340
20
113.979333
11
103.447494
21
117.930394
0
LINE
8
Layer 1
10
103.447494
20
117.930394
11
99.387720
21
121.813483
0
LINE
8
Layer 1
10
99.387720
20
121.813483
11
94.355442
21
126.101082
0
LINE
8
Layer 1
10
94.355442
20
126.101082
11
89.219604
21
130.032310
0
LINE
8
Layer 1
10
89.219604
20
130.032310
11
83.912823
21
133.655899
0
LINE
8
Layer 1
10
83.912823
20
133.655899
11
78.367720
21
137.020583
0
LINE
8
Layer 1
10
78.367720
20
137.020583
11
77.247650
21
137.661012
0
LINE
8
Layer 1
10
77.247650
20
137.661012
11
76.583500
21
136.339052
0
LINE
8
Layer 1
10
76.583500
20
136.339052
11
74.127350
21
130.872832
0
LINE
8
Layer 1
10
74.127350
20
130.872832
11
72.580700
21
126.630812
0
LINE
8
Layer 1
10
72.580700
20
126.630812
11
73.570094
21
126.251297
0
LINE
8
Layer 1
10
73.570094
20
126.251297
11
77.436858
21
124.863608
0
LINE
8
Layer 1
10
77.436858
20
124.863608
11
81.541244
21
123.195977
0
LINE
8
Layer 1
10
81.541244
20
123.195977
11
87.434518
21
120.408782
0
LINE
8
Layer 1
10
87.434518
20
120.408782
11
93.173827
21
117.221493
0
LINE
8
Layer 1
10
93.173827
20
117.221493
11
98.670919
21
113.686896
0
LINE
8
Layer 1
10
98.670919
20
113.686896
11
103.837544
21
109.857777
0
LINE
8
Layer 1
10
103.837544
20
109.857777
11
104.726670
21
109.149843
0
LINE
8
Layer 1
10
104.726670
20
109.149843
11
105.280454
21
109.762713
0
LINE
8
Layer 1
10
105.280454
20
109.762713
11
107.079764
21
111.627163
0
LINE
8
Layer 1
10
107.079764
20
111.627163
11
107.079800
21
111.627193
0
LINE
8
Layer 1
10
-14.625800
20
114.472000
11
-10.487273
21
117.114161
0
LINE
8
Layer 1
10
-10.487273
20
117.114161
11
-6.290040
21
119.512837
0
LINE
8
Layer 1
10
-6.290040
20
119.512837
11
-1.960162
21
121.707871
0
LINE
8
Layer 1
10
-1.960162
20
121.707871
11
2.576300
21
123.739100
0
LINE
8
Layer 1
10
2.576300
20
123.739100
11
4.797770
21
124.644344
0
LINE
8
Layer 1
10
4.797770
20
124.644344
11
5.376472
21
124.927509
0
LINE
8
Layer 1
10
5.376472
20
124.927509
11
4.822307
21
126.684059
0
LINE
8
Layer 1
10
4.822307
20
126.684059
11
2.809655
21
133.453666
0
LINE
8
Layer 1
10
2.809655
20
133.453666
11
0.972637
21
141.140359
0
LINE
8
Layer 1
10
0.972637
20
141.140359
11
-0.669213
21
149.279459
0
LINE
8
Layer 1
10
-0.669213
20
149.279459
11
-1.018755
21
151.220019
0
LINE
8
Layer 1
10
-1.018755
20
151.220019
11
-1.092018
21
151.397044
0
LINE
8
Layer 1
10
-1.092018
20
151.397044
11
-1.178418
21
151.378309
0
LINE
8
Layer 1
10
-1.178418
20
151.378309
11
-2.640838
21
151.109984
0
LINE
8
Layer 1
10
-2.640838
20
151.109984
11
-9.266754
21
149.752915
0
LINE
8
Layer 1
10
-9.266754
20
149.752915
11
-15.960563
21
147.973335
0
LINE
8
Layer 1
10
-15.960563
20
147.973335
11
-22.558710
21
145.819642
0
LINE
8
Layer 1
10
-22.558710
20
145.819642
11
-28.897638
21
143.340234
0
LINE
8
Layer 1
10
-28.897638
20
143.340234
11
-33.886388
21
141.064764
0
LINE
8
Layer 1
10
-33.886388
20
141.064764
11
-32.060118
21
137.459974
0
LINE
8
Layer 1
10
-32.060118
20
137.459974
11
-29.409600
21
132.837406
0
LINE
8
Layer 1
10
-29.409600
20
132.837406
11
-26.330953
21
127.843091
0
LINE
8
Layer 1
10
-26.330953
20
127.843091
11
-23.005488
21
122.762268
0
LINE
8
Layer 1
10
-23.005488
20
122.762268
11
-19.614518
21
117.880174
0
LINE
8
Layer 1
10
-19.614518
20
117.880174
11
-16.272148
21
113.399894
0
LINE
8
Layer 1
10
-16.272148
20
113.399894
11
-14.625858
21
114.472004
0
LINE
8
Layer 1
10
-14.625858
20
114.472004
11
-14.625800
21
114.472000
0
LINE
8
Layer 1
10
110.421200
20
114.672691
11
110.886813
21
115.123766
0
LINE
8
Layer 1
10
110.886813
20
115.123766
11
106.453823
21
120.867016
0
LINE
8
Layer 1
10
106.453823
20
120.867016
11
101.009067
21
127.110476
0
LINE
8
Layer 1
10
101.009067
20
127.110476
11
95.168723
21
133.053152
0
LINE
8
Layer 1
10
95.168723
20
133.053152
11
88.990729
21
138.639461
0
LINE
8
Layer 1
10
88.990729
20
138.639461
11
82.533023
21
143.813816
0
LINE
8
Layer 1
10
82.533023
20
143.813816
11
81.439183
21
144.612499
0
LINE
8
Layer 1
10
81.439183
20
144.612499
11
79.802754
21
142.096309
0
LINE
8
Layer 1
10
79.802754
20
142.096309
11
78.317533
21
139.522309
0
LINE
8
Layer 1
10
78.317533
20
139.522309
11
79.786223
21
138.656486
0
LINE
8
Layer 1
10
79.786223
20
138.656486
11
85.272962
21
135.305443
0
LINE
8
Layer 1
10
85.272962
20
135.305443
11
90.588438
21
131.663656
0
LINE
8
Layer 1
10
90.588438
20
131.663656
11
95.714232
21
127.744458
0
LINE
8
Layer 1
10
95.714232
20
127.744458
11
100.631923
21
123.561186
0
LINE
8
Layer 1
10
100.631923
20
123.561186
11
105.218009
21
119.203724
0
LINE
8
Layer 1
10
105.218009
20
119.203724
11
109.399913
21
114.844806
0
LINE
8
Layer 1
10
109.399913
20
114.844806
11
109.917124
21
114.303439
0
LINE
8
Layer 1
10
109.917124
20
114.303439
11
110.421156
21
114.672752
0
LINE
8
Layer 1
10
110.421156
20
114.672752
11
110.421200
21
114.672691
0
LINE
8
Layer 1
10
-63.742800
20
123.728921
11
-59.699790
21
127.181711
0
LINE
8
Layer 1
10
-59.699790
20
127.181711
11
-54.571060
21
131.155689
0
LINE
8
Layer 1
10
-54.571060
20
131.155689
11
-49.280766
21
134.831663
0
LINE
8
Layer 1
10
-49.280766
20
134.831663
11
-43.786309
21
138.237612
0
LINE
8
Layer 1
10
-43.786309
20
138.237612
11
-38.045090
21
141.401511
0
LINE
8
Layer 1
10
-38.045090
20
141.401511
11
-36.821110
21
142.045866
0
LINE
8
Layer 1
10
-36.821110
20
142.045866
11
-37.596856
21
143.770566
0
LINE
8
Layer 1
10
-37.596856
20
143.770566
11
-41.700512
21
153.108271
0
LINE
8
Layer 1
10
-41.700512
20
153.108271
11
-45.377906
21
162.792866
0
LINE
8
Layer 1
10
-45.377906
20
162.792866
11
-46.102508
21
164.828916
0
LINE
8
Layer 1
10
-46.102508
20
164.828916
11
-49.917818
21
163.506006
0
LINE
8
Layer 1
10
-49.917818
20
163.506006
11
-57.539412
21
160.458527
0
LINE
8
Layer 1
10
-57.539412
20
160.458527
11
-64.983293
21
156.962338
0
LINE
8
Layer 1
10
-64.983293
20
156.962338
11
-72.221562
21
153.031558
0
LINE
8
Layer 1
10
-72.221562
20
153.031558
11
-79.226318
21
148.680306
0
LINE
8
Layer 1
10
-79.226318
20
148.680306
11
-83.245978
21
145.918736
0
LINE
8
Layer 1
10
-83.245978
20
145.918736
11
-79.758398
21
141.252356
0
LINE
8
Layer 1
10
-79.758398
20
141.252356
11
-72.873457
21
132.680286
0
LINE
8
Layer 1
10
-72.873457
20
132.680286
11
-65.726698
21
124.469956
0
LINE
8
Layer 1
10
-65.726698
20
124.469956
11
-64.459418
21
123.107206
0
LINE
8
Layer 1
10
-64.459418
20
123.107206
11
-63.742777
21
123.728975
0
LINE
8
Layer 1
10
-63.742777
20
123.728975
11
-63.742800
21
123.728921
0
LINE
8
Layer 1
10
9.560300
20
126.357471
11
14.728543
21
127.922746
0
LINE
8
Layer 1
10
14.728543
20
127.922746
11
20.092869
21
129.221003
0
LINE
8
Layer 1
10
20.092869
20
129.221003
11
25.566610
21
130.233763
0
LINE
8
Layer 1
10
25.566610
20
130.233763
11
31.063100
21
130.942541
0
LINE
8
Layer 1
10
31.063100
20
130.942541
11
35.886020
21
131.320332
0
LINE
8
Layer 1
10
35.886020
20
131.320332
11
36.018100
21
134.811862
0
LINE
8
Layer 1
10
36.018100
20
134.811862
11
36.313412
21
142.789522
0
LINE
8
Layer 1
10
36.313412
20
142.789522
11
37.046640
21
149.709862
0
LINE
8
Layer 1
10
37.046640
20
149.709862
11
37.246199
21
151.447082
0
LINE
8
Layer 1
10
37.246199
20
151.447082
11
35.386699
21
151.742292
0
LINE
8
Layer 1
10
35.386699
20
151.742292
11
27.278866
21
152.616326
0
LINE
8
Layer 1
10
27.278866
20
152.616326
11
19.170537
21
152.944844
0
LINE
8
Layer 1
10
19.170537
20
152.944844
11
11.070288
21
152.727785
0
LINE
8
Layer 1
10
11.070288
20
152.727785
11
2.986699
21
151.965089
0
LINE
8
Layer 1
10
2.986699
20
151.965089
11
1.299009
21
151.736049
0
LINE
8
Layer 1
10
1.299009
20
151.736049
11
1.067409
21
151.693795
0
LINE
8
Layer 1
10
1.067409
20
151.693795
11
1.357672
21
150.001255
0
LINE
8
Layer 1
10
1.357672
20
150.001255
11
2.693002
21
143.302245
0
LINE
8
Layer 1
10
2.693002
20
143.302245
11
4.829773
21
135.626603
0
LINE
8
Layer 1
10
4.829773
20
135.626603
11
7.715652
21
127.251445
0
LINE
8
Layer 1
10
7.715652
20
127.251445
11
8.132976
21
126.150045
0
LINE
8
Layer 1
10
8.132976
20
126.150045
11
8.270384
21
125.944700
0
LINE
8
Layer 1
10
8.270384
20
125.944700
11
9.560314
21
126.357515
0
LINE
8
Layer 1
10
9.560314
20
126.357515
11
9.560300
21
126.357471
0
LINE
8
Layer 1
10
70.634100
20
127.531421
11
72.285340
21
131.995441
0
LINE
8
Layer 1
10
72.285340
20
131.995441
11
74.740430
21
137.435021
0
LINE
8
Layer 1
10
74.740430
20
137.435021
11
75.292414
21
138.719231
0
LINE
8
Layer 1
10
75.292414
20
138.719231
11
68.996084
21
141.843881
0
LINE
8
Layer 1
10
68.996084
20
141.843881
11
63.045629
21
144.390458
0
LINE
8
Layer 1
10
63.045629
20
144.390458
11
57.036374
21
146.600820
0
LINE
8
Layer 1
10
57.036374
20
146.600820
11
50.958599
21
148.478255
0
LINE
8
Layer 1
10
50.958599
20
148.478255
11
44.802584
21
150.026051
0
LINE
8
Layer 1
10
44.802584
20
150.026051
11
39.419204
21
151.053261
0
LINE
8
Layer 1
10
39.419204
20
151.053261
11
38.829964
21
146.889941
0
LINE
8
Layer 1
10
38.829964
20
146.889941
11
38.297386
21
140.580221
0
LINE
8
Layer 1
10
38.297386
20
140.580221
11
38.258335
21
132.412911
0
LINE
8
Layer 1
10
38.258335
20
132.412911
11
38.322498
21
131.376711
0
LINE
8
Layer 1
10
38.322498
20
131.376711
11
39.565078
21
131.412940
0
LINE
8
Layer 1
10
39.565078
20
131.412940
11
45.074288
21
131.339284
0
LINE
8
Layer 1
10
45.074288
20
131.339284
11
51.261678
21
130.944042
0
LINE
8
Layer 1
10
51.261678
20
130.944042
11
55.892112
21
130.398236
0
LINE
8
Layer 1
10
55.892112
20
130.398236
11
60.585222
21
129.623826
0
LINE
8
Layer 1
10
60.585222
20
129.623826
11
65.162185
21
128.654452
0
LINE
8
Layer 1
10
65.162185
20
128.654452
11
69.444178
21
127.523752
0
LINE
8
Layer 1
10
69.444178
20
127.523752
11
70.496418
21
127.220459
0
LINE
8
Layer 1
10
70.496418
20
127.220459
11
70.634156
21
127.531417
0
LINE
8
Layer 1
10
70.634156
20
127.531417
11
70.634100
21
127.531421
0
LINE
8
Layer 1
10
77.172590
20
141.862821
11
78.796690
21
144.478371
0
LINE
8
Layer 1
10
78.796690
20
144.478371
11
79.672092
21
145.867831
0
LINE
8
Layer 1
10
79.672092
20
145.867831
11
77.143172
21
147.674881
0
LINE
8
Layer 1
10
77.143172
20
147.674881
11
70.710061
21
151.810784
0
LINE
8
Layer 1
10
70.710061
20
151.810784
11
63.930371
21
155.648336
0
LINE
8
Layer 1
10
63.930371
20
155.648336
11
56.913356
21
159.129586
0
LINE
8
Layer 1
10
56.913356
20
159.129586
11
49.768272
21
162.196581
0
LINE
8
Layer 1
10
49.768272
20
162.196581
11
44.971160
21
164.002025
0
LINE
8
Layer 1
10
44.971160
20
164.002025
11
42.528252
21
164.778641
0
LINE
8
Layer 1
10
42.528252
20
164.778641
11
41.222602
21
160.069351
0
LINE
8
Layer 1
10
41.222602
20
160.069351
11
39.924322
21
154.170321
0
LINE
8
Layer 1
10
39.924322
20
154.170321
11
39.746641
21
153.236931
0
LINE
8
Layer 1
10
39.746641
20
153.236931
11
40.165173
21
153.146312
0
LINE
8
Layer 1
10
40.165173
20
153.146312
11
42.151803
21
152.749832
0
LINE
8
Layer 1
10
42.151803
20
152.749832
11
50.374280
21
150.844107
0
LINE
8
Layer 1
10
50.374280
20
150.844107
11
58.453741
21
148.368014
0
LINE
8
Layer 1
10
58.453741
20
148.368014
11
66.334733
21
145.340679
0
LINE
8
Layer 1
10
66.334733
20
145.340679
11
73.961803
21
141.781232
0
LINE
8
Layer 1
10
73.961803
20
141.781232
11
76.351283
21
140.592452
0
LINE
8
Layer 1
10
76.351283
20
140.592452
11
77.172665
21
141.862782
0
LINE
8
Layer 1
10
77.172665
20
141.862782
11
77.172590
21
141.862821
0
LINE
8
Layer 1
10
-30.503410
20
144.963361
11
-23.946707
21
147.573963
0
LINE
8
Layer 1
10
-23.946707
20
147.573963
11
-17.267449
21
149.807255
0
LINE
8
Layer 1
10
-17.267449
20
149.807255
11
-10.541771
21
151.640142
0
LINE
8
Layer 1
10
-10.541771
20
151.640142
11
-3.845810
21
153.049531
0
LINE
8
Layer 1
10
-3.845810
20
153.049531
11
-1.586606
21
153.470926
0
LINE
8
Layer 1
10
-1.586606
20
153.470926
11
-1.369127
21
153.563031
0
LINE
8
Layer 1
10
-1.369127
20
153.563031
11
-1.381030
21
153.671661
0
LINE
8
Layer 1
10
-1.381030
20
153.671661
11
-2.309224
21
161.712171
0
LINE
8
Layer 1
10
-2.309224
20
161.712171
11
-2.837716
21
171.475441
0
LINE
8
Layer 1
10
-2.837716
20
171.475441
11
-2.837747
21
172.016805
0
LINE
8
Layer 1
10
-2.837747
20
172.016805
11
-3.864477
21
172.015958
0
LINE
8
Layer 1
10
-3.864477
20
172.015958
11
-9.931517
21
171.791417
0
LINE
8
Layer 1
10
-9.931517
20
171.791417
11
-17.523220
21
171.141223
0
LINE
8
Layer 1
10
-17.523220
20
171.141223
11
-25.067692
21
170.081388
0
LINE
8
Layer 1
10
-25.067692
20
170.081388
11
-32.521601
21
168.619203
0
LINE
8
Layer 1
10
-32.521601
20
168.619203
11
-39.841617
21
166.761957
0
LINE
8
Layer 1
10
-39.841617
20
166.761957
11
-44.029197
21
165.497557
0
LINE
8
Layer 1
10
-44.029197
20
165.497557
11
-43.343028
21
163.420817
0
LINE
8
Layer 1
10
-43.343028
20
163.420817
11
-39.551007
21
153.463985
0
LINE
8
Layer 1
10
-39.551007
20
153.463985
11
-35.178478
21
143.630317
0
LINE
8
Layer 1
10
-35.178478
20
143.630317
11
-34.871364
21
142.984294
0
LINE
8
Layer 1
10
-34.871364
20
142.984294
11
-33.508764
21
143.619384
0
LINE
8
Layer 1
10
-33.508764
20
143.619384
11
-30.503394
21
144.963254
0
LINE
8
Layer 1
10
-30.503394
20
144.963254
11
-30.503410
21
144.963361
0
LINE
8
Layer 1
10
37.937590
20
155.066461
11
38.901430
21
159.524950
0
LINE
8
Layer 1
10
38.901430
20
159.524950
11
40.056390
21
163.944161
0
LINE
8
Layer 1
10
40.056390
20
163.944161
11
40.471584
21
165.452101
0
LINE
8
Layer 1
10
40.471584
20
165.452101
11
36.551344
21
166.678811
0
LINE
8
Layer 1
10
36.551344
20
166.678811
11
29.282830
21
168.542446
0
LINE
8
Layer 1
10
29.282830
20
168.542446
11
21.942784
21
170.007387
0
LINE
8
Layer 1
10
21.942784
20
170.007387
11
14.514568
21
171.076488
0
LINE
8
Layer 1
10
14.514568
20
171.076488
11
6.981544
21
171.752601
0
LINE
8
Layer 1
10
6.981544
20
171.752601
11
0.245984
21
172.016560
0
LINE
8
Layer 1
10
0.245984
20
172.016560
11
-0.739891
21
172.016842
0
LINE
8
Layer 1
10
-0.739891
20
172.016842
11
-0.708268
21
171.662154
0
LINE
8
Layer 1
10
-0.708268
20
171.662154
11
-0.636584
21
169.521204
0
LINE
8
Layer 1
10
-0.636584
20
169.521204
11
-0.375247
21
164.244042
0
LINE
8
Layer 1
10
-0.375247
20
164.244042
11
0.152661
21
158.464004
0
LINE
8
Layer 1
10
0.152661
20
158.464004
11
0.764233
21
153.831474
0
LINE
8
Layer 1
10
0.764233
20
153.831474
11
1.269196
21
153.882503
0
LINE
8
Layer 1
10
1.269196
20
153.882503
11
9.109676
21
154.730780
0
LINE
8
Layer 1
10
9.109676
20
154.730780
11
15.714106
21
155.022528
0
LINE
8
Layer 1
10
15.714106
20
155.022528
11
22.587876
21
154.998648
0
LINE
8
Layer 1
10
22.587876
20
154.998648
11
29.554518
21
154.563746
0
LINE
8
Layer 1
10
29.554518
20
154.563746
11
35.954076
21
153.803078
0
LINE
8
Layer 1
10
35.954076
20
153.803078
11
37.515866
21
153.599830
0
LINE
8
Layer 1
10
37.515866
20
153.599830
11
37.682209
21
153.858563
0
LINE
8
Layer 1
10
37.682209
20
153.858563
11
37.937692
21
155.066460
0
LINE
8
Layer 1
10
37.937692
20
155.066460
11
37.937590
21
155.066461
 0 
ENDSEC
 0 
EOF
